<svg xmlns="http://www.w3.org/2000/svg" xmlns:xlink="http://www.w3.org/1999/xlink" width="1024" zoomAndPan="magnify" viewBox="0 0 768 576" height="768" preserveAspectRatio="xMidYMid meet" version="1.0"><defs><clipPath id="82623e6fe6"><path d="M 121.023438 25.023438 L 646.773438 25.023438 L 646.773438 550.773438 L 121.023438 550.773438 Z M 121.023438 25.023438 " clip-rule="nonzero"/></clipPath></defs><path stroke-linecap="butt" transform="matrix(0.780624, 0, 0, 0.780624, -80.766933, -6.200662)" fill="none" stroke-linejoin="miter" d="M 891.601599 376.758949 C 891.601599 381.607837 891.481503 386.456725 891.24131 391.300609 C 891.006122 396.144493 890.650837 400.978369 890.175456 405.802237 C 889.700074 410.631109 889.104597 415.439965 888.394027 420.238813 C 887.683457 425.037661 886.852791 429.811488 885.907033 434.570304 C 884.961275 439.324116 883.900424 444.057912 882.719477 448.761684 C 881.543534 453.465455 880.247495 458.134199 878.841367 462.777922 C 877.43524 467.416642 875.91402 472.020333 874.277708 476.588997 C 872.6464 481.152656 870.9 485.676283 869.043511 490.154874 C 867.187022 494.63847 865.225449 499.067021 863.148784 503.455539 C 861.077123 507.839054 858.895374 512.167525 856.60854 516.445956 C 854.32671 520.719382 851.934792 524.937765 849.442794 529.101103 C 846.950796 533.259438 844.353714 537.35272 841.661555 541.385954 C 838.964392 545.419188 836.177157 549.382366 833.284838 553.275487 C 830.397523 557.173613 827.415132 560.996678 824.337664 564.744684 C 821.260196 568.492689 818.09766 572.16063 814.840048 575.758515 C 811.582436 579.351396 808.239756 582.859209 804.812007 586.291961 C 801.379255 589.71971 797.871442 593.06239 794.278561 596.320002 C 790.680676 599.577614 787.012735 602.74015 783.26473 605.817618 C 779.516724 608.895086 775.693659 611.877477 771.795533 614.764792 C 767.902412 617.657111 763.939234 620.444346 759.906 623.141509 C 755.872766 625.833668 751.779484 628.43075 747.621149 630.922748 C 743.457811 633.414746 739.239428 635.806664 734.966002 638.088494 C 730.687571 640.375328 726.3591 642.557077 721.970581 644.628738 C 717.587067 646.705403 713.158516 648.666976 708.67492 650.523465 C 704.196329 652.379954 699.672702 654.126354 695.109043 655.757662 C 690.540379 657.393974 685.936688 658.915194 681.297968 660.321321 C 676.654245 661.727449 671.985501 663.023488 667.28173 664.199431 C 662.577958 665.380378 657.844162 666.441229 653.09035 667.386987 C 648.331534 668.332745 643.557707 669.163411 638.758859 669.873981 C 633.960011 670.584551 629.151155 671.180028 624.322283 671.655409 C 619.498415 672.130791 614.664539 672.486076 609.820655 672.721264 C 604.976771 672.961457 600.127883 673.081553 595.278995 673.081553 C 590.430107 673.081553 585.586222 672.961457 580.742338 672.721264 C 575.898454 672.486076 571.059574 672.130791 566.235706 671.655409 C 561.411838 671.180028 556.597978 670.584551 551.799131 669.873981 C 547.005287 669.163411 542.226455 668.332745 537.472643 667.386987 C 532.713827 666.441229 527.985035 665.380378 523.281264 664.199431 C 518.577492 663.023488 513.903744 661.727449 509.265025 660.321321 C 504.621301 658.915194 500.01761 657.393974 495.45395 655.757662 C 490.885287 654.126354 486.36166 652.379954 481.883069 650.523465 C 477.404478 648.666976 472.970923 646.705403 468.587408 644.628738 C 464.203893 642.557077 459.870418 640.375328 455.596991 638.088494 C 451.318561 635.806664 447.100178 633.414746 442.941844 630.922748 C 438.78351 628.43075 434.685223 625.833668 430.651989 623.141509 C 426.618755 620.444346 422.655578 617.657111 418.762456 614.764792 C 414.869334 611.877477 411.046269 608.895086 407.298263 605.817618 C 403.550258 602.74015 399.877313 599.577614 396.284432 596.320002 C 392.691551 593.06239 389.178734 589.71971 385.750986 586.291961 C 382.323237 582.859209 378.980557 579.351396 375.722945 575.758515 C 372.465333 572.16063 369.297793 568.492689 366.220325 564.744684 C 363.142858 560.996678 360.160466 557.173613 357.273151 553.275487 C 354.385836 549.382366 351.593597 545.419188 348.896434 541.385954 C 346.204276 537.35272 343.612197 533.259438 341.120199 529.101103 C 338.623197 524.937765 336.236283 520.719382 333.949449 516.445956 C 331.662615 512.167525 329.480866 507.839054 327.409205 503.455539 C 325.337544 499.067021 323.370967 494.63847 321.514478 490.154874 C 319.65799 485.676283 317.916593 481.152656 316.280281 476.588997 C 314.648973 472.020333 313.127753 467.416642 311.721626 462.777922 C 310.310494 458.134199 309.019459 453.465455 307.838512 448.761684 C 306.662569 444.057912 305.601719 439.324116 304.65596 434.570304 C 303.705198 429.811488 302.879536 425.037661 302.168966 420.238813 C 301.453392 415.439965 300.862919 410.631109 300.387538 405.802237 C 299.912156 400.978369 299.556872 396.144493 299.316679 391.300609 C 299.08149 386.456725 298.961394 381.607837 298.961394 376.758949 C 298.961394 371.910061 299.08149 367.066176 299.316679 362.222292 C 299.556872 357.378408 299.912156 352.539528 300.387538 347.71566 C 300.862919 342.891792 301.453392 338.077932 302.168966 333.279085 C 302.879536 328.485241 303.705198 323.706409 304.65596 318.952597 C 305.601719 314.193781 306.662569 309.464989 307.838512 304.761218 C 309.019459 300.057446 310.310494 295.383698 311.721626 290.744979 C 313.127753 286.101255 314.648973 281.497564 316.280281 276.933904 C 317.916593 272.365241 319.65799 267.841614 321.514478 263.363023 C 323.370967 258.884432 325.337544 254.450877 327.409205 250.067362 C 329.480866 245.683847 331.662615 241.350372 333.949449 237.076945 C 336.236283 232.798515 338.623197 228.580132 341.120199 224.421798 C 343.612197 220.263464 346.204276 216.165177 348.896434 212.131943 C 351.593597 208.098709 354.385836 204.135532 357.273151 200.24241 C 360.160466 196.349288 363.142858 192.526223 366.220325 188.778217 C 369.297793 185.030212 372.465333 181.357267 375.722945 177.764386 C 378.980557 174.171505 382.323237 170.658688 385.750986 167.23094 C 389.178734 163.803191 392.691551 160.460511 396.284432 157.202899 C 399.877313 153.945287 403.550258 150.777747 407.298263 147.700279 C 411.046269 144.622812 414.869334 141.64042 418.762456 138.753105 C 422.655578 135.86579 426.618755 133.073551 430.651989 130.381392 C 434.685223 127.68423 438.78351 125.092151 442.941844 122.600153 C 447.100178 120.103151 451.318561 117.716237 455.596991 115.429403 C 459.870418 113.142569 464.203893 110.96082 468.587408 108.889159 C 472.970923 106.817498 477.404478 104.850921 481.883069 102.994432 C 486.36166 101.137944 490.885287 99.396547 495.45395 97.760235 C 500.01761 96.128927 504.621301 94.607707 509.265025 93.20158 C 513.903744 91.790448 518.577492 90.499413 523.281264 89.318466 C 527.985035 88.142523 532.713827 87.081673 537.472643 86.135914 C 542.226455 85.185152 547.005287 84.35949 551.799131 83.64892 C 556.597978 82.933346 561.411838 82.342873 566.235706 81.867492 C 571.059574 81.39211 575.898454 81.036826 580.742338 80.796633 C 585.586222 80.561444 590.430107 80.441348 595.278995 80.441348 C 600.127883 80.441348 604.976771 80.561444 609.820655 80.796633 C 614.664539 81.036826 619.498415 81.39211 624.322283 81.867492 C 629.151155 82.342873 633.960011 82.933346 638.758859 83.64892 C 643.557707 84.35949 648.331534 85.185152 653.09035 86.135914 C 657.844162 87.081673 662.577958 88.142523 667.28173 89.318466 C 671.985501 90.499413 676.654245 91.790448 681.297968 93.20158 C 685.936688 94.607707 690.540379 96.128927 695.109043 97.760235 C 699.672702 99.396547 704.196329 101.137944 708.67492 102.994432 C 713.158516 104.850921 717.587067 106.817498 721.970581 108.889159 C 726.3591 110.96082 730.687571 113.142569 734.966002 115.429403 C 739.239428 117.716237 743.457811 120.103151 747.621149 122.600153 C 751.779484 125.092151 755.872766 127.68423 759.906 130.381392 C 763.939234 133.073551 767.902412 135.86579 771.795533 138.753105 C 775.693659 141.64042 779.516724 144.622812 783.26473 147.700279 C 787.012735 150.777747 790.680676 153.945287 794.278561 157.202899 C 797.871442 160.460511 801.379255 163.803191 804.812007 167.23094 C 808.239756 170.658688 811.582436 174.171505 814.840048 177.764386 C 818.09766 181.357267 821.260196 185.030212 824.337664 188.778217 C 827.415132 192.526223 830.397523 196.349288 833.284838 200.24241 C 836.177157 204.135532 838.964392 208.098709 841.661555 212.131943 C 844.353714 216.165177 846.950796 220.263464 849.442794 224.421798 C 851.934792 228.580132 854.32671 232.798515 856.60854 237.076945 C 858.895374 241.350372 861.077123 245.683847 863.148784 250.067362 C 865.225449 254.450877 867.187022 258.884432 869.043511 263.363023 C 870.9 267.841614 872.6464 272.365241 874.277708 276.933904 C 875.91402 281.497564 877.43524 286.101255 878.841367 290.744979 C 880.247495 295.383698 881.543534 300.057446 882.719477 304.761218 C 883.900424 309.464989 884.961275 314.193781 885.907033 318.952597 C 886.852791 323.706409 887.683457 328.485241 888.394027 333.279085 C 889.104597 338.077932 889.700074 342.891792 890.175456 347.71566 C 890.650837 352.539528 891.006122 357.378408 891.24131 362.222292 C 891.481503 367.066176 891.601599 371.910061 891.601599 376.758949 Z M 891.601599 376.758949 " stroke="#000000" stroke-width="0.5" stroke-opacity="1" stroke-miterlimit="10"/><path stroke-linecap="butt" transform="matrix(0.780624, 0, 0, 0.780624, -80.766933, -6.200662)" fill="none" stroke-linejoin="miter" d="M 767.612179 376.758949 C 767.612179 379.581212 767.542123 382.398471 767.40201 385.21573 C 767.261898 388.032989 767.056734 390.845244 766.781513 393.652495 C 766.506292 396.459746 766.161015 399.256988 765.745682 402.044223 C 765.330349 404.836462 764.849964 407.613689 764.299523 410.380908 C 763.749081 413.148127 763.128584 415.89533 762.443034 418.632525 C 761.762488 421.369719 761.006882 424.086898 760.191228 426.784061 C 759.37057 429.481224 758.48486 432.15837 757.534098 434.815501 C 756.588339 437.472631 755.572525 440.099738 754.491658 442.706828 C 753.410792 445.313919 752.269877 447.890985 751.06391 450.438028 C 749.857943 452.990074 748.591928 455.507092 747.26086 457.994086 C 745.929793 460.481081 744.543682 462.938051 743.092518 465.354989 C 741.641354 467.771927 740.135147 470.158841 738.568891 472.500719 C 737.002635 474.8476 735.376331 477.149446 733.694983 479.416264 C 732.018638 481.683081 730.282246 483.904863 728.49081 486.086612 C 726.704377 488.263358 724.862901 490.400071 722.96638 492.491748 C 721.074863 494.578421 719.128302 496.620058 717.136705 498.616659 C 715.140104 500.608256 713.098467 502.554817 711.011794 504.446334 C 708.920117 506.342855 706.783404 508.184331 704.606658 509.970764 C 702.424909 511.7622 700.203127 513.498592 697.93631 515.174937 C 695.669492 516.856285 693.367646 518.482589 691.020765 520.048845 C 688.678887 521.615101 686.291973 523.121308 683.875035 524.572472 C 681.458097 526.023636 679.001127 527.409747 676.514132 528.740814 C 674.027138 530.071882 671.51012 531.337897 668.958074 532.543864 C 666.411031 533.749831 663.833965 534.890746 661.226874 535.971612 C 658.619784 537.052479 655.992677 538.068293 653.335547 539.014052 C 650.678416 539.964814 648.00127 540.850524 645.304107 541.671182 C 642.606944 542.486836 639.889765 543.242442 637.152571 543.922988 C 634.415376 544.608538 631.668173 545.229035 628.900954 545.779477 C 626.133735 546.329918 623.356508 546.810303 620.564269 547.225636 C 617.777035 547.640969 614.979792 547.986246 612.172541 548.261467 C 609.36529 548.536688 606.553035 548.741852 603.735776 548.881964 C 600.918517 549.022077 598.101258 549.092133 595.278995 549.092133 C 592.461736 549.092133 589.639473 549.022077 586.822214 548.881964 C 584.004955 548.741852 581.197704 548.536688 578.390453 548.261467 C 575.583202 547.986246 572.785959 547.640969 569.99372 547.225636 C 567.206485 546.810303 564.424254 546.329918 561.662039 545.779477 C 558.89482 545.229035 556.142613 544.608538 553.405419 543.922988 C 550.673228 543.242442 547.956049 542.486836 545.253882 541.671182 C 542.55672 540.850524 539.879573 539.964814 537.222442 539.014052 C 534.570316 538.068293 531.938205 537.052479 529.331115 535.971612 C 526.724024 534.890746 524.146958 533.749831 521.599915 532.543864 C 519.047869 531.337897 516.530851 530.071882 514.043857 528.740814 C 511.556863 527.409747 509.104896 526.023636 506.682954 524.572472 C 504.266016 523.121308 501.884106 521.615101 499.537225 520.048845 C 497.195347 518.482589 494.888497 516.856285 492.621679 515.174937 C 490.359866 513.498592 488.13308 511.7622 485.956335 509.970764 C 483.774585 508.184331 481.637872 506.342855 479.551199 504.446334 C 477.459522 502.554817 475.417885 500.608256 473.426288 498.616659 C 471.429687 496.620058 469.48813 494.578421 467.591609 492.491748 C 465.700093 490.400071 463.858616 488.263358 462.06718 486.086612 C 460.275743 483.904863 458.544355 481.683081 456.863007 479.416264 C 455.181658 477.149446 453.560358 474.8476 451.994102 472.500719 C 450.427847 470.158841 448.916635 467.771927 447.465471 465.354989 C 446.019312 462.938051 444.628196 460.481081 443.297129 457.994086 C 441.971066 455.507092 440.700046 452.990074 439.494079 450.438028 C 438.288112 447.890985 437.147198 445.313919 436.066331 442.706828 C 434.990468 440.099738 433.974654 437.472631 433.023891 434.815501 C 432.073129 432.15837 431.187419 429.481224 430.371765 426.784061 C 429.551107 424.086898 428.800505 421.369719 428.114955 418.632525 C 427.429405 415.89533 426.813912 413.148127 426.263471 410.380908 C 425.713029 407.613689 425.22764 404.836462 424.817311 402.044223 C 424.401978 399.256988 424.056701 396.459746 423.78148 393.652495 C 423.501256 390.845244 423.296091 388.032989 423.155979 385.21573 C 423.02087 382.398471 422.950814 379.581212 422.950814 376.758949 C 422.950814 373.94169 423.02087 371.119427 423.155979 368.302168 C 423.296091 365.484909 423.501256 362.677658 423.78148 359.870407 C 424.056701 357.063156 424.401978 354.265913 424.817311 351.473674 C 425.22764 348.686439 425.713029 345.904208 426.263471 343.141993 C 426.813912 340.374774 427.429405 337.622567 428.114955 334.885373 C 428.800505 332.153182 429.551107 329.436003 430.371765 326.733836 C 431.187419 324.036674 432.073129 321.359527 433.023891 318.702396 C 433.974654 316.05027 434.990468 313.418159 436.066331 310.811069 C 437.147198 308.208982 438.288112 305.626912 439.494079 303.079869 C 440.700046 300.527823 441.971066 298.010805 443.297129 295.523811 C 444.628196 293.036816 446.019312 290.58485 447.465471 288.162908 C 448.916635 285.74597 450.427847 283.36406 451.994102 281.017179 C 453.560358 278.675301 455.181658 276.368451 456.863007 274.101633 C 458.544355 271.83982 460.275743 269.613034 462.06718 267.436289 C 463.858616 265.254539 465.700093 263.117826 467.591609 261.031153 C 469.48813 258.939476 471.429687 256.897839 473.426288 254.906242 C 475.417885 252.909641 477.459522 250.968084 479.551199 249.071563 C 481.637872 247.180047 483.774585 245.33857 485.956335 243.547133 C 488.13308 241.755697 490.359866 240.024309 492.621679 238.342961 C 494.888497 236.661612 497.195347 235.040312 499.537225 233.474056 C 501.884106 231.907801 504.266016 230.396589 506.682954 228.945425 C 509.104896 227.499266 511.556863 226.10815 514.043857 224.777083 C 516.530851 223.45102 519.047869 222.18 521.599915 220.974033 C 524.146958 219.768066 526.724024 218.627152 529.331115 217.546285 C 531.938205 216.470422 534.570316 215.454608 537.222442 214.503845 C 539.879573 213.553083 542.55672 212.667373 545.253882 211.851719 C 547.956049 211.031061 550.673228 210.280459 553.405419 209.594909 C 556.142613 208.909359 558.89482 208.293866 561.662039 207.743425 C 564.424254 207.192983 567.206485 206.707594 569.99372 206.297265 C 572.785959 205.881932 575.583202 205.536655 578.390453 205.261434 C 581.197704 204.98121 584.004955 204.776045 586.822214 204.635933 C 589.639473 204.500824 592.461736 204.430768 595.278995 204.430768 C 598.101258 204.430768 600.918517 204.500824 603.735776 204.635933 C 606.553035 204.776045 609.36529 204.98121 612.172541 205.261434 C 614.979792 205.536655 617.777035 205.881932 620.564269 206.297265 C 623.356508 206.707594 626.133735 207.192983 628.900954 207.743425 C 631.668173 208.293866 634.415376 208.909359 637.152571 209.594909 C 639.889765 210.280459 642.606944 211.031061 645.304107 211.851719 C 648.00127 212.667373 650.678416 213.553083 653.335547 214.503845 C 655.992677 215.454608 658.619784 216.470422 661.226874 217.546285 C 663.833965 218.627152 666.411031 219.768066 668.958074 220.974033 C 671.51012 222.18 674.027138 223.45102 676.514132 224.777083 C 679.001127 226.10815 681.458097 227.499266 683.875035 228.945425 C 686.291973 230.396589 688.678887 231.907801 691.020765 233.474056 C 693.367646 235.040312 695.669492 236.661612 697.93631 238.342961 C 700.203127 240.024309 702.424909 241.755697 704.606658 243.547133 C 706.783404 245.33857 708.920117 247.180047 711.011794 249.071563 C 713.098467 250.968084 715.140104 252.909641 717.136705 254.906242 C 719.128302 256.897839 721.074863 258.939476 722.96638 261.031153 C 724.862901 263.117826 726.704377 265.254539 728.49081 267.436289 C 730.282246 269.613034 732.018638 271.83982 733.694983 274.101633 C 735.376331 276.368451 737.002635 278.675301 738.568891 281.017179 C 740.135147 283.36406 741.641354 285.74597 743.092518 288.162908 C 744.543682 290.58485 745.929793 293.036816 747.26086 295.523811 C 748.591928 298.010805 749.857943 300.527823 751.06391 303.079869 C 752.269877 305.626912 753.410792 308.208982 754.491658 310.811069 C 755.572525 313.418159 756.588339 316.05027 757.534098 318.702396 C 758.48486 321.359527 759.37057 324.036674 760.191228 326.733836 C 761.006882 329.436003 761.762488 332.153182 762.443034 334.885373 C 763.128584 337.622567 763.749081 340.374774 764.299523 343.141993 C 764.849964 345.904208 765.330349 348.686439 765.745682 351.473674 C 766.161015 354.265913 766.501288 357.063156 766.781513 359.870407 C 767.056734 362.677658 767.261898 365.484909 767.40201 368.302168 C 767.542123 371.119427 767.612179 373.94169 767.612179 376.758949 Z M 767.612179 376.758949 " stroke="#000000" stroke-width="0.5" stroke-opacity="1" stroke-miterlimit="10"/><g clip-path="url(#82623e6fe6)"><path fill="#ff9900" d="M 383.921875 25.027344 C 238.742188 25.027344 121.039062 142.722656 121.039062 287.902344 C 121.039062 433.089844 238.734375 550.785156 383.921875 550.785156 C 529.109375 550.785156 646.804688 433.089844 646.804688 287.902344 C 646.804688 142.722656 529.109375 25.027344 383.921875 25.027344 Z M 383.921875 536.257812 C 246.757812 536.257812 135.566406 425.066406 135.566406 287.902344 C 135.566406 150.738281 246.757812 39.546875 383.921875 39.546875 C 521.085938 39.546875 632.277344 150.738281 632.277344 287.902344 C 632.277344 425.066406 521.085938 536.257812 383.921875 536.257812 Z M 383.921875 536.257812 " fill-opacity="1" fill-rule="nonzero"/></g><path fill="#ff9900" d="M 380.621094 38.800781 L 387.109375 38.800781 L 387.109375 56.644531 L 380.621094 56.644531 Z M 380.621094 38.800781 " fill-opacity="1" fill-rule="nonzero"/><path fill="#ff9900" d="M 383.351562 38.800781 L 384.386719 38.800781 L 384.386719 56.644531 L 383.351562 56.644531 Z M 383.351562 38.800781 " fill-opacity="1" fill-rule="nonzero"/><path fill="#ff9900" d="M 360.214844 57.867188 L 359.191406 57.976562 L 357.324219 40.230469 L 358.34375 40.125 Z M 360.214844 57.867188 " fill-opacity="1" fill-rule="nonzero"/><path fill="#ff9900" d="M 336.269531 61.578125 L 335.261719 61.789062 L 331.582031 44.332031 L 332.589844 44.121094 Z M 336.269531 61.578125 " fill-opacity="1" fill-rule="nonzero"/><path fill="#ff9900" d="M 312.835938 67.824219 L 311.855469 68.140625 L 306.347656 51.171875 L 307.328125 50.851562 Z M 312.835938 67.824219 " fill-opacity="1" fill-rule="nonzero"/><path fill="#ff9900" d="M 290.273438 76.460938 L 289.332031 76.878906 L 282.089844 60.574219 L 283.03125 60.15625 Z M 290.273438 76.460938 " fill-opacity="1" fill-rule="nonzero"/><path fill="#ff9900" d="M 268.71875 87.398438 L 267.828125 87.914062 L 258.9375 72.445312 L 259.832031 71.929688 Z M 268.71875 87.398438 " fill-opacity="1" fill-rule="nonzero"/><path fill="#ff9900" d="M 248.355469 100.527344 L 247.523438 101.132812 L 237.03125 86.699219 L 237.863281 86.097656 Z M 248.355469 100.527344 " fill-opacity="1" fill-rule="nonzero"/><path fill="#ff9900" d="M 229.496094 115.742188 L 228.730469 116.429688 L 216.796875 103.167969 L 217.5625 102.480469 Z M 229.496094 115.742188 " fill-opacity="1" fill-rule="nonzero"/><path fill="#ff9900" d="M 212.402344 132.828125 L 211.714844 133.589844 L 198.457031 121.65625 L 199.144531 120.894531 Z M 212.402344 132.828125 " fill-opacity="1" fill-rule="nonzero"/><path fill="#ff9900" d="M 197.128906 151.582031 L 196.527344 152.417969 L 182.0625 141.96875 L 182.664062 141.136719 Z M 197.128906 151.582031 " fill-opacity="1" fill-rule="nonzero"/><path fill="#ff9900" d="M 183.847656 171.882812 L 183.332031 172.773438 L 167.890625 163.835938 L 168.40625 162.945312 Z M 183.847656 171.882812 " fill-opacity="1" fill-rule="nonzero"/><path fill="#ff9900" d="M 172.835938 193.390625 L 172.421875 194.332031 L 156.105469 187.113281 L 156.519531 186.171875 Z M 172.835938 193.390625 " fill-opacity="1" fill-rule="nonzero"/><path fill="#ff9900" d="M 164.128906 215.96875 L 163.8125 216.945312 L 146.835938 211.46875 L 147.148438 210.488281 Z M 164.128906 215.96875 " fill-opacity="1" fill-rule="nonzero"/><path fill="#ff9900" d="M 157.8125 239.410156 L 157.597656 240.414062 L 140.152344 236.683594 L 140.367188 235.675781 Z M 157.8125 239.410156 " fill-opacity="1" fill-rule="nonzero"/><path fill="#ff9900" d="M 153.992188 263.265625 L 153.886719 264.289062 L 136.136719 262.472656 L 136.242188 261.449219 Z M 153.992188 263.265625 " fill-opacity="1" fill-rule="nonzero"/><path fill="#ff9900" d="M 134.816406 287.445312 L 152.65625 287.445312 L 152.65625 288.472656 L 134.816406 288.472656 Z M 134.816406 287.445312 " fill-opacity="1" fill-rule="nonzero"/><path fill="#ff9900" d="M 153.882812 311.601562 L 153.992188 312.625 L 136.253906 314.53125 L 136.144531 313.507812 Z M 153.882812 311.601562 " fill-opacity="1" fill-rule="nonzero"/><path fill="#ff9900" d="M 157.613281 335.539062 L 157.832031 336.539062 L 140.382812 340.253906 L 140.15625 339.242188 Z M 157.613281 335.539062 " fill-opacity="1" fill-rule="nonzero"/><path fill="#ff9900" d="M 163.832031 358.929688 L 164.152344 359.910156 L 147.191406 365.421875 L 146.863281 364.445312 Z M 163.832031 358.929688 " fill-opacity="1" fill-rule="nonzero"/><path fill="#ff9900" d="M 172.453125 381.496094 L 172.875 382.433594 L 156.597656 389.746094 L 156.175781 388.808594 Z M 172.453125 381.496094 " fill-opacity="1" fill-rule="nonzero"/><path fill="#ff9900" d="M 183.410156 403.144531 L 183.925781 404.023438 L 168.476562 412.949219 L 167.957031 412.058594 Z M 183.410156 403.144531 " fill-opacity="1" fill-rule="nonzero"/><path fill="#ff9900" d="M 196.5 423.429688 L 197.105469 424.257812 L 182.707031 434.792969 L 182.097656 433.964844 Z M 196.5 423.429688 " fill-opacity="1" fill-rule="nonzero"/><path fill="#ff9900" d="M 211.78125 442.304688 L 212.46875 443.066406 L 199.226562 455.019531 L 198.539062 454.253906 Z M 211.78125 442.304688 " fill-opacity="1" fill-rule="nonzero"/><path fill="#ff9900" d="M 228.820312 459.457031 L 229.585938 460.144531 L 217.679688 473.425781 L 216.914062 472.738281 Z M 228.820312 459.457031 " fill-opacity="1" fill-rule="nonzero"/><path fill="#ff9900" d="M 247.632812 474.757812 L 248.464844 475.359375 L 238.003906 489.808594 L 237.167969 489.207031 Z M 247.632812 474.757812 " fill-opacity="1" fill-rule="nonzero"/><path fill="#ff9900" d="M 267.867188 487.957031 L 268.753906 488.46875 L 259.871094 503.933594 L 258.980469 503.421875 Z M 267.867188 487.957031 " fill-opacity="1" fill-rule="nonzero"/><path fill="#ff9900" d="M 289.441406 499 L 290.378906 499.414062 L 283.136719 515.71875 L 282.199219 515.300781 Z M 289.441406 499 " fill-opacity="1" fill-rule="nonzero"/><path fill="#ff9900" d="M 312.042969 507.734375 L 313.019531 508.050781 L 307.53125 525.023438 L 306.554688 524.707031 Z M 312.042969 507.734375 " fill-opacity="1" fill-rule="nonzero"/><path fill="#ff9900" d="M 335.410156 513.996094 L 336.414062 514.207031 L 332.710938 531.65625 L 331.707031 531.445312 Z M 335.410156 513.996094 " fill-opacity="1" fill-rule="nonzero"/><path fill="#ff9900" d="M 359.285156 517.835938 L 360.300781 517.945312 L 358.429688 535.683594 L 357.410156 535.578125 Z M 359.285156 517.835938 " fill-opacity="1" fill-rule="nonzero"/><path fill="#ff9900" d="M 383.460938 519.167969 L 384.488281 519.167969 L 384.488281 537.003906 L 383.460938 537.003906 Z M 383.460938 519.167969 " fill-opacity="1" fill-rule="nonzero"/><path fill="#ff9900" d="M 407.667969 517.902344 L 408.683594 517.796875 L 410.546875 535.539062 L 409.527344 535.644531 Z M 407.667969 517.902344 " fill-opacity="1" fill-rule="nonzero"/><path fill="#ff9900" d="M 431.558594 514.195312 L 432.5625 513.980469 L 436.261719 531.429688 L 435.257812 531.644531 Z M 431.558594 514.195312 " fill-opacity="1" fill-rule="nonzero"/><path fill="#ff9900" d="M 454.9375 507.960938 L 455.914062 507.640625 L 461.449219 524.605469 L 460.472656 524.921875 Z M 454.9375 507.960938 " fill-opacity="1" fill-rule="nonzero"/><path fill="#ff9900" d="M 477.542969 499.410156 L 478.480469 498.996094 L 485.75 515.285156 L 484.8125 515.703125 Z M 477.542969 499.410156 " fill-opacity="1" fill-rule="nonzero"/><path fill="#ff9900" d="M 499.140625 488.417969 L 500.03125 487.902344 L 508.988281 503.332031 L 508.101562 503.847656 Z M 499.140625 488.417969 " fill-opacity="1" fill-rule="nonzero"/><path fill="#ff9900" d="M 519.4375 475.320312 L 520.261719 474.714844 L 530.804688 489.109375 L 529.980469 489.714844 Z M 519.4375 475.320312 " fill-opacity="1" fill-rule="nonzero"/><path fill="#ff9900" d="M 538.300781 460.128906 L 539.058594 459.441406 L 551.03125 472.671875 L 550.269531 473.359375 Z M 538.300781 460.128906 " fill-opacity="1" fill-rule="nonzero"/><path fill="#ff9900" d="M 555.453125 442.984375 L 556.136719 442.222656 L 569.445312 454.109375 L 568.761719 454.875 Z M 555.453125 442.984375 " fill-opacity="1" fill-rule="nonzero"/><path fill="#ff9900" d="M 570.746094 424.195312 L 571.347656 423.363281 L 585.792969 433.839844 L 585.1875 434.671875 Z M 570.746094 424.195312 " fill-opacity="1" fill-rule="nonzero"/><path fill="#ff9900" d="M 583.96875 403.875 L 584.480469 402.988281 L 599.949219 411.875 L 599.4375 412.765625 Z M 583.96875 403.875 " fill-opacity="1" fill-rule="nonzero"/><path fill="#ff9900" d="M 595.015625 382.367188 L 595.433594 381.433594 L 611.738281 388.675781 L 611.324219 389.613281 Z M 595.015625 382.367188 " fill-opacity="1" fill-rule="nonzero"/><path fill="#ff9900" d="M 603.695312 359.835938 L 604.007812 358.859375 L 621.003906 364.28125 L 620.695312 365.257812 Z M 603.695312 359.835938 " fill-opacity="1" fill-rule="nonzero"/><path fill="#ff9900" d="M 610.039062 336.4375 L 610.246094 335.433594 L 627.710938 339.09375 L 627.503906 340.097656 Z M 610.039062 336.4375 " fill-opacity="1" fill-rule="nonzero"/><path fill="#ff9900" d="M 613.871094 312.542969 L 613.976562 311.519531 L 631.726562 313.351562 L 631.621094 314.371094 Z M 613.871094 312.542969 " fill-opacity="1" fill-rule="nonzero"/><path fill="#ff9900" d="M 615.183594 287.335938 L 633.023438 287.335938 L 633.023438 288.363281 L 615.183594 288.363281 Z M 615.183594 287.335938 " fill-opacity="1" fill-rule="nonzero"/><path fill="#ff9900" d="M 614.019531 264.246094 L 613.910156 263.226562 L 631.652344 261.3125 L 631.761719 262.328125 Z M 614.019531 264.246094 " fill-opacity="1" fill-rule="nonzero"/><path fill="#ff9900" d="M 610.265625 240.320312 L 610.050781 239.320312 L 627.5 235.570312 L 627.714844 236.570312 Z M 610.265625 240.320312 " fill-opacity="1" fill-rule="nonzero"/><path fill="#ff9900" d="M 604.003906 216.914062 L 603.683594 215.945312 L 620.632812 210.355469 L 620.953125 211.328125 Z M 604.003906 216.914062 " fill-opacity="1" fill-rule="nonzero"/><path fill="#ff9900" d="M 595.320312 194.21875 L 594.898438 193.289062 L 611.167969 185.945312 L 611.585938 186.878906 Z M 595.320312 194.21875 " fill-opacity="1" fill-rule="nonzero"/><path fill="#ff9900" d="M 584.5 172.710938 L 583.984375 171.828125 L 599.398438 162.835938 L 599.914062 163.71875 Z M 584.5 172.710938 " fill-opacity="1" fill-rule="nonzero"/><path fill="#ff9900" d="M 571.339844 152.394531 L 570.738281 151.570312 L 585.144531 141.035156 L 585.746094 141.859375 Z M 571.339844 152.394531 " fill-opacity="1" fill-rule="nonzero"/><path fill="#ff9900" d="M 556.058594 133.558594 L 555.371094 132.800781 L 568.558594 120.78125 L 569.25 121.539062 Z M 556.058594 133.558594 " fill-opacity="1" fill-rule="nonzero"/><path fill="#ff9900" d="M 539.089844 116.378906 L 538.324219 115.699219 L 550.171875 102.351562 L 550.9375 103.03125 Z M 539.089844 116.378906 " fill-opacity="1" fill-rule="nonzero"/><path fill="#ff9900" d="M 520.269531 101.070312 L 519.441406 100.472656 L 529.867188 85.988281 L 530.691406 86.582031 Z M 520.269531 101.070312 " fill-opacity="1" fill-rule="nonzero"/><path fill="#ff9900" d="M 499.925781 87.859375 L 499.042969 87.355469 L 507.882812 71.851562 L 508.765625 72.359375 Z M 499.925781 87.859375 " fill-opacity="1" fill-rule="nonzero"/><path fill="#ff9900" d="M 478.402344 76.820312 L 477.464844 76.414062 L 484.714844 60.105469 L 485.660156 60.527344 Z M 478.402344 76.820312 " fill-opacity="1" fill-rule="nonzero"/><path fill="#ff9900" d="M 455.929688 68.117188 L 454.957031 67.808594 L 460.378906 50.804688 L 461.351562 51.117188 Z M 455.929688 68.117188 " fill-opacity="1" fill-rule="nonzero"/><path fill="#ff9900" d="M 432.511719 61.78125 L 431.515625 61.574219 L 435.117188 44.09375 L 436.117188 44.300781 Z M 432.511719 61.78125 " fill-opacity="1" fill-rule="nonzero"/><path fill="#ff9900" d="M 408.613281 57.957031 L 407.597656 57.855469 L 409.34375 40.09375 L 410.359375 40.195312 Z M 408.613281 57.957031 " fill-opacity="1" fill-rule="nonzero"/><path fill="#ff9900" d="M 271.074219 86.035156 L 265.457031 89.28125 L 256.53125 73.832031 L 262.148438 70.585938 Z M 271.074219 86.035156 " fill-opacity="1" fill-rule="nonzero"/><path fill="#ff9900" d="M 185.257812 169.507812 L 182.015625 175.125 L 166.5625 166.210938 L 169.800781 160.59375 Z M 185.257812 169.507812 " fill-opacity="1" fill-rule="nonzero"/><path fill="#ff9900" d="M 134.816406 284.714844 L 152.660156 284.714844 L 152.660156 291.203125 L 134.816406 291.203125 Z M 134.816406 284.714844 " fill-opacity="1" fill-rule="nonzero"/><path fill="#ff9900" d="M 182.03125 400.753906 L 185.277344 406.371094 L 169.828125 415.296875 L 166.582031 409.679688 Z M 182.03125 400.753906 " fill-opacity="1" fill-rule="nonzero"/><path fill="#ff9900" d="M 265.484375 486.578125 L 271.105469 489.824219 L 262.1875 505.277344 L 256.566406 502.035156 Z M 265.484375 486.578125 " fill-opacity="1" fill-rule="nonzero"/><path fill="#ff9900" d="M 380.730469 519.167969 L 387.214844 519.167969 L 387.214844 537.007812 L 380.730469 537.007812 Z M 380.730469 519.167969 " fill-opacity="1" fill-rule="nonzero"/><path fill="#ff9900" d="M 496.796875 489.757812 L 502.417969 486.511719 L 511.335938 501.964844 L 505.710938 505.210938 Z M 496.796875 489.757812 " fill-opacity="1" fill-rule="nonzero"/><path fill="#ff9900" d="M 582.652344 406.289062 L 585.894531 400.671875 L 601.34375 409.597656 L 598.097656 415.214844 Z M 582.652344 406.289062 " fill-opacity="1" fill-rule="nonzero"/><path fill="#ff9900" d="M 615.183594 284.613281 L 633.019531 284.613281 L 633.019531 291.097656 L 615.183594 291.097656 Z M 615.183594 284.613281 " fill-opacity="1" fill-rule="nonzero"/><path fill="#ff9900" d="M 585.792969 174.976562 L 582.554688 169.359375 L 598.007812 160.449219 L 601.246094 166.066406 Z M 585.792969 174.976562 " fill-opacity="1" fill-rule="nonzero"/><path fill="#ff9900" d="M 502.304688 89.21875 L 496.6875 85.972656 L 505.613281 70.523438 L 511.230469 73.769531 Z M 502.304688 89.21875 " fill-opacity="1" fill-rule="nonzero"/><path fill="#ff9900" d="M 506.035156 214.933594 L 574.660156 175.308594 L 575.964844 177.558594 L 576.980469 176.972656 L 571.929688 168.222656 L 570.914062 168.808594 L 572.210938 171.0625 L 503.585938 210.679688 L 502.265625 208.402344 L 501.242188 208.984375 L 506.300781 217.738281 L 507.324219 217.152344 Z M 506.035156 214.933594 " fill-opacity="1" fill-rule="nonzero"/><path fill="#ff9900" d="M 577.003906 177.003906 L 575.980469 177.589844 L 577.28125 179.84375 L 508.660156 219.460938 L 507.339844 217.183594 L 506.316406 217.769531 L 511.375 226.527344 L 512.390625 225.941406 L 511.109375 223.707031 L 579.734375 184.09375 L 581.03125 186.347656 L 582.054688 185.753906 Z M 577.003906 177.003906 " fill-opacity="1" fill-rule="nonzero"/><path fill="#ff9900" d="M 605.410156 280.234375 L 605.410156 282.832031 L 606.578125 282.832031 L 606.578125 272.730469 L 605.410156 272.730469 L 605.410156 275.324219 L 526.160156 275.324219 L 526.167969 272.691406 L 524.988281 272.691406 L 524.988281 282.800781 L 526.167969 282.800781 L 526.160156 280.234375 Z M 605.410156 280.234375 " fill-opacity="1" fill-rule="nonzero"/><path fill="#ff9900" d="M 605.410156 290.375 L 605.410156 292.972656 L 606.578125 292.972656 L 606.578125 282.871094 L 605.410156 282.871094 L 605.410156 285.472656 L 526.160156 285.472656 L 526.160156 282.832031 L 524.988281 282.832031 L 524.988281 292.941406 L 526.160156 292.941406 L 526.160156 290.375 Z M 605.410156 290.375 " fill-opacity="1" fill-rule="nonzero"/><path fill="#ff9900" d="M 605.410156 303.121094 L 606.578125 303.121094 L 606.578125 293.011719 L 605.410156 293.011719 L 605.410156 295.613281 L 526.160156 295.613281 L 526.167969 292.972656 L 524.988281 292.972656 L 524.988281 303.082031 L 526.167969 303.082031 L 526.167969 300.523438 L 605.410156 300.523438 Z M 605.410156 303.121094 " fill-opacity="1" fill-rule="nonzero"/><path fill="#ff9900" d="M 582.128906 387.570312 L 580.828125 389.816406 L 581.851562 390.410156 L 586.898438 381.660156 L 585.878906 381.066406 L 584.582031 383.316406 L 515.957031 343.699219 L 517.277344 341.410156 L 516.253906 340.824219 L 511.203125 349.578125 L 512.21875 350.167969 L 513.507812 347.945312 Z M 582.128906 387.570312 " fill-opacity="1" fill-rule="nonzero"/><path fill="#ff9900" d="M 577.058594 396.351562 L 575.761719 398.597656 L 576.777344 399.191406 L 581.835938 390.433594 L 580.8125 389.847656 L 579.507812 392.105469 L 510.882812 352.480469 L 512.210938 350.199219 L 511.179688 349.617188 L 506.128906 358.367188 L 507.144531 358.953125 L 508.433594 356.734375 Z M 577.058594 396.351562 " fill-opacity="1" fill-rule="nonzero"/><path fill="#ff9900" d="M 571.992188 405.132812 L 570.6875 407.390625 L 571.703125 407.976562 L 576.761719 399.222656 L 575.738281 398.628906 L 574.433594 400.886719 L 505.816406 361.261719 L 507.136719 358.984375 L 506.113281 358.398438 L 501.0625 367.148438 L 502.078125 367.734375 L 503.367188 365.515625 Z M 571.992188 405.132812 " fill-opacity="1" fill-rule="nonzero"/><path fill="#ff9900" d="M 565.613281 416.171875 L 566.636719 416.757812 L 571.6875 408.007812 L 570.664062 407.421875 L 569.367188 409.667969 L 500.742188 370.050781 L 502.0625 367.765625 L 501.039062 367.179688 L 495.988281 375.929688 L 497.003906 376.523438 L 498.292969 374.296875 L 566.917969 413.914062 Z M 565.613281 416.171875 " fill-opacity="1" fill-rule="nonzero"/><path fill="#ff9900" d="M 498.558594 98.339844 L 499.152344 97.324219 L 490.398438 92.273438 L 489.804688 93.289062 L 492.054688 94.59375 L 452.4375 163.21875 L 450.152344 161.898438 L 449.566406 162.914062 L 458.324219 167.972656 L 458.910156 166.949219 L 456.691406 165.667969 L 496.308594 97.042969 Z M 498.558594 98.339844 " fill-opacity="1" fill-rule="nonzero"/><path fill="#ff9900" d="M 171.710938 361.675781 L 175.1875 371.167969 L 174.078125 371.570312 L 170.605469 362.082031 Z M 171.710938 361.675781 " fill-opacity="1" fill-rule="nonzero"/><path fill="#ff9900" d="M 241.503906 460.304688 L 248.992188 467.144531 L 248.199219 468.015625 L 240.707031 461.175781 Z M 241.503906 460.304688 " fill-opacity="1" fill-rule="nonzero"/><path fill="#ff9900" d="M 351.792969 508.738281 L 361.925781 510.066406 L 361.769531 511.226562 L 351.636719 509.894531 Z M 351.792969 508.738281 " fill-opacity="1" fill-rule="nonzero"/><path fill="#ff9900" d="M 470.890625 492.617188 L 480.359375 488.808594 L 480.796875 489.894531 L 471.3125 493.710938 Z M 470.890625 492.617188 " fill-opacity="1" fill-rule="nonzero"/><path fill="#ff9900" d="M 290.832031 85.953125 L 290.238281 84.9375 L 281.488281 89.988281 L 282.074219 91.011719 L 284.332031 89.707031 L 323.957031 158.339844 L 321.667969 159.652344 L 322.253906 160.671875 L 331.011719 155.613281 L 330.425781 154.601562 L 328.203125 155.878906 L 288.585938 87.253906 Z M 290.832031 85.953125 " fill-opacity="1" fill-rule="nonzero"/><path fill="#ff9900" d="M 256.726562 104.289062 L 315.210938 164.847656 L 319.738281 162.242188 L 261.089844 101.765625 Z M 256.726562 104.289062 " fill-opacity="1" fill-rule="nonzero"/><path fill="#ff9900" d="M 300.902344 173.109375 L 276.941406 92.726562 L 277.71875 92.273438 C 277.71875 92.273438 282.417969 107.835938 285.113281 116.902344 L 301.609375 172.699219 L 300.902344 173.113281 Z M 300.902344 173.109375 " fill-opacity="1" fill-rule="nonzero"/><path fill="#ff9900" d="M 264.226562 101.308594 L 255.46875 106.363281 L 254.882812 105.34375 L 263.636719 100.289062 Z M 264.226562 101.308594 " fill-opacity="1" fill-rule="nonzero"/><path fill="#ff9900" d="M 305.78125 170.308594 L 297.027344 175.363281 L 296.4375 174.34375 L 305.195312 169.289062 Z M 305.78125 170.308594 " fill-opacity="1" fill-rule="nonzero"/><path fill="#ff9900" d="M 321.554688 161.199219 L 312.800781 166.25 L 312.210938 165.230469 L 320.96875 160.179688 Z M 321.554688 161.199219 " fill-opacity="1" fill-rule="nonzero"/><path fill="#ff9900" d="M 282.09375 91.023438 L 273.339844 96.078125 L 272.753906 95.058594 L 281.503906 90.003906 Z M 282.09375 91.023438 " fill-opacity="1" fill-rule="nonzero"/><path fill="#ff9900" d="M 399.269531 66.421875 L 399.269531 65.242188 L 389.160156 65.246094 L 389.160156 66.421875 L 391.761719 66.421875 L 391.777344 145.660156 L 389.136719 145.660156 L 389.136719 146.839844 L 399.246094 146.832031 L 399.246094 145.660156 L 396.679688 145.660156 L 396.664062 66.421875 Z M 399.269531 66.421875 " fill-opacity="1" fill-rule="nonzero"/><path fill="#ff9900" d="M 409.394531 66.421875 L 409.394531 65.242188 L 399.292969 65.246094 L 399.285156 66.421875 L 401.894531 66.421875 L 401.910156 145.660156 L 399.269531 145.660156 L 399.269531 146.839844 L 409.371094 146.832031 L 409.371094 145.660156 L 406.808594 145.660156 L 406.796875 66.421875 Z M 409.394531 66.421875 " fill-opacity="1" fill-rule="nonzero"/><path fill="#ff9900" d="M 360.566406 65.253906 L 380.957031 146.933594 L 386.179688 146.933594 L 365.601562 65.25 Z M 360.566406 65.253906 " fill-opacity="1" fill-rule="nonzero"/><path fill="#ff9900" d="M 364.421875 146.941406 L 383.847656 65.34375 L 384.75 65.339844 C 384.75 65.339844 381.042969 81.164062 378.84375 90.367188 L 365.238281 146.941406 L 364.421875 146.9375 Z M 364.421875 146.941406 " fill-opacity="1" fill-rule="nonzero"/><path fill="#ff9900" d="M 358.441406 65.25 L 368.550781 65.25 L 368.550781 66.429688 L 358.441406 66.429688 Z M 358.441406 65.25 " fill-opacity="1" fill-rule="nonzero"/><path fill="#ff9900" d="M 359.925781 145.761719 L 370.035156 145.761719 L 370.035156 146.9375 L 359.925781 146.9375 Z M 359.925781 145.761719 " fill-opacity="1" fill-rule="nonzero"/><path fill="#ff9900" d="M 378.167969 145.761719 L 388.273438 145.761719 L 388.273438 146.9375 L 378.167969 146.9375 Z M 378.167969 145.761719 " fill-opacity="1" fill-rule="nonzero"/><path fill="#ff9900" d="M 379.019531 65.246094 L 389.128906 65.246094 L 389.128906 66.421875 L 379.019531 66.421875 Z M 379.019531 65.246094 " fill-opacity="1" fill-rule="nonzero"/><path fill="#ff9900" d="M 184.496094 188.089844 L 265.425781 211.296875 L 268.03125 206.777344 L 187.011719 183.734375 Z M 184.496094 188.089844 " fill-opacity="1" fill-rule="nonzero"/><path fill="#ff9900" d="M 257.164062 225.605469 L 196.222656 167.972656 L 196.675781 167.191406 C 196.675781 167.191406 208.523438 178.316406 215.394531 184.824219 L 257.574219 224.894531 Z M 257.164062 225.605469 " fill-opacity="1" fill-rule="nonzero"/><path fill="#ff9900" d="M 189.496094 181.777344 L 184.445312 190.53125 L 183.429688 189.945312 L 188.480469 181.191406 Z M 189.496094 181.777344 " fill-opacity="1" fill-rule="nonzero"/><path fill="#ff9900" d="M 259.964844 220.769531 L 254.914062 229.527344 L 253.890625 228.9375 L 258.945312 220.183594 Z M 259.964844 220.769531 " fill-opacity="1" fill-rule="nonzero"/><path fill="#ff9900" d="M 269.085938 204.9375 L 264.027344 213.691406 L 263.011719 213.105469 L 268.070312 204.351562 Z M 269.085938 204.9375 " fill-opacity="1" fill-rule="nonzero"/><path fill="#ff9900" d="M 199.78125 163.949219 L 194.730469 172.703125 L 193.710938 172.117188 L 198.765625 163.363281 Z M 199.78125 163.949219 " fill-opacity="1" fill-rule="nonzero"/><path fill="#ff9900" d="M 162.335938 298.171875 L 161.164062 298.171875 L 161.164062 308.28125 L 162.335938 308.28125 L 162.335938 305.683594 L 241.574219 305.683594 L 241.574219 308.320312 L 242.753906 308.320312 L 242.753906 298.210938 L 241.574219 298.210938 L 241.574219 300.773438 L 162.335938 300.773438 Z M 162.335938 298.171875 " fill-opacity="1" fill-rule="nonzero"/><path fill="#ff9900" d="M 161.164062 296.050781 L 242.847656 275.683594 L 242.847656 270.460938 L 161.164062 291.015625 Z M 161.164062 296.050781 " fill-opacity="1" fill-rule="nonzero"/><path fill="#ff9900" d="M 242.847656 292.207031 L 161.257812 272.769531 L 161.257812 271.867188 C 161.257812 271.867188 177.082031 275.578125 186.285156 277.777344 L 242.851562 291.390625 L 242.851562 292.207031 Z M 242.847656 292.207031 " fill-opacity="1" fill-rule="nonzero"/><path fill="#ff9900" d="M 161.164062 288.0625 L 162.339844 288.0625 L 162.339844 298.171875 L 161.164062 298.171875 Z M 161.164062 288.0625 " fill-opacity="1" fill-rule="nonzero"/><path fill="#ff9900" d="M 241.675781 286.601562 L 242.851562 286.601562 L 242.851562 296.710938 L 241.675781 296.710938 Z M 241.675781 286.601562 " fill-opacity="1" fill-rule="nonzero"/><path fill="#ff9900" d="M 241.675781 268.359375 L 242.851562 268.359375 L 242.851562 278.46875 L 241.675781 278.46875 Z M 241.675781 268.359375 " fill-opacity="1" fill-rule="nonzero"/><path fill="#ff9900" d="M 161.164062 267.492188 L 162.339844 267.492188 L 162.339844 277.601562 L 161.164062 277.601562 Z M 161.164062 267.492188 " fill-opacity="1" fill-rule="nonzero"/><path fill="#ff9900" d="M 195.855469 405.242188 L 194.839844 405.828125 L 199.890625 414.585938 L 200.90625 413.992188 L 199.609375 411.746094 L 268.226562 372.128906 L 269.554688 374.40625 L 270.574219 373.816406 L 265.519531 365.0625 L 264.496094 365.648438 L 265.78125 367.875 L 197.160156 407.5 Z M 195.855469 405.242188 " fill-opacity="1" fill-rule="nonzero"/><path fill="#ff9900" d="M 200.929688 414.023438 L 199.914062 414.617188 L 204.957031 423.367188 L 205.980469 422.777344 L 204.675781 420.527344 L 273.308594 380.910156 L 274.621094 383.191406 L 275.640625 382.605469 L 270.582031 373.847656 L 269.570312 374.4375 L 270.847656 376.664062 L 202.226562 416.28125 Z M 200.929688 414.023438 " fill-opacity="1" fill-rule="nonzero"/><path fill="#ff9900" d="M 206.003906 422.804688 L 204.980469 423.398438 L 210.03125 432.152344 L 211.046875 431.558594 L 209.75 429.308594 L 278.375 389.691406 L 279.695312 391.972656 L 280.707031 391.386719 L 275.65625 382.628906 L 274.644531 383.222656 L 275.921875 385.4375 L 207.296875 425.0625 Z M 206.003906 422.804688 " fill-opacity="1" fill-rule="nonzero"/><path fill="#ff9900" d="M 193.628906 403.742188 L 254.191406 345.257812 L 248.726562 343.636719 L 191.117188 399.386719 Z M 193.628906 403.742188 " fill-opacity="1" fill-rule="nonzero"/><path fill="#ff9900" d="M 193.714844 403.695312 L 192.738281 402 L 249.765625 344.183594 L 172.625 367.167969 L 172.175781 366.386719 C 172.175781 366.386719 187.734375 361.691406 196.804688 358.992188 L 252.597656 342.5 L 254.1875 345.257812 L 210.105469 387.789062 C 203.328125 394.328125 193.714844 403.695312 193.714844 403.695312 Z M 193.714844 403.695312 " fill-opacity="1" fill-rule="nonzero"/><path fill="#ff9900" d="M 190.792969 396.460938 L 195.84375 405.214844 L 194.828125 405.800781 L 189.777344 397.050781 Z M 190.792969 396.460938 " fill-opacity="1" fill-rule="nonzero"/><path fill="#ff9900" d="M 401.644531 509.394531 L 401.644531 510.570312 L 411.75 510.570312 L 411.75 509.394531 L 409.152344 509.394531 L 409.152344 430.152344 L 411.789062 430.152344 L 411.789062 428.972656 L 401.683594 428.972656 L 401.683594 430.152344 L 404.25 430.152344 L 404.25 509.394531 Z M 401.644531 509.394531 " fill-opacity="1" fill-rule="nonzero"/><path fill="#ff9900" d="M 399.238281 510.570312 L 378.863281 428.878906 L 374.726562 432.796875 L 394.195312 510.570312 Z M 399.238281 510.570312 " fill-opacity="1" fill-rule="nonzero"/><path fill="#ff9900" d="M 399.238281 510.46875 L 397.273438 510.472656 L 375.71875 432.175781 L 357.050781 510.472656 L 356.148438 510.46875 C 356.148438 510.46875 359.863281 494.648438 362.058594 485.441406 L 375.671875 428.878906 L 378.855469 428.878906 L 393.648438 488.320312 C 395.929688 497.460938 399.238281 510.46875 399.238281 510.46875 Z M 399.238281 510.46875 " fill-opacity="1" fill-rule="nonzero"/><path fill="#ff9900" d="M 391.542969 509.394531 L 401.648438 509.394531 L 401.648438 510.570312 L 391.542969 510.570312 Z M 391.542969 509.394531 " fill-opacity="1" fill-rule="nonzero"/><path fill="#ff9900" d="M 284.066406 486.066406 L 283.480469 487.082031 L 292.230469 492.132812 L 292.816406 491.117188 L 290.566406 489.816406 L 330.191406 421.191406 L 332.472656 422.511719 L 333.058594 421.488281 L 324.304688 416.4375 L 323.722656 417.460938 L 325.9375 418.738281 L 286.3125 487.363281 Z M 284.066406 486.066406 " fill-opacity="1" fill-rule="nonzero"/><path fill="#ff9900" d="M 292.847656 491.132812 L 292.261719 492.15625 L 301.011719 497.207031 L 301.597656 496.183594 L 299.351562 494.890625 L 338.972656 426.265625 L 341.253906 427.578125 L 341.847656 426.5625 L 333.089844 421.511719 L 332.496094 422.527344 L 334.71875 423.804688 L 295.101562 492.4375 Z M 292.847656 491.132812 " fill-opacity="1" fill-rule="nonzero"/><path fill="#ff9900" d="M 281.394531 485.875 L 304.59375 404.945312 L 299.054688 406.273438 L 277.03125 483.359375 Z M 281.394531 485.875 " fill-opacity="1" fill-rule="nonzero"/><path fill="#ff9900" d="M 281.441406 485.796875 L 279.742188 484.8125 L 300.222656 406.238281 L 244.910156 464.707031 L 244.128906 464.253906 C 244.128906 464.253906 255.253906 452.40625 261.757812 445.535156 L 301.832031 403.355469 L 304.589844 404.945312 L 287.675781 463.824219 C 285.078125 472.875 281.441406 485.796875 281.441406 485.796875 Z M 281.441406 485.796875 " fill-opacity="1" fill-rule="nonzero"/><path fill="#ff9900" d="M 275.320312 481.039062 L 284.070312 486.09375 L 283.484375 487.113281 L 274.734375 482.058594 Z M 275.320312 481.039062 " fill-opacity="1" fill-rule="nonzero"/><path fill="#ff9900" d="M 512.859375 470.574219 L 454.375 410.011719 L 452.757812 415.46875 L 508.503906 473.085938 Z M 512.859375 470.574219 " fill-opacity="1" fill-rule="nonzero"/><path fill="#ff9900" d="M 512.820312 470.488281 L 511.117188 471.464844 L 453.304688 414.4375 L 476.285156 491.574219 L 475.507812 492.027344 C 475.507812 492.027344 470.808594 476.464844 468.113281 467.402344 L 451.621094 411.605469 L 454.375 410.015625 L 496.90625 454.101562 C 503.445312 460.875 512.820312 470.488281 512.820312 470.488281 Z M 512.820312 470.488281 " fill-opacity="1" fill-rule="nonzero"/><path fill="#ff9900" d="M 505.558594 473.382812 L 514.308594 468.332031 L 514.894531 469.347656 L 506.144531 474.402344 Z M 505.558594 473.382812 " fill-opacity="1" fill-rule="nonzero"/><path stroke-linecap="butt" transform="matrix(0.780624, 0, 0, 0.780624, -80.766933, -6.200662)" fill="none" stroke-linejoin="miter" d="M 611.271818 376.758949 C 611.271818 377.809791 611.166734 378.850626 610.96157 379.881452 C 610.756405 380.907275 610.456164 381.908077 610.055843 382.878856 C 609.650518 383.849634 609.160125 384.770372 608.574656 385.646075 C 607.99419 386.516773 607.328657 387.322419 606.588063 388.068017 C 605.842465 388.808611 605.036819 389.474144 604.166121 390.05461 C 603.290418 390.640079 602.36968 391.130472 601.398902 391.535797 C 600.428123 391.936118 599.427321 392.236359 598.401498 392.441524 C 597.370672 392.646688 596.329837 392.751772 595.278995 392.751772 C 594.228152 392.751772 593.192321 392.646688 592.161495 392.441524 C 591.130668 392.236359 590.129866 391.936118 589.159087 391.535797 C 588.188309 391.130472 587.267571 390.640079 586.396873 390.05461 C 585.52117 389.474144 584.715524 388.808611 583.97493 388.068017 C 583.229333 387.322419 582.568803 386.516773 581.983334 385.646075 C 581.402868 384.770372 580.907471 383.849634 580.50715 382.878856 C 580.106829 381.908077 579.801584 380.907275 579.59642 379.881452 C 579.391255 378.850626 579.291175 377.809791 579.291175 376.758949 C 579.291175 375.708106 579.391255 374.672275 579.59642 373.641449 C 579.801584 372.610622 580.106829 371.60982 580.50715 370.639041 C 580.907471 369.668263 581.402868 368.747525 581.983334 367.876827 C 582.568803 367.001124 583.229333 366.195478 583.97493 365.454884 C 584.715524 364.709287 585.52117 364.048757 586.396873 363.463288 C 587.267571 362.882822 588.188309 362.387425 589.159087 361.987104 C 590.129866 361.586783 591.130668 361.281538 592.161495 361.076374 C 593.192321 360.871209 594.228152 360.771129 595.278995 360.771129 C 596.329837 360.771129 597.370672 360.871209 598.401498 361.076374 C 599.427321 361.281538 600.428123 361.586783 601.398902 361.987104 C 602.36968 362.387425 603.290418 362.882822 604.166121 363.463288 C 605.036819 364.048757 605.842465 364.709287 606.588063 365.454884 C 607.328657 366.195478 607.99419 367.001124 608.574656 367.876827 C 609.160125 368.747525 609.650518 369.668263 610.055843 370.639041 C 610.456164 371.60982 610.756405 372.610622 610.96157 373.641449 C 611.166734 374.672275 611.271818 375.708106 611.271818 376.758949 Z M 611.271818 376.758949 " stroke="#000000" stroke-width="0.348" stroke-opacity="1" stroke-miterlimit="10"/><path fill="#ff9900" d="M 387.472656 287.90625 C 387.472656 288.378906 387.382812 288.832031 387.199219 289.265625 C 387.019531 289.699219 386.765625 290.082031 386.433594 290.417969 C 386.097656 290.75 385.714844 291.003906 385.28125 291.1875 C 384.847656 291.367188 384.394531 291.457031 383.921875 291.457031 C 383.453125 291.457031 383 291.367188 382.566406 291.1875 C 382.128906 291.003906 381.746094 290.75 381.414062 290.417969 C 381.082031 290.082031 380.824219 289.699219 380.644531 289.265625 C 380.464844 288.832031 380.375 288.378906 380.375 287.90625 C 380.375 287.4375 380.464844 286.984375 380.644531 286.550781 C 380.824219 286.113281 381.082031 285.730469 381.414062 285.398438 C 381.746094 285.066406 382.128906 284.808594 382.566406 284.628906 C 383 284.449219 383.453125 284.359375 383.921875 284.359375 C 384.394531 284.359375 384.847656 284.449219 385.28125 284.628906 C 385.714844 284.808594 386.097656 285.066406 386.433594 285.398438 C 386.765625 285.730469 387.019531 286.113281 387.199219 286.550781 C 387.382812 286.984375 387.472656 287.4375 387.472656 287.90625 Z M 387.472656 287.90625 " fill-opacity="1" fill-rule="nonzero"/><path stroke-linecap="butt" transform="matrix(0.780624, 0, 0, 0.780624, -80.766933, -6.200662)" fill-opacity="1" fill="#ff9900" fill-rule="nonzero" stroke-linejoin="miter" d="M 663.32856 117.811313 L 589.919697 407.818854 L 587.297595 407.168332 L 660.721469 117.160791 Z M 663.32856 117.811313 " stroke="#000000" stroke-width="0.5" stroke-opacity="1" stroke-miterlimit="10"/><path stroke-linecap="butt" transform="matrix(0.188281, -0.757577, 0.757577, 0.188281, 42.231809, 791.273243)" fill-opacity="1" fill="#ff9900" fill-rule="nonzero" stroke-linejoin="miter" d="M 725.579729 409.290365 L 738.526974 409.290067 L 738.529747 410.795 L 725.577646 410.796505 Z M 725.579729 409.290365 " stroke="#000000" stroke-width="0.5" stroke-opacity="1" stroke-miterlimit="10"/><path stroke-linecap="butt" transform="matrix(0.780624, 0, 0, 0.780624, -80.766933, -6.200662)" fill-opacity="1" fill="#ff9900" fill-rule="nonzero" stroke-linejoin="miter" d="M 731.007828 411.161534 L 564.56937 370.548969 L 565.219892 367.931871 L 731.65835 408.539432 Z M 731.007828 411.161534 " stroke="#000000" stroke-width="0.5" stroke-opacity="1" stroke-miterlimit="10"/><path fill="#ff9900" d="M 440.867188 104.164062 L 441.03125 104.164062 C 441.03125 104.164062 435.042969 90.855469 439.660156 71.753906 C 439.636719 71.695312 438.890625 74.367188 437.867188 78.15625 C 438.859375 74.445312 439.585938 71.703125 439.546875 71.726562 C 433.871094 90.53125 421.964844 98.984375 421.964844 98.984375 L 422.027344 99.023438 C 419.605469 100.675781 417.703125 103.132812 416.875 106.1875 C 415.019531 113.03125 419.058594 120.09375 425.902344 121.957031 C 432.75 123.808594 439.808594 119.765625 441.667969 112.925781 C 442.492188 109.875 442.105469 106.8125 440.867188 104.164062 Z M 432.730469 97.195312 C 432.722656 97.191406 433.074219 95.878906 433.617188 93.875 C 433.304688 95.027344 433.011719 96.152344 432.730469 97.195312 Z M 432.730469 97.195312 " fill-opacity="1" fill-rule="nonzero"/><path fill="#ff9900" d="M 485.582031 322.332031 L 485.582031 322.496094 C 485.582031 322.496094 498.894531 316.507812 517.996094 321.125 C 518.050781 321.105469 515.382812 320.359375 511.59375 319.335938 C 515.300781 320.328125 518.046875 321.054688 518.019531 321.015625 C 499.214844 315.339844 490.761719 303.433594 490.761719 303.433594 L 490.722656 303.492188 C 489.070312 301.070312 486.617188 299.171875 483.558594 298.34375 C 476.714844 296.484375 469.652344 300.523438 467.789062 307.367188 C 465.933594 314.210938 469.984375 321.269531 476.820312 323.128906 C 479.871094 323.957031 482.933594 323.566406 485.582031 322.332031 Z M 492.550781 314.195312 C 492.558594 314.1875 493.871094 314.542969 495.871094 315.085938 C 494.71875 314.769531 493.59375 314.476562 492.550781 314.195312 Z M 492.550781 314.195312 " fill-opacity="1" fill-rule="nonzero"/></svg>