<svg xmlns="http://www.w3.org/2000/svg" xmlns:xlink="http://www.w3.org/1999/xlink" width="1024" zoomAndPan="magnify" viewBox="0 0 768 576" height="768" preserveAspectRatio="xMidYMid meet" version="1.0"><defs><g/><clipPath id="95e9eebb41"><path d="M 0 0 L 768 0 L 768 188.25 L 0 188.25 Z M 0 0 " clip-rule="nonzero"/></clipPath><clipPath id="0fe42a6f02"><path d="M 0 164.933594 L 768 164.933594 L 768 228.683594 L 0 228.683594 Z M 0 164.933594 " clip-rule="nonzero"/></clipPath><clipPath id="f83773a24c"><path d="M 246.230469 0 L 249.980469 0 L 249.980469 422.101562 L 246.230469 422.101562 Z M 246.230469 0 " clip-rule="nonzero"/></clipPath><clipPath id="81a777deae"><path d="M 0 393.75 L 768 393.75 L 768 426.75 L 0 426.75 Z M 0 393.75 " clip-rule="nonzero"/></clipPath><clipPath id="aac3e229ac"><path d="M 1 304.144531 L 768 304.144531 L 768 307.894531 L 1 307.894531 Z M 1 304.144531 " clip-rule="nonzero"/></clipPath><clipPath id="0669f43f18"><path d="M 524.894531 0 L 528.644531 0 L 528.644531 426.535156 L 524.894531 426.535156 Z M 524.894531 0 " clip-rule="nonzero"/></clipPath></defs><rect x="-76.8" width="921.6" fill="#ffffff" y="-57.6" height="691.2" fill-opacity="1"/><rect x="-76.8" width="921.6" fill="#ffffff" y="-57.6" height="691.2" fill-opacity="1"/><g clip-path="url(#95e9eebb41)"><path fill="#446ca9" d="M -8.953125 0 L 783.777344 0 L 783.777344 188.25 L -8.953125 188.25 L -8.953125 0 " fill-opacity="1" fill-rule="nonzero"/></g><g clip-path="url(#0fe42a6f02)"><path fill="#000000" d="M -12.621094 164.933594 L 779.996094 164.933594 L 779.996094 228.683594 L -12.621094 228.683594 L -12.621094 164.933594 " fill-opacity="1" fill-rule="nonzero"/></g><g fill="#ffffff" fill-opacity="1"><g transform="translate(52.905543, 206.095617)"><g><path d="M 11.101562 0.421875 C 16.558594 0.421875 19.890625 -3 19.890625 -8.640625 L 19.890625 -21 L 15.121094 -21 L 15.121094 -8.96875 C 15.121094 -5.761719 13.769531 -4.109375 11.101562 -4.109375 C 8.429688 -4.109375 7.078125 -5.761719 7.078125 -8.96875 L 7.078125 -21 L 2.308594 -21 L 2.308594 -8.640625 C 2.308594 -3 5.640625 0.421875 11.101562 0.421875 Z M 11.101562 0.421875 "/></g></g></g><g fill="#ffffff" fill-opacity="1"><g transform="translate(76.005524, 206.095617)"><g><path d="M 2.519531 0 L 7.261719 0 L 7.261719 -12.871094 L 16.53125 0 L 20.578125 0 L 20.578125 -21 L 15.839844 -21 L 15.839844 -8.21875 L 6.570312 -21 L 2.519531 -21 Z M 2.519531 0 "/></g></g></g><g fill="#ffffff" fill-opacity="1"><g transform="translate(100.005503, 206.095617)"><g><path d="M 2.519531 0 L 7.289062 0 L 7.289062 -21 L 2.519531 -21 Z M 2.519531 0 "/></g></g></g><g fill="#ffffff" fill-opacity="1"><g transform="translate(110.71549, 206.095617)"><g><path d="M 2.519531 0 L 10.828125 0 C 17.460938 0 21.898438 -4.230469 21.898438 -10.5 C 21.898438 -16.738281 17.460938 -21 10.828125 -21 L 2.519531 -21 Z M 7.289062 -4.378906 L 7.289062 -16.621094 L 10.679688 -16.621094 C 14.460938 -16.621094 17.011719 -14.191406 17.011719 -10.5 C 17.011719 -6.808594 14.460938 -4.378906 10.738281 -4.378906 Z M 7.289062 -4.378906 "/></g></g></g><g fill="#ffffff" fill-opacity="1"><g transform="translate(134.775473, 206.095617)"><g><path d="M 0.269531 0 L 5.371094 0 L 6.78125 -3.628906 L 15.121094 -3.628906 L 16.53125 0 L 21.628906 0 L 13.289062 -21 L 8.609375 -21 Z M 8.011719 -7.378906 L 10.949219 -15.058594 L 13.921875 -7.378906 Z M 8.011719 -7.378906 "/></g></g></g><g fill="#ffffff" fill-opacity="1"><g transform="translate(157.575444, 206.095617)"><g><path d="M 2.519531 0 L 10.828125 0 C 17.460938 0 21.898438 -4.230469 21.898438 -10.5 C 21.898438 -16.738281 17.460938 -21 10.828125 -21 L 2.519531 -21 Z M 7.289062 -4.378906 L 7.289062 -16.621094 L 10.679688 -16.621094 C 14.460938 -16.621094 17.011719 -14.191406 17.011719 -10.5 C 17.011719 -6.808594 14.460938 -4.378906 10.738281 -4.378906 Z M 7.289062 -4.378906 "/></g></g></g><g fill="#ffffff" fill-opacity="1"><g transform="translate(181.635422, 206.095617)"><g><path d="M 2.519531 0 L 16.648438 0 L 16.648438 -4.050781 L 7.261719 -4.050781 L 7.261719 -8.640625 L 15.511719 -8.640625 L 15.511719 -12.628906 L 7.261719 -12.628906 L 7.261719 -16.980469 L 16.320312 -16.980469 L 16.320312 -21 L 2.519531 -21 Z M 2.519531 0 "/></g></g></g><g fill="#ffffff" fill-opacity="1"><g transform="translate(319.672957, 206.095617)"><g><path d="M 9.839844 0.421875 C 14.820312 0.421875 17.878906 -1.949219 17.878906 -5.910156 C 17.878906 -9.238281 15.691406 -11.21875 10.46875 -12.449219 C 7.261719 -13.199219 6.148438 -14.011719 6.148438 -15.300781 C 6.148438 -16.679688 7.378906 -17.519531 9.390625 -17.519531 C 11.578125 -17.519531 12.898438 -16.378906 12.898438 -14.488281 L 17.488281 -14.488281 C 17.488281 -18.71875 14.308594 -21.421875 9.328125 -21.421875 C 4.5 -21.421875 1.5 -19.050781 1.5 -15.210938 C 1.5 -11.789062 3.808594 -9.75 8.730469 -8.699219 C 11.699219 -8.070312 13.050781 -7.199219 13.050781 -5.730469 C 13.050781 -4.320312 11.789062 -3.511719 9.808594 -3.511719 C 7.5 -3.511719 6 -4.679688 6 -6.691406 L 1.320312 -6.691406 C 1.320312 -2.339844 4.558594 0.421875 9.839844 0.421875 Z M 9.839844 0.421875 "/></g></g></g><g fill="#ffffff" fill-opacity="1"><g transform="translate(339.802933, 206.095617)"><g><path d="M 2.519531 0 L 7.289062 0 L 7.289062 -21 L 2.519531 -21 Z M 3.179688 -23.011719 L 6.601562 -23.011719 L 9 -27.390625 L 4.949219 -27.390625 Z M 3.179688 -23.011719 "/></g></g></g><g fill="#ffffff" fill-opacity="1"><g transform="translate(350.512923, 206.095617)"><g><path d="M 2.519531 0 L 7.261719 0 L 7.261719 -12.660156 L 12.359375 -5.191406 L 15.660156 -5.191406 L 20.761719 -12.628906 L 20.761719 0 L 25.5 0 L 25.5 -21 L 21.480469 -21 L 14.039062 -10.109375 L 6.570312 -21 L 2.519531 -21 Z M 2.519531 0 "/></g></g></g><g fill="#ffffff" fill-opacity="1"><g transform="translate(379.432903, 206.095617)"><g><path d="M 2.519531 0 L 12.390625 0 C 16.648438 0 19.53125 -2.339844 19.53125 -5.878906 C 19.53125 -8.128906 18.359375 -9.929688 16.378906 -10.800781 C 17.96875 -11.730469 18.898438 -13.378906 18.898438 -15.359375 C 18.898438 -18.808594 16.171875 -21 11.910156 -21 L 2.519531 -21 Z M 7.230469 -3.78125 L 7.230469 -8.820312 L 11.671875 -8.820312 C 13.558594 -8.820312 14.640625 -7.890625 14.640625 -6.300781 C 14.640625 -4.710938 13.558594 -3.78125 11.671875 -3.78125 Z M 7.230469 -12.449219 L 7.230469 -17.21875 L 11.191406 -17.21875 C 13.019531 -17.21875 14.039062 -16.378906 14.039062 -14.851562 C 14.039062 -13.320312 13.019531 -12.449219 11.191406 -12.449219 Z M 7.230469 -12.449219 "/></g></g></g><g fill="#ffffff" fill-opacity="1"><g transform="translate(401.002875, 206.095617)"><g><path d="M 12.480469 0.421875 C 19.050781 0.421875 23.699219 -4.078125 23.699219 -10.5 C 23.699219 -16.921875 19.050781 -21.421875 12.480469 -21.421875 C 5.910156 -21.421875 1.289062 -16.921875 1.289062 -10.5 C 1.289062 -4.078125 5.910156 0.421875 12.480469 0.421875 Z M 6.148438 -10.5 C 6.148438 -14.28125 8.761719 -16.890625 12.480469 -16.890625 C 16.230469 -16.890625 18.808594 -14.28125 18.808594 -10.5 C 18.808594 -6.71875 16.230469 -4.109375 12.480469 -4.109375 C 8.761719 -4.109375 6.148438 -6.71875 6.148438 -10.5 Z M 6.148438 -10.5 "/></g></g></g><g fill="#ffffff" fill-opacity="1"><g transform="translate(426.892843, 206.095617)"><g><path d="M 2.519531 0 L 16.46875 0 L 16.46875 -4.46875 L 7.289062 -4.46875 L 7.289062 -21 L 2.519531 -21 Z M 2.519531 0 "/></g></g></g><g fill="#ffffff" fill-opacity="1"><g transform="translate(445.072823, 206.095617)"><g><path d="M 12.480469 0.421875 C 19.050781 0.421875 23.699219 -4.078125 23.699219 -10.5 C 23.699219 -16.921875 19.050781 -21.421875 12.480469 -21.421875 C 5.910156 -21.421875 1.289062 -16.921875 1.289062 -10.5 C 1.289062 -4.078125 5.910156 0.421875 12.480469 0.421875 Z M 6.148438 -10.5 C 6.148438 -14.28125 8.761719 -16.890625 12.480469 -16.890625 C 16.230469 -16.890625 18.808594 -14.28125 18.808594 -10.5 C 18.808594 -6.71875 16.230469 -4.109375 12.480469 -4.109375 C 8.761719 -4.109375 6.148438 -6.71875 6.148438 -10.5 Z M 6.148438 -10.5 "/></g></g></g><g fill="#ffffff" fill-opacity="1"><g transform="translate(548.007337, 206.066378)"><g><path d="M 2.519531 0 L 16.648438 0 L 16.648438 -4.050781 L 7.261719 -4.050781 L 7.261719 -8.640625 L 15.511719 -8.640625 L 15.511719 -12.628906 L 7.261719 -12.628906 L 7.261719 -16.980469 L 16.320312 -16.980469 L 16.320312 -21 L 2.519531 -21 Z M 2.519531 0 "/></g></g></g><g fill="#ffffff" fill-opacity="1"><g transform="translate(567.087318, 206.066378)"><g><path d="M 12.480469 0.421875 L 13.140625 0.390625 L 13.621094 1.558594 C 14.730469 4.171875 16.769531 5.460938 19.828125 5.460938 L 22.5 5.460938 L 22.5 1.769531 L 20.851562 1.769531 C 18.898438 1.769531 18.328125 1.441406 17.699219 0 L 17.460938 -0.570312 C 21.269531 -2.21875 23.699219 -5.878906 23.699219 -10.5 C 23.699219 -16.921875 19.050781 -21.421875 12.480469 -21.421875 C 5.910156 -21.421875 1.289062 -16.921875 1.289062 -10.5 C 1.289062 -4.078125 5.910156 0.421875 12.480469 0.421875 Z M 6.148438 -10.5 C 6.148438 -14.28125 8.761719 -16.890625 12.480469 -16.890625 C 16.230469 -16.890625 18.808594 -14.28125 18.808594 -10.5 C 18.808594 -6.71875 16.230469 -4.109375 12.480469 -4.109375 C 8.761719 -4.109375 6.148438 -6.71875 6.148438 -10.5 Z M 6.148438 -10.5 "/></g></g></g><g fill="#ffffff" fill-opacity="1"><g transform="translate(592.977289, 206.066378)"><g><path d="M 11.101562 0.421875 C 16.558594 0.421875 19.890625 -3 19.890625 -8.640625 L 19.890625 -21 L 15.121094 -21 L 15.121094 -8.96875 C 15.121094 -5.761719 13.769531 -4.109375 11.101562 -4.109375 C 8.429688 -4.109375 7.078125 -5.761719 7.078125 -8.96875 L 7.078125 -21 L 2.308594 -21 L 2.308594 -8.640625 C 2.308594 -3 5.640625 0.421875 11.101562 0.421875 Z M 11.101562 0.421875 "/></g></g></g><g fill="#ffffff" fill-opacity="1"><g transform="translate(616.077273, 206.066378)"><g><path d="M 2.519531 0 L 7.289062 0 L 7.289062 -21 L 2.519531 -21 Z M 2.519531 0 "/></g></g></g><g fill="#ffffff" fill-opacity="1"><g transform="translate(626.78726, 206.066378)"><g><path d="M 8.339844 0 L 13.019531 0 L 21.089844 -21 L 15.988281 -21 L 10.710938 -6.871094 L 8.191406 -13.53125 L 5.398438 -21 L 0.269531 -21 Z M 8.339844 0 "/></g></g></g><g fill="#ffffff" fill-opacity="1"><g transform="translate(649.047242, 206.066378)"><g><path d="M 0.269531 0 L 5.371094 0 L 6.78125 -3.628906 L 15.121094 -3.628906 L 16.53125 0 L 21.628906 0 L 13.289062 -21 L 8.609375 -21 Z M 8.011719 -7.378906 L 10.949219 -15.058594 L 13.921875 -7.378906 Z M 8.011719 -7.378906 "/></g></g></g><g fill="#ffffff" fill-opacity="1"><g transform="translate(671.847213, 206.066378)"><g><path d="M 2.519531 0 L 16.46875 0 L 16.46875 -4.46875 L 7.289062 -4.46875 L 7.289062 -21 L 2.519531 -21 Z M 2.519531 0 "/></g></g></g><g fill="#ffffff" fill-opacity="1"><g transform="translate(690.027194, 206.066378)"><g><path d="M 2.519531 0 L 16.648438 0 L 16.648438 -4.050781 L 7.261719 -4.050781 L 7.261719 -8.640625 L 15.511719 -8.640625 L 15.511719 -12.628906 L 7.261719 -12.628906 L 7.261719 -16.980469 L 16.320312 -16.980469 L 16.320312 -21 L 2.519531 -21 Z M 2.519531 0 "/></g></g></g><g fill="#ffffff" fill-opacity="1"><g transform="translate(709.107172, 206.066378)"><g/></g></g><g fill="#ffffff" fill-opacity="1"><g transform="translate(717.057165, 206.066378)"><g><path d="M 0.269531 0 L 5.371094 0 L 6.78125 -3.628906 L 15.121094 -3.628906 L 16.53125 0 L 21.628906 0 L 13.289062 -21 L 8.609375 -21 Z M 8.011719 -7.378906 L 10.949219 -15.058594 L 13.921875 -7.378906 Z M 8.011719 -7.378906 "/></g></g></g><g fill="#222222" fill-opacity="1"><g transform="translate(85.301631, 286.409362)"><g><path d="M 10.019531 0.421875 C 15.238281 0.421875 18.839844 -2.96875 18.839844 -7.890625 C 18.839844 -12.78125 15.238281 -16.171875 10.019531 -16.171875 C 4.769531 -16.171875 1.171875 -12.78125 1.171875 -7.890625 C 1.171875 -2.96875 4.769531 0.421875 10.019531 0.421875 Z M 5.671875 -7.890625 C 5.671875 -10.46875 7.46875 -12.269531 10.019531 -12.269531 C 12.570312 -12.269531 14.339844 -10.46875 14.339844 -7.890625 C 14.339844 -5.308594 12.570312 -3.511719 10.019531 -3.511719 C 7.46875 -3.511719 5.671875 -5.308594 5.671875 -7.890625 Z M 5.671875 -7.890625 "/></g></g></g><g fill="#222222" fill-opacity="1"><g transform="translate(106.511614, 286.409362)"><g><path d="M 2.28125 0 L 6.839844 0 L 6.839844 -8.25 C 6.839844 -10.738281 8.21875 -12.269531 10.320312 -12.269531 C 12.269531 -12.269531 13.441406 -10.890625 13.441406 -8.578125 L 13.441406 0 L 18 0 L 18 -9.058594 C 18 -13.410156 15.511719 -16.171875 11.398438 -16.171875 C 9.300781 -16.171875 7.410156 -15.449219 6.148438 -13.980469 L 5.671875 -15.75 L 2.28125 -15.75 Z M 2.28125 0 "/></g></g></g><g fill="#222222" fill-opacity="1"><g transform="translate(127.69159, 286.409362)"><g><path d="M 7.5 7.859375 L 9.929688 7.859375 C 12.300781 7.859375 13.621094 6.511719 13.621094 4.589844 C 13.621094 2.910156 12.628906 1.679688 10.800781 1.378906 L 11.191406 0.328125 C 14.910156 -0.148438 17.640625 -2.640625 18.390625 -6.328125 L 13.949219 -6.328125 C 13.320312 -4.621094 11.761719 -3.511719 9.839844 -3.511719 C 7.378906 -3.511719 5.671875 -5.308594 5.671875 -7.890625 C 5.671875 -10.46875 7.378906 -12.269531 9.839844 -12.269531 C 11.640625 -12.269531 13.109375 -11.308594 13.859375 -9.71875 L 18.238281 -9.71875 C 17.519531 -13.621094 14.160156 -16.171875 9.78125 -16.171875 C 4.738281 -16.171875 1.171875 -12.71875 1.171875 -7.890625 C 1.171875 -3.390625 4.199219 -0.121094 8.640625 0.359375 L 7.859375 2.730469 L 8.429688 3.449219 L 9.539062 3.449219 C 10.261719 3.449219 10.679688 3.78125 10.679688 4.351562 C 10.679688 4.921875 10.261719 5.25 9.539062 5.25 L 7.5 5.25 Z M 7.5 7.859375 "/></g></g></g><g fill="#222222" fill-opacity="1"><g transform="translate(148.391568, 286.409362)"><g><path d="M 7.53125 0.300781 C 9.871094 0.300781 11.789062 -0.449219 13.140625 -1.828125 L 13.648438 0 L 17.039062 0 L 17.039062 -9.480469 C 17.039062 -13.648438 14.21875 -16.171875 9.511719 -16.171875 C 5.488281 -16.171875 2.851562 -14.25 2.28125 -10.828125 L 6.660156 -10.828125 C 6.929688 -11.941406 8.070312 -12.691406 9.539062 -12.691406 C 11.339844 -12.691406 12.570312 -11.671875 12.570312 -10.109375 L 12.570312 -9.390625 L 6.871094 -9.390625 C 3.601562 -9.390625 1.5 -7.5 1.5 -4.589844 C 1.5 -1.558594 3.808594 0.300781 7.53125 0.300781 Z M 6 -4.769531 C 6 -5.851562 6.898438 -6.539062 8.28125 -6.539062 L 12.601562 -6.539062 C 12.511719 -4.410156 10.859375 -2.96875 8.578125 -2.96875 C 7.019531 -2.96875 6 -3.691406 6 -4.769531 Z M 6 -4.769531 "/></g></g></g><g fill="#222222" fill-opacity="1"><g transform="translate(87.914912, 364.048306)"><g><path d="M 2.28125 0 L 6.839844 0 L 6.839844 -22.199219 L 2.28125 -22.199219 Z M 2.28125 0 "/></g></g></g><g fill="#222222" fill-opacity="1"><g transform="translate(98.234903, 364.048306)"><g><path d="M 2.28125 0 L 6.839844 0 L 6.839844 -15.75 L 2.28125 -15.75 Z M 1.621094 -20.851562 C 1.621094 -19.171875 2.820312 -18 4.558594 -18 C 6.300781 -18 7.5 -19.171875 7.5 -20.851562 C 7.5 -22.53125 6.300781 -23.699219 4.558594 -23.699219 C 2.820312 -23.699219 1.621094 -22.53125 1.621094 -20.851562 Z M 1.621094 -20.851562 "/></g></g></g><g fill="#222222" fill-opacity="1"><g transform="translate(108.554895, 364.048306)"><g><path d="M 11.820312 0.421875 C 16.53125 0.421875 19.859375 -3 19.859375 -7.890625 C 19.859375 -12.71875 16.53125 -16.171875 11.820312 -16.171875 C 9.871094 -16.171875 8.160156 -15.570312 6.839844 -14.519531 L 6.839844 -22.199219 L 2.28125 -22.199219 L 2.28125 0 L 5.671875 0 L 6.179688 -1.800781 C 7.589844 -0.390625 9.539062 0.421875 11.820312 0.421875 Z M 6.660156 -7.890625 C 6.660156 -10.441406 8.460938 -12.269531 11.011719 -12.269531 C 13.589844 -12.269531 15.359375 -10.441406 15.359375 -7.890625 C 15.359375 -5.308594 13.589844 -3.511719 11.011719 -3.511719 C 8.460938 -3.511719 6.660156 -5.308594 6.660156 -7.890625 Z M 6.660156 -7.890625 "/></g></g></g><g fill="#222222" fill-opacity="1"><g transform="translate(130.784879, 364.048306)"><g><path d="M 2.28125 0 L 6.839844 0 L 6.839844 -6.960938 C 6.839844 -10.351562 8.429688 -11.609375 11.039062 -11.609375 L 12.78125 -11.609375 L 12.78125 -15.75 L 11.070312 -15.75 C 8.761719 -15.75 7.289062 -15.121094 6.269531 -13.648438 L 5.671875 -15.75 L 2.28125 -15.75 Z M 2.28125 0 "/></g></g></g><g fill="#222222" fill-opacity="1"><g transform="translate(145.784861, 364.048306)"><g><path d="M 7.53125 0.300781 C 9.871094 0.300781 11.789062 -0.449219 13.140625 -1.828125 L 13.648438 0 L 17.039062 0 L 17.039062 -9.480469 C 17.039062 -13.648438 14.21875 -16.171875 9.511719 -16.171875 C 5.488281 -16.171875 2.851562 -14.25 2.28125 -10.828125 L 6.660156 -10.828125 C 6.929688 -11.941406 8.070312 -12.691406 9.539062 -12.691406 C 11.339844 -12.691406 12.570312 -11.671875 12.570312 -10.109375 L 12.570312 -9.390625 L 6.871094 -9.390625 C 3.601562 -9.390625 1.5 -7.5 1.5 -4.589844 C 1.5 -1.558594 3.808594 0.300781 7.53125 0.300781 Z M 6 -4.769531 C 6 -5.851562 6.898438 -6.539062 8.28125 -6.539062 L 12.601562 -6.539062 C 12.511719 -4.410156 10.859375 -2.96875 8.578125 -2.96875 C 7.019531 -2.96875 6 -3.691406 6 -4.769531 Z M 6 -4.769531 "/></g></g></g><g fill="#003f5e" fill-opacity="1"><g transform="translate(361.60982, 286.409362)"><g><path d="M 8.367188 0.390625 C 13.078125 0.390625 17.097656 -2.910156 18.027344 -7.589844 C 18.984375 -12.476562 16.105469 -15.957031 11.246094 -15.957031 C 6.539062 -15.957031 2.519531 -12.65625 1.589844 -7.976562 C 0.628906 -3.089844 3.507812 0.390625 8.367188 0.390625 Z M 4.109375 -7.648438 C 4.769531 -11.007812 7.707031 -13.554688 11.097656 -13.554688 C 14.304688 -13.554688 16.136719 -11.1875 15.507812 -7.917969 C 14.847656 -4.558594 11.90625 -2.039062 8.546875 -2.039062 C 5.308594 -2.039062 3.480469 -4.378906 4.109375 -7.648438 Z M 4.109375 -7.648438 "/></g></g></g><g fill="#003f5e" fill-opacity="1"><g transform="translate(382.422195, 286.409362)"><g><path d="M -0.148438 0 L 12.835938 0 L 13.285156 -2.308594 L 4.019531 -2.308594 L 15.417969 -13.675781 L 15.746094 -15.566406 L 3.269531 -15.566406 L 2.820312 -13.257812 L 11.605469 -13.257812 L 0.210938 -1.890625 Z M -0.148438 0 "/></g></g></g><g fill="#003f5e" fill-opacity="1"><g transform="translate(372.462669, 363.298306)"><g><path d="M 1.230469 0 L 3.808594 0 L 8.246094 -22.195312 L 5.667969 -22.195312 Z M 1.230469 0 "/></g></g></g><g fill="#003f5e" fill-opacity="1"><g transform="translate(381.819496, 363.298306)"><g><path d="M 9.835938 0.390625 C 14.394531 0.390625 18.234375 -2.910156 19.164062 -7.589844 C 20.125 -12.476562 17.367188 -15.957031 12.6875 -15.957031 C 10.347656 -15.957031 8.21875 -15.085938 6.539062 -13.617188 L 8.246094 -22.195312 L 5.667969 -22.195312 L 1.230469 0 L 3.328125 0 L 4.140625 -2.519531 C 5.25 -0.691406 7.257812 0.390625 9.835938 0.390625 Z M 5.25 -7.648438 C 5.910156 -11.007812 8.847656 -13.554688 12.238281 -13.554688 C 15.445312 -13.554688 17.277344 -11.1875 16.644531 -7.917969 C 15.984375 -4.527344 13.046875 -2.039062 9.6875 -2.039062 C 6.449219 -2.039062 4.617188 -4.378906 5.25 -7.648438 Z M 5.25 -7.648438 "/></g></g></g><g fill="#222222" fill-opacity="1"><g transform="translate(583.997913, 286.409362)"><g><path d="M 2.160156 0 L 16.769531 0 L 16.769531 -2.460938 L 6.480469 -2.460938 L 12.539062 -7.980469 C 15.148438 -10.378906 16.351562 -12.71875 16.351562 -15.089844 C 16.351562 -18.78125 13.410156 -21.390625 9.390625 -21.390625 C 5.28125 -21.390625 2.519531 -18.660156 2.398438 -14.460938 L 4.859375 -14.460938 C 4.949219 -17.371094 6.75 -19.078125 9.421875 -19.078125 C 12 -19.078125 13.800781 -17.488281 13.800781 -15.089844 C 13.800781 -13.351562 12.871094 -11.820312 10.859375 -9.960938 L 2.160156 -1.980469 Z M 2.160156 0 "/></g></g></g><g fill="#222222" fill-opacity="1"><g transform="translate(604.427889, 286.409362)"><g><path d="M 9.238281 0.390625 C 13.710938 0.390625 16.800781 -2.070312 16.800781 -5.609375 C 16.800781 -7.890625 15.480469 -9.78125 13.320312 -10.800781 C 15.210938 -11.789062 16.320312 -13.5 16.320312 -15.628906 C 16.320312 -19.050781 13.441406 -21.390625 9.238281 -21.390625 C 5.011719 -21.390625 2.160156 -19.050781 2.160156 -15.628906 C 2.160156 -13.5 3.269531 -11.789062 5.160156 -10.800781 C 2.96875 -9.808594 1.679688 -7.890625 1.679688 -5.609375 C 1.679688 -2.070312 4.769531 0.390625 9.238281 0.390625 Z M 4.199219 -5.761719 C 4.199219 -8.070312 6.210938 -9.570312 9.238281 -9.570312 C 12.238281 -9.570312 14.28125 -8.070312 14.28125 -5.761719 C 14.28125 -3.449219 12.238281 -1.921875 9.238281 -1.921875 C 6.210938 -1.921875 4.199219 -3.449219 4.199219 -5.761719 Z M 4.679688 -15.480469 C 4.679688 -17.640625 6.511719 -19.109375 9.238281 -19.109375 C 11.941406 -19.109375 13.800781 -17.640625 13.800781 -15.480469 C 13.800781 -13.320312 11.941406 -11.878906 9.238281 -11.878906 C 6.511719 -11.878906 4.679688 -13.320312 4.679688 -15.480469 Z M 4.679688 -15.480469 "/></g></g></g><g fill="#222222" fill-opacity="1"><g transform="translate(624.107876, 286.409362)"><g><path d="M 2.878906 2.761719 L 2.878906 4.351562 C 4.949219 4.050781 6.511719 1.949219 6.511719 -0.570312 C 6.511719 -2.429688 5.429688 -3.691406 3.898438 -3.691406 C 2.671875 -3.691406 1.828125 -2.851562 1.828125 -1.738281 C 1.828125 -0.628906 2.671875 0.210938 3.78125 0.210938 C 4.019531 0.210938 4.289062 0.179688 4.558594 0.0898438 C 4.621094 1.378906 3.988281 2.371094 2.878906 2.761719 Z M 2.878906 2.761719 "/></g></g></g><g fill="#222222" fill-opacity="1"><g transform="translate(633.647874, 286.409362)"><g><path d="M 8.941406 0.390625 C 13.230469 0.390625 16.109375 -2.28125 16.109375 -6.269531 C 16.109375 -10.078125 13.46875 -12.691406 9.449219 -12.898438 L 15.390625 -19.078125 L 15.390625 -21 L 2.160156 -21 L 2.160156 -18.539062 L 11.460938 -18.539062 L 5.550781 -12.390625 L 5.550781 -10.5 L 8.96875 -10.5 C 11.671875 -10.5 13.46875 -8.878906 13.46875 -6.359375 C 13.46875 -3.839844 11.699219 -2.160156 8.941406 -2.160156 C 6.328125 -2.160156 4.53125 -3.691406 4.378906 -6.058594 L 1.800781 -6.058594 C 1.949219 -2.160156 4.769531 0.390625 8.941406 0.390625 Z M 8.941406 0.390625 "/></g></g></g><g fill="#222222" fill-opacity="1"><g transform="translate(652.997858, 286.409362)"><g><path d="M 9.089844 0.390625 C 13.410156 0.390625 16.289062 -2.308594 16.289062 -6.300781 C 16.289062 -10.261719 13.410156 -12.960938 9.121094 -12.960938 L 5.28125 -12.960938 L 5.730469 -18.539062 L 15.328125 -18.539062 L 15.328125 -21 L 3.328125 -21 L 2.519531 -10.53125 L 9.121094 -10.53125 C 11.851562 -10.53125 13.648438 -8.910156 13.648438 -6.359375 C 13.648438 -3.839844 11.878906 -2.160156 9.121094 -2.160156 C 6.511719 -2.160156 4.710938 -3.660156 4.558594 -6.058594 L 1.980469 -6.058594 C 2.160156 -2.128906 4.949219 0.390625 9.089844 0.390625 Z M 9.089844 0.390625 "/></g></g></g><g fill="#222222" fill-opacity="1"><g transform="translate(672.197845, 286.409362)"><g/></g></g><g fill="#222222" fill-opacity="1"><g transform="translate(680.837848, 286.409362)"><g><path d="M 9.75 6.390625 C 14.398438 6.390625 17.429688 3.511719 17.429688 -0.898438 L 17.429688 -15.570312 L 15.359375 -15.570312 L 15.089844 -13.46875 C 13.710938 -15.03125 11.671875 -15.960938 9.328125 -15.960938 C 4.890625 -15.960938 1.558594 -12.601562 1.558594 -8.070312 C 1.558594 -3.511719 4.890625 -0.148438 9.328125 -0.148438 C 11.578125 -0.148438 13.53125 -1.019531 14.910156 -2.460938 L 14.910156 -0.988281 C 14.910156 2.21875 13.019531 4.050781 9.75 4.050781 C 7.199219 4.050781 5.429688 2.878906 4.949219 0.988281 L 2.398438 0.988281 C 2.96875 4.320312 5.789062 6.390625 9.75 6.390625 Z M 4.078125 -8.070312 C 4.078125 -11.25 6.390625 -13.53125 9.601562 -13.53125 C 12.839844 -13.53125 15.121094 -11.25 15.121094 -8.070312 C 15.121094 -4.859375 12.839844 -2.609375 9.601562 -2.609375 C 6.390625 -2.609375 4.078125 -4.859375 4.078125 -8.070312 Z M 4.078125 -8.070312 "/></g></g></g><g fill="#222222" fill-opacity="1"><g transform="translate(543.076197, 363.298306)"><g><path d="M 1.078125 -4.441406 L 11.789062 -4.441406 L 11.789062 0 L 14.429688 0 L 14.429688 -4.441406 L 17.25 -4.441406 L 17.25 -6.960938 L 14.429688 -6.960938 L 14.429688 -13.558594 L 12 -13.558594 L 11.820312 -6.898438 L 4.289062 -6.898438 L 11.671875 -21 L 8.671875 -21 L 1.078125 -6.449219 Z M 1.078125 -4.441406 "/></g></g></g><g fill="#222222" fill-opacity="1"><g transform="translate(562.57618, 363.298306)"><g><path d="M 9.089844 0.390625 C 13.410156 0.390625 16.289062 -2.308594 16.289062 -6.300781 C 16.289062 -10.261719 13.410156 -12.960938 9.121094 -12.960938 L 5.28125 -12.960938 L 5.730469 -18.539062 L 15.328125 -18.539062 L 15.328125 -21 L 3.328125 -21 L 2.519531 -10.53125 L 9.121094 -10.53125 C 11.851562 -10.53125 13.648438 -8.910156 13.648438 -6.359375 C 13.648438 -3.839844 11.878906 -2.160156 9.121094 -2.160156 C 6.511719 -2.160156 4.710938 -3.660156 4.558594 -6.058594 L 1.980469 -6.058594 C 2.160156 -2.128906 4.949219 0.390625 9.089844 0.390625 Z M 9.089844 0.390625 "/></g></g></g><g fill="#222222" fill-opacity="1"><g transform="translate(581.776168, 363.298306)"><g><path d="M 8.941406 0.390625 C 13.230469 0.390625 16.109375 -2.28125 16.109375 -6.269531 C 16.109375 -10.078125 13.46875 -12.691406 9.449219 -12.898438 L 15.390625 -19.078125 L 15.390625 -21 L 2.160156 -21 L 2.160156 -18.539062 L 11.460938 -18.539062 L 5.550781 -12.390625 L 5.550781 -10.5 L 8.96875 -10.5 C 11.671875 -10.5 13.46875 -8.878906 13.46875 -6.359375 C 13.46875 -3.839844 11.699219 -2.160156 8.941406 -2.160156 C 6.328125 -2.160156 4.53125 -3.691406 4.378906 -6.058594 L 1.800781 -6.058594 C 1.949219 -2.160156 4.769531 0.390625 8.941406 0.390625 Z M 8.941406 0.390625 "/></g></g></g><g fill="#222222" fill-opacity="1"><g transform="translate(601.126155, 363.298306)"><g><path d="M 2.878906 2.761719 L 2.878906 4.351562 C 4.949219 4.050781 6.511719 1.949219 6.511719 -0.570312 C 6.511719 -2.429688 5.429688 -3.691406 3.898438 -3.691406 C 2.671875 -3.691406 1.828125 -2.851562 1.828125 -1.738281 C 1.828125 -0.628906 2.671875 0.210938 3.78125 0.210938 C 4.019531 0.210938 4.289062 0.179688 4.558594 0.0898438 C 4.621094 1.378906 3.988281 2.371094 2.878906 2.761719 Z M 2.878906 2.761719 "/></g></g></g><g fill="#222222" fill-opacity="1"><g transform="translate(610.66615, 363.298306)"><g><path d="M 9.089844 0.390625 C 13.410156 0.390625 16.289062 -2.308594 16.289062 -6.300781 C 16.289062 -10.261719 13.410156 -12.960938 9.121094 -12.960938 L 5.28125 -12.960938 L 5.730469 -18.539062 L 15.328125 -18.539062 L 15.328125 -21 L 3.328125 -21 L 2.519531 -10.53125 L 9.121094 -10.53125 C 11.851562 -10.53125 13.648438 -8.910156 13.648438 -6.359375 C 13.648438 -3.839844 11.878906 -2.160156 9.121094 -2.160156 C 6.511719 -2.160156 4.710938 -3.660156 4.558594 -6.058594 L 1.980469 -6.058594 C 2.160156 -2.128906 4.949219 0.390625 9.089844 0.390625 Z M 9.089844 0.390625 "/></g></g></g><g fill="#222222" fill-opacity="1"><g transform="translate(629.866137, 363.298306)"><g><path d="M 9.628906 -21.390625 C 5.160156 -21.390625 1.949219 -18.359375 1.949219 -14.191406 C 1.949219 -10.078125 5.070312 -6.988281 9.210938 -6.988281 C 10.019531 -6.988281 10.828125 -7.109375 11.550781 -7.351562 L 6.601562 0 L 9.570312 0 L 15.480469 -8.730469 C 16.679688 -10.5 17.339844 -12.359375 17.339844 -14.21875 C 17.339844 -18.359375 14.101562 -21.390625 9.628906 -21.390625 Z M 4.46875 -14.191406 C 4.46875 -17.039062 6.628906 -19.078125 9.628906 -19.078125 C 12.660156 -19.078125 14.789062 -17.039062 14.789062 -14.191406 C 14.789062 -11.339844 12.660156 -9.300781 9.628906 -9.300781 C 6.628906 -9.300781 4.46875 -11.339844 4.46875 -14.191406 Z M 4.46875 -14.191406 "/></g></g></g><g fill="#222222" fill-opacity="1"><g transform="translate(650.206121, 363.298306)"><g><path d="M 2.160156 0 L 16.769531 0 L 16.769531 -2.460938 L 6.480469 -2.460938 L 12.539062 -7.980469 C 15.148438 -10.378906 16.351562 -12.71875 16.351562 -15.089844 C 16.351562 -18.78125 13.410156 -21.390625 9.390625 -21.390625 C 5.28125 -21.390625 2.519531 -18.660156 2.398438 -14.460938 L 4.859375 -14.460938 C 4.949219 -17.371094 6.75 -19.078125 9.421875 -19.078125 C 12 -19.078125 13.800781 -17.488281 13.800781 -15.089844 C 13.800781 -13.351562 12.871094 -11.820312 10.859375 -9.960938 L 2.160156 -1.980469 Z M 2.160156 0 "/></g></g></g><g fill="#222222" fill-opacity="1"><g transform="translate(670.636101, 363.298306)"><g><path d="M 8.941406 0.390625 C 13.230469 0.390625 16.109375 -2.28125 16.109375 -6.269531 C 16.109375 -10.078125 13.46875 -12.691406 9.449219 -12.898438 L 15.390625 -19.078125 L 15.390625 -21 L 2.160156 -21 L 2.160156 -18.539062 L 11.460938 -18.539062 L 5.550781 -12.390625 L 5.550781 -10.5 L 8.96875 -10.5 C 11.671875 -10.5 13.46875 -8.878906 13.46875 -6.359375 C 13.46875 -3.839844 11.699219 -2.160156 8.941406 -2.160156 C 6.328125 -2.160156 4.53125 -3.691406 4.378906 -6.058594 L 1.800781 -6.058594 C 1.949219 -2.160156 4.769531 0.390625 8.941406 0.390625 Z M 8.941406 0.390625 "/></g></g></g><g fill="#222222" fill-opacity="1"><g transform="translate(689.986091, 363.298306)"><g><path d="M 3.988281 0 L 6.808594 0 L 14.96875 -19.109375 L 14.96875 -21 L 1.261719 -21 L 1.261719 -18.539062 L 11.878906 -18.539062 Z M 3.988281 0 "/></g></g></g><g fill="#222222" fill-opacity="1"><g transform="translate(707.476085, 363.298306)"><g/></g></g><g fill="#222222" fill-opacity="1"><g transform="translate(716.116088, 363.298306)"><g><path d="M 9.75 6.390625 C 14.398438 6.390625 17.429688 3.511719 17.429688 -0.898438 L 17.429688 -15.570312 L 15.359375 -15.570312 L 15.089844 -13.46875 C 13.710938 -15.03125 11.671875 -15.960938 9.328125 -15.960938 C 4.890625 -15.960938 1.558594 -12.601562 1.558594 -8.070312 C 1.558594 -3.511719 4.890625 -0.148438 9.328125 -0.148438 C 11.578125 -0.148438 13.53125 -1.019531 14.910156 -2.460938 L 14.910156 -0.988281 C 14.910156 2.21875 13.019531 4.050781 9.75 4.050781 C 7.199219 4.050781 5.429688 2.878906 4.949219 0.988281 L 2.398438 0.988281 C 2.96875 4.320312 5.789062 6.390625 9.75 6.390625 Z M 4.078125 -8.070312 C 4.078125 -11.25 6.390625 -13.53125 9.601562 -13.53125 C 12.839844 -13.53125 15.121094 -11.25 15.121094 -8.070312 C 15.121094 -4.859375 12.839844 -2.609375 9.601562 -2.609375 C 6.390625 -2.609375 4.078125 -4.859375 4.078125 -8.070312 Z M 4.078125 -8.070312 "/></g></g></g><g clip-path="url(#f83773a24c)"><path fill="#446ca9" d="M 246.230469 422.101562 L 246.230469 -45.898438 L 249.980469 -45.898438 L 249.980469 422.101562 L 246.230469 422.101562 " fill-opacity="1" fill-rule="nonzero"/></g><g clip-path="url(#81a777deae)"><path fill="#446ca9" d="M -11.992188 393.75 L 780.636719 393.75 L 780.636719 426.75 L -11.992188 426.75 L -11.992188 393.75 " fill-opacity="1" fill-rule="nonzero"/></g><g clip-path="url(#aac3e229ac)"><path fill="#446ca9" d="M 1.277344 304.144531 L 768.605469 304.144531 L 768.605469 307.894531 L 1.277344 307.894531 L 1.277344 304.144531 " fill-opacity="1" fill-rule="nonzero"/></g><g clip-path="url(#0669f43f18)"><path fill="#446ca9" d="M 524.894531 426.535156 L 524.894531 -41.464844 L 528.644531 -41.464844 L 528.644531 426.535156 L 524.894531 426.535156 " fill-opacity="1" fill-rule="nonzero"/></g><g fill="#ffffff" fill-opacity="1"><g transform="translate(273.625516, 101.403532)"><g><path d="M 5.039062 0 L 14.519531 0 L 14.519531 -25.320312 L 24.71875 -10.378906 L 31.320312 -10.378906 L 41.519531 -25.261719 L 41.519531 0 L 51 0 L 51 -42 L 42.960938 -42 L 28.078125 -20.21875 L 13.140625 -42 L 5.039062 -42 Z M 5.039062 0 "/></g></g></g><g fill="#ffffff" fill-opacity="1"><g transform="translate(331.465459, 101.403532)"><g><path d="M 0.539062 0 L 10.738281 0 L 13.558594 -7.261719 L 30.238281 -7.261719 L 33.058594 0 L 43.261719 0 L 26.578125 -42 L 17.21875 -42 Z M 16.019531 -14.761719 L 21.898438 -30.121094 L 27.839844 -14.761719 Z M 16.019531 -14.761719 "/></g></g></g><g fill="#ffffff" fill-opacity="1"><g transform="translate(377.065419, 101.403532)"><g><path d="M 19.679688 0.839844 C 29.640625 0.839844 35.761719 -3.898438 35.761719 -11.820312 C 35.761719 -18.480469 31.378906 -22.441406 20.941406 -24.898438 C 14.519531 -26.398438 12.300781 -28.019531 12.300781 -30.601562 C 12.300781 -33.359375 14.761719 -35.039062 18.78125 -35.039062 C 23.160156 -35.039062 25.800781 -32.761719 25.800781 -28.980469 L 34.980469 -28.980469 C 34.980469 -37.441406 28.621094 -42.839844 18.660156 -42.839844 C 9 -42.839844 3 -38.101562 3 -30.421875 C 3 -23.578125 7.621094 -19.5 17.460938 -17.398438 C 23.398438 -16.140625 26.101562 -14.398438 26.101562 -11.460938 C 26.101562 -8.640625 23.578125 -7.019531 19.621094 -7.019531 C 15 -7.019531 12 -9.359375 12 -13.378906 L 2.640625 -13.378906 C 2.640625 -4.679688 9.121094 0.839844 19.679688 0.839844 Z M 19.679688 0.839844 "/></g></g></g><g fill="#ffffff" fill-opacity="1"><g transform="translate(417.325378, 101.403532)"><g><path d="M 19.679688 0.839844 C 29.640625 0.839844 35.761719 -3.898438 35.761719 -11.820312 C 35.761719 -18.480469 31.378906 -22.441406 20.941406 -24.898438 C 14.519531 -26.398438 12.300781 -28.019531 12.300781 -30.601562 C 12.300781 -33.359375 14.761719 -35.039062 18.78125 -35.039062 C 23.160156 -35.039062 25.800781 -32.761719 25.800781 -28.980469 L 34.980469 -28.980469 C 34.980469 -37.441406 28.621094 -42.839844 18.660156 -42.839844 C 9 -42.839844 3 -38.101562 3 -30.421875 C 3 -23.578125 7.621094 -19.5 17.460938 -17.398438 C 23.398438 -16.140625 26.101562 -14.398438 26.101562 -11.460938 C 26.101562 -8.640625 23.578125 -7.019531 19.621094 -7.019531 C 15 -7.019531 12 -9.359375 12 -13.378906 L 2.640625 -13.378906 C 2.640625 -4.679688 9.121094 0.839844 19.679688 0.839844 Z M 19.679688 0.839844 "/></g></g></g><g fill="#ffffff" fill-opacity="1"><g transform="translate(457.585348, 101.403532)"><g><path d="M 0.539062 0 L 10.738281 0 L 13.558594 -7.261719 L 30.238281 -7.261719 L 33.058594 0 L 43.261719 0 L 26.578125 -42 L 17.21875 -42 Z M 16.019531 -14.761719 L 21.898438 -30.121094 L 27.839844 -14.761719 Z M 16.019531 -14.761719 "/></g></g></g></svg>