<svg xmlns="http://www.w3.org/2000/svg" xmlns:xlink="http://www.w3.org/1999/xlink" width="1024" zoomAndPan="magnify" viewBox="0 0 768 576" height="768" preserveAspectRatio="xMidYMid meet" version="1.0"><defs><clipPath id="7afc2da245"><path d="M 139 245 L 629.425781 245 L 629.425781 537 L 139 537 Z M 139 245 " clip-rule="nonzero"/></clipPath></defs><path fill="#ff9900" d="M 373.957031 403.113281 C 372.21875 403.113281 370.460938 402.683594 368.886719 401.765625 C 365.71875 399.96875 363.738281 396.578125 363.738281 392.898438 L 363.738281 55.199219 C 363.738281 50.765625 366.617188 46.824219 370.847656 45.453125 C 375.078125 44.167969 379.71875 45.660156 382.292969 49.292969 L 551.535156 287.476562 C 553.191406 289.785156 553.765625 292.746094 553.191406 295.566406 C 552.621094 298.382812 550.839844 300.792969 548.390625 302.222656 L 379.144531 401.722656 C 377.53125 402.625 375.753906 403.113281 373.957031 403.113281 Z M 384.175781 87.207031 L 384.175781 375.046875 L 528.421875 290.210938 Z M 384.175781 87.207031 " fill-opacity="1" fill-rule="nonzero"/><g clip-path="url(#7afc2da245)"><path fill="#ff9900" d="M 384.175781 536.195312 C 249.121094 536.195312 139.25 471.074219 139.25 391.0625 C 139.25 312.949219 242.257812 249.257812 373.730469 245.945312 C 379.65625 246.660156 384.070312 250.296875 384.195312 255.894531 C 384.335938 261.53125 379.882812 266.230469 374.222656 266.375 C 255.929688 269.335938 159.6875 325.226562 159.6875 391.0625 C 159.6875 459.839844 260.40625 515.769531 384.175781 515.769531 C 507.945312 515.769531 608.660156 459.800781 608.660156 391.0625 C 608.660156 357.4375 583.09375 324.511719 538.476562 300.855469 C 533.492188 298.21875 531.570312 291.988281 534.207031 287.046875 C 536.882812 282.0625 543.054688 280.164062 548.042969 282.816406 C 599.566406 310.109375 629.078125 349.613281 629.078125 391.0625 C 629.097656 471.054688 519.226562 536.195312 384.175781 536.195312 Z M 384.175781 536.195312 " fill-opacity="1" fill-rule="nonzero"/></g><path fill="#ff9900" d="M 267.863281 312.988281 C 265.535156 312.988281 263.183594 312.191406 261.261719 310.558594 L 237.636719 290.476562 C 233.34375 286.800781 232.8125 280.386719 236.472656 276.078125 C 240.152344 271.765625 246.609375 271.296875 250.878906 274.890625 L 274.507812 294.972656 C 278.796875 298.628906 279.328125 305.082031 275.671875 309.394531 C 273.605469 311.742188 270.765625 312.988281 267.863281 312.988281 Z M 267.863281 312.988281 " fill-opacity="1" fill-rule="nonzero"/><path fill="#ff9900" d="M 226.292969 501.0625 C 222.984375 501.0625 219.734375 499.46875 217.773438 496.507812 C 214.644531 491.808594 215.933594 485.457031 220.632812 482.351562 L 255.457031 459.246094 C 260.160156 456.101562 266.515625 457.367188 269.621094 462.128906 C 272.75 466.804688 271.460938 473.136719 266.761719 476.242188 L 231.933594 499.347656 C 230.199219 500.53125 228.277344 501.0625 226.292969 501.0625 Z M 226.292969 501.0625 " fill-opacity="1" fill-rule="nonzero"/><path fill="#ff9900" d="M 542.074219 501.0625 C 540.132812 501.0625 538.191406 500.550781 536.433594 499.347656 L 501.628906 476.242188 C 496.925781 473.136719 495.640625 466.785156 498.746094 462.128906 C 501.851562 457.429688 508.1875 456.140625 512.910156 459.246094 L 547.714844 482.351562 C 552.414062 485.457031 553.703125 491.808594 550.597656 496.507812 C 548.59375 499.46875 545.386719 501.0625 542.074219 501.0625 Z M 542.074219 501.0625 " fill-opacity="1" fill-rule="nonzero"/><path fill="#ff9900" d="M 373.957031 525.675781 C 368.3125 525.675781 363.738281 521.082031 363.738281 515.464844 L 363.738281 495.035156 C 363.738281 489.417969 368.3125 484.820312 373.957031 484.820312 C 379.597656 484.820312 384.175781 489.417969 384.175781 495.035156 L 384.175781 515.464844 C 384.175781 521.082031 379.597656 525.675781 373.957031 525.675781 Z M 373.957031 525.675781 " fill-opacity="1" fill-rule="nonzero"/><path fill="#ff9900" d="M 200.238281 392.898438 L 159.363281 392.898438 C 153.71875 392.898438 149.144531 388.304688 149.144531 382.6875 C 149.144531 377.070312 153.71875 372.472656 159.363281 372.472656 L 200.238281 372.472656 C 205.878906 372.472656 210.457031 377.070312 210.457031 382.6875 C 210.457031 388.304688 205.878906 392.898438 200.238281 392.898438 Z M 200.238281 392.898438 " fill-opacity="1" fill-rule="nonzero"/><path fill="#ff9900" d="M 608.988281 392.898438 L 568.113281 392.898438 C 562.492188 392.898438 557.894531 388.304688 557.894531 382.6875 C 557.894531 377.070312 562.492188 372.472656 568.113281 372.472656 L 608.988281 372.472656 C 614.628906 372.472656 619.207031 377.070312 619.207031 382.6875 C 619.207031 388.304688 614.628906 392.898438 608.988281 392.898438 Z M 608.988281 392.898438 " fill-opacity="1" fill-rule="nonzero"/></svg>