<svg xmlns="http://www.w3.org/2000/svg" xmlns:xlink="http://www.w3.org/1999/xlink" width="1920" zoomAndPan="magnify" viewBox="0 0 1440 809.999993" height="1080" preserveAspectRatio="xMidYMid meet" version="1.0"><defs><clipPath id="6deea57aa8"><path d="M 83.421875 272.210938 L 294.070312 272.210938 L 294.070312 482.863281 L 83.421875 482.863281 Z M 83.421875 272.210938 " clip-rule="nonzero"/></clipPath><clipPath id="5928bf935a"><path d="M 129 298.59375 L 248 298.59375 L 248 456.582031 L 129 456.582031 Z M 129 298.59375 " clip-rule="nonzero"/></clipPath><clipPath id="6809eaff0d"><path d="M 345.582031 272.210938 L 555.730469 272.210938 L 555.730469 482.359375 L 345.582031 482.359375 Z M 345.582031 272.210938 " clip-rule="nonzero"/></clipPath><clipPath id="08bdddad2a"><path d="M 377.050781 335 L 524.386719 335 L 524.386719 446.414062 L 377.050781 446.414062 Z M 377.050781 335 " clip-rule="nonzero"/></clipPath><clipPath id="358fa539f3"><path d="M 448 299.078125 L 503 299.078125 L 503 331 L 448 331 Z M 448 299.078125 " clip-rule="nonzero"/></clipPath><clipPath id="a9f6a28d34"><path d="M 406 299.078125 L 446 299.078125 L 446 331 L 406 331 Z M 406 299.078125 " clip-rule="nonzero"/></clipPath><clipPath id="fb7018b23c"><path d="M 614.527344 272.210938 L 825.277344 272.210938 L 825.277344 482.960938 L 614.527344 482.960938 Z M 614.527344 272.210938 " clip-rule="nonzero"/></clipPath><clipPath id="6ee2d1bad9"><path d="M 675 399 L 764 399 L 764 453.613281 L 675 453.613281 Z M 675 399 " clip-rule="nonzero"/></clipPath><clipPath id="e91e8e236d"><path d="M 658.574219 287.113281 L 780.824219 287.113281 L 780.824219 429 L 658.574219 429 Z M 658.574219 287.113281 " clip-rule="nonzero"/></clipPath><clipPath id="b4db0d1135"><path d="M 883.46875 272.210938 L 1093.746094 272.210938 L 1093.746094 482.484375 L 883.46875 482.484375 Z M 883.46875 272.210938 " clip-rule="nonzero"/></clipPath><clipPath id="851708b658"><path d="M 955.832031 291.015625 L 1042.414062 291.015625 L 1042.414062 464.179688 L 955.832031 464.179688 Z M 955.832031 291.015625 " clip-rule="nonzero"/></clipPath><clipPath id="a094afe173"><path d="M 1146.136719 272.210938 L 1356.28125 272.210938 L 1356.28125 482.359375 L 1146.136719 482.359375 Z M 1146.136719 272.210938 " clip-rule="nonzero"/></clipPath><clipPath id="202c6638e2"><path d="M 1190 298.027344 L 1309 298.027344 L 1309 417 L 1190 417 Z M 1190 298.027344 " clip-rule="nonzero"/></clipPath><clipPath id="a4fe7bc51f"><path d="M 1270 376 L 1313.039062 376 L 1313.039062 415 L 1270 415 Z M 1270 376 " clip-rule="nonzero"/></clipPath></defs><g clip-path="url(#6deea57aa8)"><path fill="#ff9900" d="M 188.746094 272.210938 C 130.574219 272.210938 83.421875 319.367188 83.421875 377.535156 C 83.421875 435.707031 130.574219 482.863281 188.746094 482.863281 C 246.914062 482.863281 294.070312 435.707031 294.070312 377.535156 C 294.070312 319.367188 246.914062 272.210938 188.746094 272.210938 " fill-opacity="1" fill-rule="nonzero"/></g><path fill="#ffffff" d="M 196.066406 382.527344 C 196.066406 383.011719 196.113281 383.496094 196.207031 383.972656 C 196.300781 384.449219 196.441406 384.910156 196.625 385.359375 C 196.8125 385.808594 197.039062 386.238281 197.308594 386.640625 C 197.578125 387.046875 197.882812 387.417969 198.226562 387.761719 C 198.570312 388.105469 198.941406 388.414062 199.34375 388.683594 C 199.75 388.953125 200.175781 389.183594 200.621094 389.367188 C 201.070312 389.554688 201.53125 389.695312 202.007812 389.789062 C 202.480469 389.882812 202.960938 389.933594 203.445312 389.933594 C 203.929688 389.933594 204.410156 389.882812 204.886719 389.789062 C 205.363281 389.695312 205.824219 389.554688 206.273438 389.367188 C 206.71875 389.183594 207.144531 388.953125 207.546875 388.683594 C 207.949219 388.414062 208.324219 388.105469 208.667969 387.761719 C 209.007812 387.417969 209.316406 387.046875 209.585938 386.640625 C 209.855469 386.238281 210.082031 385.808594 210.265625 385.359375 C 210.453125 384.910156 210.59375 384.449219 210.6875 383.972656 C 210.78125 383.496094 210.828125 383.011719 210.828125 382.527344 C 210.828125 382.039062 210.78125 381.558594 210.6875 381.082031 C 210.59375 380.605469 210.453125 380.140625 210.265625 379.691406 C 210.082031 379.242188 209.855469 378.816406 209.585938 378.410156 C 209.316406 378.007812 209.007812 377.632812 208.667969 377.289062 C 208.324219 376.945312 207.949219 376.640625 207.546875 376.367188 C 207.144531 376.097656 206.71875 375.871094 206.273438 375.683594 C 205.824219 375.5 205.363281 375.359375 204.886719 375.261719 C 204.410156 375.167969 203.929688 375.121094 203.445312 375.121094 L 175.835938 375.121094 L 174.605469 370.183594 L 208.761719 370.183594 C 209.269531 370.183594 209.730469 370.035156 210.148438 369.75 C 210.566406 369.460938 210.867188 369.078125 211.050781 368.605469 L 220.5 343.917969 C 220.648438 343.535156 220.695312 343.140625 220.648438 342.734375 C 220.601562 342.328125 220.460938 341.957031 220.230469 341.621094 C 220 341.289062 219.707031 341.03125 219.351562 340.84375 C 218.992188 340.65625 218.613281 340.5625 218.210938 340.5625 L 167.226562 340.5625 L 166.535156 337.5 C 166.46875 337.226562 166.359375 336.972656 166.203125 336.734375 C 166.046875 336.5 165.859375 336.296875 165.636719 336.125 C 165.410156 335.953125 165.167969 335.828125 164.898438 335.742188 C 164.628906 335.65625 164.355469 335.617188 164.074219 335.625 L 151.773438 335.625 L 151.773438 340.5625 L 162.15625 340.5625 L 170.941406 375.761719 C 170.5 375.949219 170.082031 376.179688 169.6875 376.449219 C 169.289062 376.722656 168.925781 377.027344 168.585938 377.367188 C 168.25 377.710938 167.949219 378.082031 167.6875 378.480469 C 167.421875 378.882812 167.199219 379.304688 167.015625 379.75 C 166.832031 380.191406 166.695312 380.648438 166.601562 381.121094 C 166.507812 381.59375 166.460938 382.066406 166.457031 382.546875 C 166.457031 383.027344 166.5 383.503906 166.589844 383.976562 C 166.683594 384.449219 166.816406 384.90625 166.996094 385.351562 C 167.175781 385.796875 167.398438 386.21875 167.660156 386.621094 C 167.921875 387.023438 168.21875 387.398438 168.554688 387.742188 C 168.886719 388.085938 169.25 388.394531 169.644531 388.667969 C 170.039062 388.941406 170.457031 389.171875 170.894531 389.363281 C 171.335938 389.554688 171.789062 389.703125 172.253906 389.804688 C 172.722656 389.910156 173.195312 389.964844 173.675781 389.976562 C 174.152344 389.988281 174.628906 389.953125 175.101562 389.871094 C 175.574219 389.789062 176.03125 389.660156 176.480469 389.488281 C 176.925781 389.316406 177.351562 389.105469 177.757812 388.847656 C 178.164062 388.59375 178.542969 388.300781 178.890625 387.972656 C 179.238281 387.644531 179.554688 387.285156 179.835938 386.894531 C 180.113281 386.507812 180.351562 386.09375 180.550781 385.65625 C 180.75 385.21875 180.90625 384.765625 181.019531 384.300781 C 181.128906 383.832031 181.195312 383.359375 181.214844 382.878906 C 181.234375 382.398438 181.210938 381.921875 181.136719 381.449219 C 181.0625 380.972656 180.945312 380.507812 180.785156 380.058594 L 196.433594 380.058594 C 196.171875 380.859375 196.046875 381.683594 196.066406 382.527344 Z M 205.90625 382.527344 C 205.90625 382.855469 205.84375 383.167969 205.71875 383.472656 C 205.59375 383.773438 205.417969 384.039062 205.1875 384.273438 C 204.957031 384.503906 204.691406 384.683594 204.386719 384.808594 C 204.085938 384.933594 203.773438 384.996094 203.445312 384.996094 C 203.121094 384.996094 202.804688 384.933594 202.503906 384.808594 C 202.203125 384.683594 201.9375 384.503906 201.707031 384.273438 C 201.476562 384.039062 201.296875 383.773438 201.171875 383.472656 C 201.046875 383.167969 200.984375 382.855469 200.984375 382.527344 C 200.984375 382.199219 201.046875 381.882812 201.171875 381.582031 C 201.296875 381.277344 201.476562 381.011719 201.707031 380.78125 C 201.9375 380.550781 202.203125 380.371094 202.503906 380.246094 C 202.804688 380.121094 203.121094 380.058594 203.445312 380.058594 C 203.773438 380.058594 204.085938 380.121094 204.386719 380.246094 C 204.691406 380.371094 204.957031 380.550781 205.1875 380.78125 C 205.417969 381.011719 205.59375 381.277344 205.71875 381.582031 C 205.84375 381.882812 205.90625 382.199219 205.90625 382.527344 Z M 214.617188 345.496094 L 207.0625 365.246094 L 173.375 365.246094 L 168.457031 345.496094 Z M 176.378906 382.527344 C 176.378906 382.855469 176.316406 383.167969 176.191406 383.472656 C 176.066406 383.773438 175.890625 384.039062 175.65625 384.273438 C 175.425781 384.503906 175.160156 384.683594 174.859375 384.808594 C 174.558594 384.933594 174.246094 384.996094 173.917969 384.996094 C 173.589844 384.996094 173.277344 384.933594 172.976562 384.808594 C 172.675781 384.683594 172.410156 384.503906 172.179688 384.273438 C 171.949219 384.039062 171.769531 383.773438 171.644531 383.472656 C 171.519531 383.167969 171.457031 382.855469 171.457031 382.527344 C 171.457031 382.199219 171.519531 381.882812 171.644531 381.582031 C 171.769531 381.277344 171.949219 381.011719 172.179688 380.78125 C 172.410156 380.550781 172.675781 380.371094 172.976562 380.246094 C 173.277344 380.121094 173.589844 380.058594 173.917969 380.058594 C 174.246094 380.058594 174.558594 380.121094 174.859375 380.246094 C 175.160156 380.371094 175.425781 380.550781 175.65625 380.78125 C 175.890625 381.011719 176.066406 381.277344 176.191406 381.582031 C 176.316406 381.882812 176.378906 382.199219 176.378906 382.527344 Z M 176.378906 382.527344 " fill-opacity="1" fill-rule="nonzero"/><g clip-path="url(#5928bf935a)"><path fill="#ffffff" d="M 188.683594 298.59375 C 186.921875 298.59375 185.164062 298.671875 183.410156 298.832031 C 181.660156 298.988281 179.917969 299.222656 178.183594 299.535156 C 176.453125 299.851562 174.738281 300.242188 173.039062 300.707031 C 171.339844 301.175781 169.667969 301.71875 168.019531 302.335938 C 166.371094 302.953125 164.75 303.644531 163.164062 304.40625 C 161.578125 305.167969 160.027344 306 158.511719 306.902344 C 157 307.804688 155.527344 308.773438 154.101562 309.804688 C 152.675781 310.839844 151.296875 311.933594 149.964844 313.09375 C 148.636719 314.25 147.363281 315.464844 146.140625 316.734375 C 144.917969 318.007812 143.757812 319.332031 142.652344 320.707031 C 141.550781 322.082031 140.511719 323.507812 139.535156 324.976562 C 138.558594 326.445312 137.648438 327.953125 136.804688 329.503906 C 135.964844 331.054688 135.191406 332.640625 134.492188 334.261719 C 133.792969 335.882812 133.164062 337.53125 132.613281 339.207031 C 132.058594 340.882812 131.578125 342.582031 131.175781 344.300781 C 130.773438 346.019531 130.449219 347.753906 130.203125 349.5 C 129.953125 351.25 129.785156 353.003906 129.695312 354.769531 C 129.601562 356.53125 129.589844 358.296875 129.65625 360.058594 C 129.722656 361.824219 129.867188 363.582031 130.089844 365.335938 C 130.3125 367.085938 130.613281 368.824219 130.988281 370.550781 C 131.367188 372.273438 131.820312 373.980469 132.351562 375.664062 C 132.878906 377.347656 133.484375 379.003906 134.160156 380.632812 C 134.835938 382.265625 135.585938 383.859375 136.40625 385.421875 C 137.222656 386.984375 138.113281 388.507812 139.066406 389.992188 C 140.023438 391.476562 141.042969 392.914062 142.125 394.304688 C 143.207031 395.695312 144.351562 397.035156 145.554688 398.328125 C 146.757812 399.617188 148.015625 400.847656 149.328125 402.023438 C 150.640625 403.199219 152.003906 404.316406 153.414062 405.371094 C 154.828125 406.425781 156.285156 407.414062 157.785156 408.335938 C 159.285156 409.261719 160.824219 410.117188 162.398438 410.902344 C 163.976562 411.6875 165.585938 412.398438 167.222656 413.042969 C 168.863281 413.683594 170.53125 414.25 172.21875 414.742188 L 186.371094 454.929688 C 186.546875 455.417969 186.847656 455.8125 187.269531 456.109375 C 187.695312 456.40625 188.164062 456.554688 188.683594 456.554688 C 189.199219 456.554688 189.671875 456.40625 190.09375 456.109375 C 190.519531 455.8125 190.820312 455.417969 190.996094 454.929688 L 196.507812 439.304688 L 191.289062 439.304688 L 188.683594 446.710938 L 176.378906 411.902344 C 176.246094 411.515625 176.035156 411.183594 175.738281 410.90625 C 175.441406 410.625 175.097656 410.429688 174.707031 410.324219 C 173.660156 410.042969 172.621094 409.730469 171.59375 409.390625 C 170.5625 409.046875 169.546875 408.675781 168.539062 408.269531 C 167.535156 407.867188 166.539062 407.433594 165.558594 406.972656 C 164.582031 406.507812 163.613281 406.015625 162.664062 405.492188 C 161.714844 404.972656 160.777344 404.421875 159.859375 403.84375 C 158.941406 403.265625 158.042969 402.664062 157.160156 402.03125 C 156.28125 401.398438 155.417969 400.742188 154.574219 400.058594 C 153.734375 399.375 152.914062 398.664062 152.113281 397.929688 C 151.3125 397.199219 150.535156 396.441406 149.78125 395.660156 C 149.027344 394.882812 148.296875 394.078125 147.589844 393.253906 C 146.882812 392.429688 146.203125 391.585938 145.546875 390.722656 C 144.890625 389.855469 144.261719 388.972656 143.65625 388.066406 C 143.054688 387.164062 142.476562 386.246094 141.929688 385.308594 C 141.382812 384.371094 140.863281 383.414062 140.371094 382.445312 C 139.882812 381.476562 139.417969 380.496094 138.988281 379.496094 C 138.554688 378.5 138.152344 377.492188 137.78125 376.472656 C 137.410156 375.449219 137.070312 374.417969 136.757812 373.378906 C 136.449219 372.335938 136.171875 371.285156 135.921875 370.226562 C 135.675781 369.167969 135.460938 368.105469 135.277344 367.03125 C 135.09375 365.960938 134.945312 364.886719 134.824219 363.804688 C 134.707031 362.722656 134.617188 361.640625 134.566406 360.554688 C 134.511719 359.46875 134.488281 358.382812 134.5 357.296875 C 134.511719 356.210938 134.554688 355.125 134.628906 354.039062 C 134.707031 352.957031 134.8125 351.875 134.953125 350.796875 C 135.09375 349.71875 135.269531 348.644531 135.472656 347.578125 C 135.675781 346.511719 135.914062 345.449219 136.183594 344.398438 C 136.449219 343.34375 136.75 342.300781 137.082031 341.265625 C 137.410156 340.230469 137.773438 339.207031 138.164062 338.191406 C 138.558594 337.179688 138.980469 336.179688 139.429688 335.191406 C 139.882812 334.203125 140.363281 333.230469 140.875 332.269531 C 141.382812 331.3125 141.921875 330.367188 142.488281 329.441406 C 143.054688 328.515625 143.648438 327.605469 144.269531 326.714844 C 144.890625 325.824219 145.539062 324.953125 146.210938 324.101562 C 146.886719 323.25 147.582031 322.417969 148.304688 321.609375 C 149.03125 320.800781 149.777344 320.011719 150.546875 319.246094 C 151.316406 318.484375 152.109375 317.742188 152.921875 317.023438 C 153.738281 316.308594 154.570312 315.617188 155.429688 314.949219 C 156.285156 314.28125 157.160156 313.640625 158.050781 313.027344 C 158.945312 312.414062 159.859375 311.828125 160.789062 311.269531 C 161.71875 310.710938 162.664062 310.179688 163.625 309.675781 C 164.585938 309.175781 165.558594 308.703125 166.546875 308.257812 C 167.539062 307.816406 168.539062 307.402344 169.554688 307.019531 C 170.566406 306.636719 171.59375 306.28125 172.628906 305.960938 C 173.664062 305.640625 174.707031 305.351562 175.757812 305.089844 C 176.8125 304.832031 177.871094 304.605469 178.9375 304.410156 C 180.003906 304.21875 181.074219 304.054688 182.148438 303.925781 C 183.226562 303.792969 184.304688 303.695312 185.386719 303.632812 C 186.46875 303.566406 187.550781 303.535156 188.632812 303.535156 C 189.714844 303.535156 190.800781 303.566406 191.882812 303.632812 C 192.960938 303.695312 194.042969 303.792969 195.117188 303.925781 C 196.191406 304.054688 197.265625 304.21875 198.328125 304.410156 C 199.394531 304.605469 200.457031 304.832031 201.507812 305.089844 C 202.558594 305.351562 203.605469 305.640625 204.640625 305.960938 C 205.675781 306.28125 206.699219 306.636719 207.710938 307.019531 C 208.726562 307.402344 209.726562 307.816406 210.71875 308.257812 C 211.707031 308.703125 212.683594 309.175781 213.644531 309.675781 C 214.605469 310.179688 215.550781 310.710938 216.480469 311.269531 C 217.40625 311.828125 218.320312 312.414062 219.214844 313.027344 C 220.109375 313.640625 220.984375 314.28125 221.839844 314.949219 C 222.695312 315.617188 223.53125 316.308594 224.34375 317.023438 C 225.15625 317.742188 225.949219 318.484375 226.71875 319.246094 C 227.492188 320.011719 228.238281 320.800781 228.960938 321.609375 C 229.683594 322.417969 230.378906 323.25 231.054688 324.101562 C 231.726562 324.953125 232.375 325.824219 232.996094 326.714844 C 233.617188 327.605469 234.210938 328.515625 234.777344 329.441406 C 235.34375 330.367188 235.882812 331.3125 236.390625 332.269531 C 236.902344 333.230469 237.382812 334.203125 237.835938 335.191406 C 238.289062 336.179688 238.710938 337.179688 239.101562 338.191406 C 239.492188 339.207031 239.855469 340.230469 240.1875 341.265625 C 240.515625 342.300781 240.816406 343.34375 241.085938 344.398438 C 241.351562 345.449219 241.589844 346.511719 241.792969 347.578125 C 242 348.644531 242.171875 349.71875 242.3125 350.796875 C 242.453125 351.875 242.558594 352.957031 242.636719 354.039062 C 242.710938 355.125 242.753906 356.210938 242.765625 357.296875 C 242.777344 358.382812 242.753906 359.46875 242.703125 360.554688 C 242.648438 361.640625 242.5625 362.722656 242.441406 363.804688 C 242.324219 364.886719 242.171875 365.960938 241.988281 367.03125 C 241.804688 368.105469 241.589844 369.167969 241.34375 370.226562 C 241.09375 371.285156 240.816406 372.335938 240.507812 373.378906 C 240.195312 374.417969 239.855469 375.449219 239.484375 376.472656 C 239.113281 377.492188 238.710938 378.5 238.277344 379.496094 C 237.847656 380.496094 237.386719 381.476562 236.894531 382.445312 C 236.402344 383.414062 235.882812 384.371094 235.335938 385.308594 C 234.789062 386.246094 234.210938 387.164062 233.609375 388.066406 C 233.007812 388.972656 232.375 389.855469 231.722656 390.722656 C 231.066406 391.585938 230.382812 392.429688 229.675781 393.253906 C 228.96875 394.078125 228.238281 394.882812 227.484375 395.660156 C 226.730469 396.441406 225.953125 397.199219 225.152344 397.929688 C 224.355469 398.664062 223.53125 399.375 222.691406 400.058594 C 221.847656 400.742188 220.984375 401.398438 220.105469 402.03125 C 219.222656 402.664062 218.324219 403.265625 217.40625 403.84375 C 216.488281 404.421875 215.554688 404.972656 214.601562 405.492188 C 213.652344 406.015625 212.6875 406.507812 211.707031 406.972656 C 210.726562 407.433594 209.730469 407.867188 208.726562 408.269531 C 207.71875 408.675781 206.703125 409.046875 205.675781 409.390625 C 204.644531 409.730469 203.609375 410.042969 202.5625 410.324219 C 202.167969 410.429688 201.824219 410.625 201.527344 410.90625 C 201.234375 411.183594 201.019531 411.515625 200.886719 411.902344 L 196.484375 424.492188 L 201.699219 424.492188 L 205.144531 414.617188 C 206.824219 414.117188 208.476562 413.539062 210.105469 412.890625 C 211.730469 412.242188 213.328125 411.519531 214.890625 410.730469 C 216.453125 409.9375 217.980469 409.078125 219.464844 408.148438 C 220.953125 407.222656 222.398438 406.230469 223.796875 405.171875 C 225.195312 404.117188 226.546875 403 227.847656 401.824219 C 229.144531 400.644531 230.390625 399.414062 231.582031 398.125 C 232.773438 396.835938 233.90625 395.496094 234.976562 394.109375 C 236.050781 392.71875 237.058594 391.285156 238.003906 389.804688 C 238.949219 388.324219 239.824219 386.808594 240.636719 385.25 C 241.445312 383.691406 242.1875 382.101562 242.855469 380.476562 C 243.523438 378.855469 244.121094 377.203125 244.644531 375.527344 C 245.167969 373.851562 245.613281 372.152344 245.988281 370.4375 C 246.359375 368.71875 246.65625 366.988281 246.875 365.246094 C 247.09375 363.503906 247.234375 361.753906 247.296875 359.996094 C 247.363281 358.242188 247.347656 356.484375 247.253906 354.730469 C 247.164062 352.976562 246.996094 351.230469 246.746094 349.492188 C 246.5 347.75 246.175781 346.027344 245.777344 344.316406 C 245.378906 342.605469 244.902344 340.914062 244.351562 339.246094 C 243.804688 337.578125 243.179688 335.9375 242.484375 334.324219 C 241.792969 332.710938 241.027344 331.132812 240.191406 329.589844 C 239.355469 328.046875 238.453125 326.542969 237.484375 325.078125 C 236.515625 323.613281 235.484375 322.195312 234.390625 320.824219 C 233.296875 319.453125 232.144531 318.132812 230.933594 316.863281 C 229.722656 315.59375 228.457031 314.378906 227.136719 313.222656 C 225.816406 312.070312 224.449219 310.972656 223.035156 309.9375 C 221.617188 308.90625 220.160156 307.9375 218.65625 307.03125 C 217.15625 306.128906 215.617188 305.292969 214.039062 304.527344 C 212.464844 303.761719 210.859375 303.066406 209.21875 302.441406 C 207.582031 301.820312 205.921875 301.269531 204.234375 300.796875 C 202.546875 300.320312 200.84375 299.921875 199.121094 299.601562 C 197.402344 299.277344 195.667969 299.03125 193.925781 298.863281 C 192.179688 298.695312 190.433594 298.605469 188.683594 298.59375 Z M 188.683594 298.59375 " fill-opacity="1" fill-rule="nonzero"/></g><path fill="#ffffff" d="M 193.011719 434.367188 L 198.230469 434.367188 L 199.976562 429.429688 L 194.761719 429.429688 Z M 193.011719 434.367188 " fill-opacity="1" fill-rule="nonzero"/><g clip-path="url(#6809eaff0d)"><path fill="#ff9900" d="M 450.65625 272.210938 C 392.625 272.210938 345.582031 319.253906 345.582031 377.285156 C 345.582031 435.316406 392.625 482.359375 450.65625 482.359375 C 508.6875 482.359375 555.730469 435.316406 555.730469 377.285156 C 555.730469 319.253906 508.6875 272.210938 450.65625 272.210938 " fill-opacity="1" fill-rule="nonzero"/></g><path fill="#ffffff" d="M 391.785156 431.679688 L 386.871094 431.679688 L 386.871094 436.589844 L 391.785156 436.589844 L 391.785156 431.679688 " fill-opacity="1" fill-rule="nonzero"/><path fill="#ffffff" d="M 401.605469 431.679688 L 396.695312 431.679688 L 396.695312 436.589844 L 401.605469 436.589844 L 401.605469 431.679688 " fill-opacity="1" fill-rule="nonzero"/><path fill="#ffffff" d="M 411.429688 431.679688 L 406.515625 431.679688 L 406.515625 436.589844 L 411.429688 436.589844 L 411.429688 431.679688 " fill-opacity="1" fill-rule="nonzero"/><path fill="#ffffff" d="M 470.363281 431.679688 L 465.453125 431.679688 L 465.453125 436.589844 L 470.363281 436.589844 L 470.363281 431.679688 " fill-opacity="1" fill-rule="nonzero"/><path fill="#ffffff" d="M 480.183594 431.679688 L 475.273438 431.679688 L 475.273438 436.589844 L 480.183594 436.589844 L 480.183594 431.679688 " fill-opacity="1" fill-rule="nonzero"/><path fill="#ffffff" d="M 490.007812 431.679688 L 485.097656 431.679688 L 485.097656 436.589844 L 490.007812 436.589844 L 490.007812 431.679688 " fill-opacity="1" fill-rule="nonzero"/><path fill="#ffffff" d="M 509.652344 431.679688 L 504.742188 431.679688 L 504.742188 436.589844 L 509.652344 436.589844 L 509.652344 431.679688 " fill-opacity="1" fill-rule="nonzero"/><g clip-path="url(#08bdddad2a)"><path fill="#ffffff" d="M 517.019531 421.859375 L 499.828125 421.859375 L 499.828125 416.945312 L 517.019531 416.945312 C 518.371094 416.945312 519.472656 418.050781 519.472656 419.402344 C 519.472656 420.753906 518.371094 421.859375 517.019531 421.859375 Z M 514.5625 441.503906 L 499.828125 441.503906 L 499.828125 426.769531 L 514.5625 426.769531 Z M 499.828125 407.125 L 514.5625 407.125 L 514.5625 412.035156 L 499.828125 412.035156 Z M 494.917969 421.859375 L 460.539062 421.859375 L 460.539062 406.105469 L 494.917969 386.769531 Z M 494.917969 441.503906 L 460.539062 441.503906 L 460.539062 426.769531 L 494.917969 426.769531 Z M 459.320312 380.449219 C 458.574219 380.007812 457.644531 380.007812 456.886719 380.429688 L 451.675781 383.355469 L 452.433594 360.46875 L 468.644531 360.46875 L 469.804688 395.257812 L 460.539062 400.46875 L 460.539062 382.566406 C 460.539062 381.695312 460.078125 380.890625 459.320312 380.449219 Z M 455.628906 404.667969 L 455.628906 414.492188 L 421.25 414.492188 L 421.25 406.105469 L 455.628906 386.769531 Z M 455.628906 441.503906 L 445.804688 441.503906 L 445.804688 431.679688 C 445.804688 430.328125 444.703125 429.222656 443.351562 429.222656 L 433.527344 429.222656 C 432.175781 429.222656 431.074219 430.328125 431.074219 431.679688 L 431.074219 441.503906 L 421.25 441.503906 L 421.25 419.402344 L 455.628906 419.402344 Z M 440.894531 441.503906 L 435.984375 441.503906 L 435.984375 434.136719 L 440.894531 434.136719 Z M 420.03125 380.449219 C 419.285156 380.007812 418.355469 380.007812 417.597656 380.429688 L 409.882812 384.765625 L 410.691406 360.46875 L 426.902344 360.46875 L 428.097656 396.609375 L 421.25 400.46875 L 421.25 382.566406 C 421.25 381.695312 420.789062 380.890625 420.03125 380.449219 Z M 416.339844 404.667969 L 416.339844 421.859375 L 381.960938 421.859375 L 381.960938 406.105469 L 416.339844 386.769531 Z M 416.339844 441.503906 L 381.960938 441.503906 L 381.960938 426.769531 L 416.339844 426.769531 Z M 411.023438 350.644531 L 426.566406 350.644531 L 426.632812 352.410156 L 426.738281 355.554688 L 410.863281 355.554688 Z M 411.351562 340.824219 L 426.238281 340.824219 L 426.402344 345.734375 L 411.1875 345.734375 Z M 452.75 351.117188 L 452.769531 350.644531 L 468.308594 350.644531 L 468.347656 351.757812 L 468.484375 355.554688 L 452.597656 355.554688 Z M 453.097656 340.824219 L 467.984375 340.824219 L 468.148438 345.734375 L 452.933594 345.734375 Z M 519.472656 412.484375 L 519.472656 404.667969 C 519.472656 403.316406 518.371094 402.210938 517.019531 402.210938 L 499.828125 402.210938 L 499.828125 382.566406 C 499.828125 381.695312 499.371094 380.890625 498.613281 380.449219 C 497.863281 380.007812 496.933594 380.007812 496.175781 380.429688 L 474.621094 392.542969 L 472.816406 338.289062 C 472.769531 336.957031 471.6875 335.910156 470.363281 335.910156 L 450.71875 335.910156 C 449.394531 335.910156 448.308594 336.957031 448.261719 338.289062 L 446.667969 386.175781 L 432.925781 393.90625 L 431.074219 338.289062 C 431.023438 336.957031 429.941406 335.910156 428.617188 335.910156 L 408.972656 335.910156 C 407.648438 335.910156 406.566406 336.957031 406.515625 338.289062 L 405.863281 357.933594 L 404.875 387.574219 L 378.304688 402.53125 C 377.53125 402.960938 377.050781 403.785156 377.050781 404.667969 L 377.050781 443.957031 C 377.050781 445.308594 378.152344 446.414062 379.503906 446.414062 L 517.019531 446.414062 C 518.371094 446.414062 519.472656 445.308594 519.472656 443.957031 L 519.472656 426.316406 C 522.324219 425.300781 524.386719 422.597656 524.386719 419.402344 C 524.386719 416.207031 522.324219 413.503906 519.472656 412.484375 " fill-opacity="1" fill-rule="nonzero"/></g><g clip-path="url(#358fa539f3)"><path fill="#ffffff" d="M 453.171875 321.179688 C 453.171875 317.109375 456.472656 313.8125 460.539062 313.8125 L 467.90625 313.8125 C 469.257812 313.8125 470.363281 312.707031 470.363281 311.355469 C 470.363281 307.289062 473.664062 303.988281 477.730469 303.988281 L 497.375 303.988281 L 497.375 308.898438 C 497.375 312.96875 494.074219 316.265625 490.007812 316.265625 L 482.640625 316.265625 C 481.289062 316.265625 480.183594 317.371094 480.183594 318.722656 C 480.183594 322.789062 476.886719 326.089844 472.816406 326.089844 L 453.171875 326.089844 Z M 450.71875 331 L 472.816406 331 C 478.746094 331 483.707031 326.78125 484.847656 321.179688 L 490.007812 321.179688 C 496.78125 321.179688 502.285156 315.671875 502.285156 308.898438 L 502.285156 301.535156 C 502.285156 300.179688 501.183594 299.078125 499.828125 299.078125 L 477.730469 299.078125 C 471.800781 299.078125 466.84375 303.296875 465.699219 308.898438 L 460.539062 308.898438 C 453.769531 308.898438 448.261719 314.40625 448.261719 321.179688 L 448.261719 328.546875 C 448.261719 329.898438 449.367188 331 450.71875 331 " fill-opacity="1" fill-rule="nonzero"/></g><g clip-path="url(#a9f6a28d34)"><path fill="#ffffff" d="M 411.429688 323.632812 C 411.429688 319.566406 414.726562 316.265625 418.796875 316.265625 C 420.148438 316.265625 421.25 315.164062 421.25 313.8125 L 421.25 311.355469 C 421.25 307.289062 424.550781 303.988281 428.617188 303.988281 L 440.894531 303.988281 L 440.894531 306.445312 C 440.894531 310.511719 437.59375 313.8125 433.527344 313.8125 C 432.175781 313.8125 431.074219 314.914062 431.074219 316.265625 L 431.074219 318.722656 C 431.074219 322.789062 427.773438 326.089844 423.707031 326.089844 L 411.429688 326.089844 Z M 408.972656 331 L 423.707031 331 C 430.476562 331 435.984375 325.496094 435.984375 318.722656 L 435.984375 318.472656 C 441.585938 317.332031 445.804688 312.371094 445.804688 306.445312 L 445.804688 301.535156 C 445.804688 300.179688 444.703125 299.078125 443.351562 299.078125 L 428.617188 299.078125 C 421.84375 299.078125 416.339844 304.582031 416.339844 311.355469 L 416.339844 311.605469 C 410.738281 312.746094 406.515625 317.707031 406.515625 323.632812 L 406.515625 328.546875 C 406.515625 329.898438 407.621094 331 408.972656 331 " fill-opacity="1" fill-rule="nonzero"/></g><g clip-path="url(#fb7018b23c)"><path fill="#ff9900" d="M 719.902344 272.210938 C 661.703125 272.210938 614.527344 319.390625 614.527344 377.585938 C 614.527344 435.78125 661.703125 482.960938 719.902344 482.960938 C 778.097656 482.960938 825.277344 435.78125 825.277344 377.585938 C 825.277344 319.390625 778.097656 272.210938 719.902344 272.210938 " fill-opacity="1" fill-rule="nonzero"/></g><path fill="#ffffff" d="M 703.039062 404.296875 L 736.097656 404.296875 L 731.5625 399.105469 L 707.449219 399.105469 Z M 703.039062 404.296875 " fill-opacity="1" fill-rule="nonzero"/><g clip-path="url(#6ee2d1bad9)"><path fill="#ffffff" d="M 758.527344 399.105469 L 751.523438 399.105469 C 752.171875 400.792969 752.171875 402.609375 751.523438 404.296875 L 758.394531 404.296875 L 758.394531 409.488281 L 680.871094 409.488281 L 680.871094 404.296875 L 687.742188 404.296875 C 687.09375 402.609375 687.09375 400.792969 687.742188 399.105469 L 680.742188 399.105469 C 678.019531 399.105469 675.6875 401.441406 675.6875 404.296875 L 675.6875 409.488281 C 675.6875 411.566406 676.851562 413.382812 678.539062 414.160156 L 683.984375 446.214844 C 684.632812 450.367188 688.261719 453.613281 692.410156 453.613281 L 746.597656 453.613281 C 750.746094 453.613281 754.507812 450.367188 755.023438 446.34375 L 760.46875 414.160156 C 762.15625 413.382812 763.320312 411.566406 763.320312 409.488281 L 763.320312 404.296875 C 763.582031 401.441406 761.246094 399.105469 758.527344 399.105469 Z M 727.414062 448.421875 L 728.191406 440.636719 L 735.96875 440.636719 L 735.191406 448.421875 Z M 716.652344 448.421875 L 715.875 440.636719 L 723.132812 440.636719 L 722.355469 448.421875 Z M 703.6875 448.421875 L 702.910156 440.636719 L 710.6875 440.636719 L 711.46875 448.421875 Z M 695.003906 414.679688 L 695.78125 422.464844 L 685.28125 422.464844 L 683.984375 414.679688 Z M 707.964844 414.679688 L 708.746094 422.464844 L 700.964844 422.464844 L 700.1875 414.679688 Z M 738.5625 414.679688 L 737.785156 422.464844 L 730.003906 422.464844 L 730.78125 414.679688 Z M 714.449219 427.65625 L 724.300781 427.65625 L 723.523438 435.445312 L 715.226562 435.445312 Z M 701.613281 427.65625 L 709.394531 427.65625 L 710.171875 435.445312 L 702.390625 435.445312 Z M 728.707031 435.445312 L 729.488281 427.65625 L 737.265625 427.65625 L 736.488281 435.445312 Z M 742.449219 427.65625 L 753.082031 427.65625 L 751.785156 435.445312 L 741.671875 435.445312 Z M 724.949219 422.464844 L 713.929688 422.464844 L 713.152344 414.679688 L 725.726562 414.679688 Z M 696.429688 427.65625 L 697.207031 435.445312 L 687.484375 435.445312 L 686.1875 427.65625 Z M 753.988281 422.464844 L 742.96875 422.464844 L 743.746094 414.679688 L 755.285156 414.679688 Z M 689.167969 445.4375 L 688.390625 440.636719 L 697.726562 440.636719 L 698.503906 448.421875 L 692.539062 448.421875 C 690.984375 448.421875 689.429688 446.992188 689.167969 445.4375 Z M 746.726562 448.421875 L 740.375 448.421875 L 741.152344 440.636719 L 751.007812 440.636719 L 750.230469 445.4375 C 749.839844 446.992188 748.285156 448.421875 746.726562 448.421875 Z M 746.726562 448.421875 " fill-opacity="1" fill-rule="nonzero"/></g><g clip-path="url(#e91e8e236d)"><path fill="#ffffff" d="M 778.359375 380.679688 C 777.453125 369 763.191406 363.9375 762.675781 363.679688 L 738.042969 353.816406 L 738.042969 348.625 C 742.449219 342.527344 744.136719 334.609375 745.042969 327.34375 C 745.171875 326.042969 745.433594 324.746094 745.5625 323.449219 C 746.726562 315.015625 748.023438 306.1875 742.0625 298.402344 C 736.875 291.785156 730.523438 288.019531 722.875 287.242188 C 722.226562 287.113281 717.558594 287.113281 716.523438 287.242188 C 709.003906 288.019531 702.652344 291.785156 697.59375 298.273438 C 691.632812 306.058594 692.800781 314.753906 694.09375 323.320312 C 694.226562 324.617188 694.484375 325.914062 694.613281 327.210938 C 695.390625 333.832031 697.078125 341.746094 701.355469 347.976562 L 701.355469 353.554688 L 676.984375 363.289062 C 676.335938 363.550781 662.074219 368.609375 661.167969 380.289062 L 658.964844 425.710938 C 658.832031 427.136719 660 428.304688 661.425781 428.4375 C 662.851562 428.566406 664.019531 427.398438 664.148438 425.96875 L 666.351562 380.550781 C 667 372.375 678.539062 368.089844 678.796875 368.089844 L 701.355469 359.007812 L 701.355469 362.382812 C 701.355469 363.03125 701.613281 363.550781 701.875 364.066406 L 708.875 372.761719 L 712.246094 368.738281 L 706.410156 361.472656 L 706.410156 353.6875 C 709.394531 355.890625 713.152344 357.578125 717.820312 358.226562 C 719.246094 358.488281 720.542969 358.359375 721.96875 358.226562 C 726.375 357.578125 730.003906 356.023438 732.855469 353.945312 L 732.855469 361.992188 L 726.503906 369.777344 L 730.003906 373.671875 L 737.523438 364.328125 C 737.914062 363.808594 738.042969 363.289062 738.042969 362.640625 L 738.042969 359.265625 L 760.859375 368.351562 C 760.988281 368.351562 772.527344 372.632812 773.175781 380.808594 L 775.378906 426.230469 C 775.507812 427.65625 776.546875 428.695312 777.972656 428.695312 C 777.972656 428.695312 778.101562 428.695312 778.101562 428.695312 C 779.527344 428.566406 780.5625 427.398438 780.5625 425.96875 Z M 701.484375 301.90625 C 705.761719 296.457031 710.820312 293.472656 716.910156 292.824219 C 717.558594 292.824219 721.707031 292.824219 722.226562 292.824219 C 728.449219 293.472656 733.503906 296.457031 737.785156 301.90625 C 739.859375 304.632812 740.894531 307.617188 741.152344 310.859375 C 740.894531 310.859375 740.765625 310.992188 740.503906 311.121094 C 732.339844 315.792969 727.929688 309.5625 727.414062 308.785156 C 727.023438 308.136719 726.246094 307.617188 725.339844 307.617188 C 724.558594 307.617188 723.652344 307.875 723.132812 308.65625 C 712.246094 322.539062 698.113281 317.21875 698.113281 317.21875 C 697.726562 311.511719 697.984375 306.320312 701.484375 301.90625 Z M 721.058594 353.167969 C 720.023438 353.296875 719.375 353.296875 718.46875 353.167969 C 707.449219 351.480469 701.613281 343.433594 699.539062 326.953125 C 699.410156 325.65625 699.023438 322.800781 699.023438 322.800781 C 700.578125 323.191406 702.652344 323.449219 705.113281 323.449219 C 710.820312 323.449219 718.46875 321.761719 725.339844 314.234375 C 728.578125 317.21875 734.152344 319.816406 741.152344 316.699219 C 741.023438 318.777344 739.988281 325.65625 739.859375 326.953125 C 737.652344 343.695312 732.207031 351.351562 721.058594 353.167969 Z M 721.058594 353.167969 " fill-opacity="1" fill-rule="nonzero"/></g><path fill="#ffffff" d="M 745.820312 403.648438 C 746.859375 402.742188 746.988281 401.054688 746.082031 400.015625 L 720.929688 371.464844 C 720.410156 370.816406 719.632812 370.558594 718.984375 370.558594 C 718.207031 370.558594 717.558594 370.945312 717.042969 371.464844 L 693.1875 400.015625 C 692.28125 401.054688 692.410156 402.742188 693.445312 403.648438 C 694.484375 404.558594 696.167969 404.429688 697.078125 403.390625 L 718.984375 377.046875 L 742.191406 403.390625 C 743.226562 404.429688 744.785156 404.558594 745.820312 403.648438 Z M 745.820312 403.648438 " fill-opacity="1" fill-rule="nonzero"/><path fill="#ffffff" d="M 759.691406 389.375 C 761.117188 389.375 762.285156 388.207031 762.285156 386.777344 C 762.285156 385.351562 761.117188 384.183594 759.691406 384.183594 L 754.507812 384.183594 C 753.082031 384.183594 751.914062 385.351562 751.914062 386.777344 C 751.914062 388.207031 753.082031 389.375 754.507812 389.375 Z M 759.691406 389.375 " fill-opacity="1" fill-rule="nonzero"/><path fill="#ffffff" d="M 683.464844 388.726562 C 684.890625 388.726562 686.058594 387.558594 686.058594 386.128906 C 686.058594 384.703125 684.890625 383.535156 683.464844 383.535156 L 678.28125 383.535156 C 676.851562 383.535156 675.6875 384.703125 675.6875 386.128906 C 675.6875 387.558594 676.851562 388.726562 678.28125 388.726562 Z M 683.464844 388.726562 " fill-opacity="1" fill-rule="nonzero"/><g clip-path="url(#b4db0d1135)"><path fill="#ff9900" d="M 988.609375 272.210938 C 930.542969 272.210938 883.46875 319.28125 883.46875 377.347656 C 883.46875 435.414062 930.542969 482.484375 988.609375 482.484375 C 1046.671875 482.484375 1093.746094 435.414062 1093.746094 377.347656 C 1093.746094 319.28125 1046.671875 272.210938 988.609375 272.210938 " fill-opacity="1" fill-rule="nonzero"/></g><g clip-path="url(#851708b658)"><path fill="#ffffff" d="M 995.066406 458.769531 L 995.066406 450.652344 C 995.0625 450.054688 994.964844 449.472656 994.769531 448.90625 C 994.578125 448.339844 994.296875 447.820312 993.929688 447.347656 C 993.5625 446.875 993.125 446.476562 992.625 446.148438 C 992.125 445.820312 991.585938 445.582031 991.007812 445.433594 L 991.007812 438.476562 L 993.710938 438.476562 C 994.066406 438.476562 994.417969 438.441406 994.765625 438.371094 C 995.117188 438.304688 995.453125 438.199219 995.78125 438.066406 C 996.109375 437.929688 996.421875 437.761719 996.71875 437.566406 C 997.015625 437.367188 997.285156 437.144531 997.539062 436.890625 C 997.789062 436.640625 998.015625 436.367188 998.210938 436.070312 C 998.410156 435.777344 998.574219 435.464844 998.710938 435.136719 C 998.847656 434.808594 998.949219 434.46875 999.019531 434.121094 C 999.089844 433.773438 999.125 433.421875 999.125 433.066406 L 999.125 414.125 C 999.125 413.769531 999.089844 413.417969 999.019531 413.070312 C 998.949219 412.722656 998.847656 412.382812 998.710938 412.054688 C 998.574219 411.726562 998.410156 411.414062 998.210938 411.117188 C 998.015625 410.824219 997.789062 410.550781 997.539062 410.296875 C 997.285156 410.046875 997.015625 409.824219 996.71875 409.625 C 996.421875 409.429688 996.109375 409.261719 995.78125 409.125 C 995.453125 408.988281 995.117188 408.886719 994.765625 408.816406 C 994.417969 408.75 994.066406 408.714844 993.710938 408.714844 L 992.359375 408.714844 L 992.359375 391.125 C 994.035156 391.160156 995.703125 391.070312 997.363281 390.859375 L 1038.6875 377.328125 C 1039.230469 377.152344 1039.730469 376.894531 1040.191406 376.558594 C 1040.652344 376.222656 1041.050781 375.824219 1041.386719 375.363281 C 1041.71875 374.898438 1041.976562 374.398438 1042.152344 373.855469 C 1042.328125 373.3125 1042.414062 372.757812 1042.414062 372.1875 L 1042.414062 364.070312 C 1042.414062 363.714844 1042.378906 363.363281 1042.3125 363.011719 C 1042.242188 362.664062 1042.140625 362.328125 1042.003906 362 C 1041.867188 361.667969 1041.699219 361.359375 1041.503906 361.0625 C 1041.304688 360.765625 1041.082031 360.492188 1040.828125 360.242188 C 1040.578125 359.992188 1040.304688 359.765625 1040.011719 359.570312 C 1039.714844 359.371094 1039.402344 359.207031 1039.074219 359.070312 C 1038.746094 358.933594 1038.40625 358.832031 1038.058594 358.761719 C 1037.710938 358.691406 1037.359375 358.65625 1037.003906 358.65625 L 989.652344 358.65625 L 989.652344 334.304688 L 1037.003906 334.304688 C 1037.359375 334.304688 1037.710938 334.269531 1038.058594 334.203125 C 1038.40625 334.132812 1038.746094 334.03125 1039.074219 333.894531 C 1039.402344 333.757812 1039.714844 333.589844 1040.011719 333.394531 C 1040.304688 333.195312 1040.578125 332.972656 1040.828125 332.722656 C 1041.082031 332.46875 1041.304688 332.195312 1041.503906 331.902344 C 1041.699219 331.605469 1041.867188 331.292969 1042.003906 330.964844 C 1042.140625 330.636719 1042.242188 330.296875 1042.3125 329.949219 C 1042.378906 329.601562 1042.414062 329.25 1042.414062 328.894531 L 1042.414062 320.777344 C 1042.414062 320.207031 1042.328125 319.652344 1042.152344 319.109375 C 1041.976562 318.566406 1041.71875 318.0625 1041.386719 317.601562 C 1041.050781 317.140625 1040.652344 316.742188 1040.191406 316.40625 C 1039.730469 316.070312 1039.230469 315.8125 1038.6875 315.632812 C 1038.6875 315.632812 997.378906 302.109375 997.363281 302.105469 C 995.703125 301.875 994.035156 301.785156 992.359375 301.835938 L 992.359375 296.425781 C 992.359375 296.070312 992.324219 295.71875 992.253906 295.371094 C 992.1875 295.019531 992.082031 294.683594 991.945312 294.355469 C 991.8125 294.027344 991.644531 293.714844 991.445312 293.417969 C 991.25 293.125 991.023438 292.851562 990.773438 292.597656 C 990.523438 292.347656 990.25 292.125 989.953125 291.925781 C 989.660156 291.730469 989.347656 291.5625 989.019531 291.425781 C 988.691406 291.289062 988.351562 291.1875 988.003906 291.117188 C 987.65625 291.050781 987.304688 291.015625 986.949219 291.015625 L 976.125 291.015625 C 975.769531 291.015625 975.417969 291.050781 975.070312 291.117188 C 974.71875 291.1875 974.382812 291.289062 974.054688 291.425781 C 973.726562 291.5625 973.414062 291.730469 973.117188 291.925781 C 972.824219 292.125 972.550781 292.347656 972.296875 292.597656 C 972.046875 292.851562 971.824219 293.125 971.625 293.417969 C 971.425781 293.714844 971.261719 294.027344 971.125 294.355469 C 970.988281 294.683594 970.886719 295.019531 970.816406 295.371094 C 970.746094 295.71875 970.714844 296.070312 970.714844 296.425781 L 970.714844 301.835938 L 961.242188 301.835938 C 960.886719 301.835938 960.535156 301.871094 960.1875 301.941406 C 959.839844 302.011719 959.5 302.113281 959.171875 302.25 C 958.84375 302.386719 958.53125 302.550781 958.238281 302.75 C 957.941406 302.945312 957.667969 303.171875 957.417969 303.421875 C 957.164062 303.671875 956.941406 303.945312 956.742188 304.242188 C 956.546875 304.539062 956.378906 304.847656 956.242188 305.175781 C 956.109375 305.507812 956.003906 305.84375 955.9375 306.191406 C 955.867188 306.542969 955.832031 306.894531 955.832031 307.25 L 955.832031 328.894531 C 955.832031 329.25 955.867188 329.601562 955.9375 329.949219 C 956.003906 330.296875 956.109375 330.636719 956.242188 330.964844 C 956.378906 331.292969 956.546875 331.605469 956.742188 331.902344 C 956.941406 332.195312 957.164062 332.46875 957.417969 332.722656 C 957.667969 332.972656 957.941406 333.195312 958.238281 333.394531 C 958.53125 333.589844 958.84375 333.757812 959.171875 333.894531 C 959.5 334.03125 959.839844 334.132812 960.1875 334.203125 C 960.535156 334.269531 960.886719 334.304688 961.242188 334.304688 L 973.417969 334.304688 L 973.417969 358.65625 L 961.242188 358.65625 C 960.886719 358.65625 960.535156 358.691406 960.1875 358.761719 C 959.839844 358.832031 959.5 358.933594 959.171875 359.070312 C 958.84375 359.207031 958.53125 359.371094 958.238281 359.570312 C 957.941406 359.765625 957.667969 359.992188 957.417969 360.242188 C 957.164062 360.492188 956.941406 360.765625 956.742188 361.0625 C 956.546875 361.359375 956.378906 361.667969 956.242188 362 C 956.109375 362.328125 956.003906 362.664062 955.9375 363.011719 C 955.867188 363.363281 955.832031 363.714844 955.832031 364.070312 L 955.832031 385.714844 C 955.832031 386.070312 955.867188 386.421875 955.9375 386.769531 C 956.003906 387.117188 956.109375 387.457031 956.242188 387.785156 C 956.378906 388.113281 956.546875 388.425781 956.742188 388.722656 C 956.941406 389.015625 957.164062 389.289062 957.417969 389.542969 C 957.667969 389.792969 957.941406 390.015625 958.238281 390.214844 C 958.53125 390.410156 958.84375 390.578125 959.171875 390.714844 C 959.5 390.851562 959.839844 390.953125 960.1875 391.023438 C 960.535156 391.089844 960.886719 391.125 961.242188 391.125 L 970.714844 391.125 L 970.714844 408.714844 L 969.359375 408.714844 C 969.003906 408.714844 968.652344 408.75 968.304688 408.816406 C 967.957031 408.886719 967.617188 408.988281 967.289062 409.125 C 966.960938 409.261719 966.648438 409.429688 966.355469 409.625 C 966.058594 409.824219 965.785156 410.046875 965.535156 410.296875 C 965.28125 410.550781 965.058594 410.824219 964.859375 411.117188 C 964.664062 411.414062 964.496094 411.726562 964.359375 412.054688 C 964.226562 412.382812 964.121094 412.722656 964.054688 413.070312 C 963.984375 413.417969 963.949219 413.769531 963.949219 414.125 L 963.949219 433.066406 C 963.949219 433.421875 963.984375 433.773438 964.054688 434.121094 C 964.121094 434.46875 964.226562 434.808594 964.359375 435.136719 C 964.496094 435.464844 964.664062 435.777344 964.859375 436.070312 C 965.058594 436.367188 965.28125 436.640625 965.535156 436.890625 C 965.785156 437.144531 966.058594 437.367188 966.355469 437.566406 C 966.648438 437.761719 966.960938 437.929688 967.289062 438.066406 C 967.617188 438.199219 967.957031 438.304688 968.304688 438.371094 C 968.652344 438.441406 969.003906 438.476562 969.359375 438.476562 L 972.066406 438.476562 L 972.066406 445.433594 C 971.484375 445.582031 970.945312 445.820312 970.445312 446.148438 C 969.945312 446.476562 969.511719 446.875 969.144531 447.347656 C 968.777344 447.820312 968.496094 448.339844 968.300781 448.90625 C 968.105469 449.472656 968.007812 450.054688 968.007812 450.652344 L 968.007812 458.769531 C 968.007812 459.125 968.042969 459.476562 968.113281 459.824219 C 968.179688 460.171875 968.285156 460.511719 968.417969 460.839844 C 968.554688 461.167969 968.722656 461.480469 968.917969 461.777344 C 969.117188 462.070312 969.339844 462.34375 969.59375 462.597656 C 969.84375 462.847656 970.117188 463.070312 970.414062 463.269531 C 970.707031 463.464844 971.019531 463.632812 971.347656 463.769531 C 971.675781 463.90625 972.015625 464.007812 972.363281 464.078125 C 972.710938 464.144531 973.0625 464.179688 973.417969 464.179688 L 989.652344 464.179688 C 990.007812 464.179688 990.359375 464.144531 990.707031 464.078125 C 991.058594 464.007812 991.394531 463.90625 991.722656 463.769531 C 992.050781 463.632812 992.363281 463.464844 992.660156 463.269531 C 992.957031 463.070312 993.226562 462.847656 993.480469 462.597656 C 993.730469 462.34375 993.957031 462.070312 994.152344 461.777344 C 994.351562 461.480469 994.515625 461.167969 994.652344 460.839844 C 994.789062 460.511719 994.890625 460.171875 994.960938 459.824219 C 995.03125 459.476562 995.066406 459.125 995.066406 458.769531 Z M 976.125 301.835938 L 976.125 296.425781 L 986.949219 296.425781 L 986.949219 301.835938 Z M 961.242188 328.894531 L 961.242188 307.25 L 993.710938 307.25 L 993.710938 328.894531 Z M 999.125 328.894531 L 999.125 308.375 L 1037.003906 320.777344 L 1037.003906 328.894531 Z M 978.832031 358.65625 L 978.832031 334.304688 L 984.242188 334.304688 L 984.242188 358.65625 Z M 1037.003906 364.070312 L 1037.003906 372.1875 L 999.125 384.585938 L 999.125 364.070312 Z M 961.242188 385.714844 L 961.242188 364.070312 L 993.710938 364.070312 L 993.710938 385.714844 Z M 976.125 408.714844 L 976.125 391.125 L 986.949219 391.125 L 986.949219 408.714844 Z M 985.59375 433.066406 L 969.359375 433.066406 L 969.359375 414.125 L 993.710938 414.125 L 993.710938 433.066406 Z M 977.476562 445.242188 L 977.476562 438.476562 L 985.59375 438.476562 L 985.59375 445.242188 Z M 973.417969 458.769531 L 973.417969 450.652344 L 989.652344 450.652344 L 989.652344 458.769531 Z M 973.417969 458.769531 " fill-opacity="1" fill-rule="nonzero"/></g><g clip-path="url(#a094afe173)"><path fill="#ff9900" d="M 1251.210938 272.210938 C 1193.179688 272.210938 1146.136719 319.253906 1146.136719 377.285156 C 1146.136719 435.316406 1193.179688 482.359375 1251.210938 482.359375 C 1309.238281 482.359375 1356.28125 435.316406 1356.28125 377.285156 C 1356.28125 319.253906 1309.238281 272.210938 1251.210938 272.210938 " fill-opacity="1" fill-rule="nonzero"/></g><path fill="#ffffff" d="M 1239.699219 416.25 L 1219.742188 442.746094 L 1219.621094 427.488281 C 1219.621094 426.777344 1219.269531 426.1875 1218.675781 425.714844 C 1218.203125 425.359375 1217.734375 425.242188 1217.261719 425.242188 C 1217.140625 425.242188 1216.90625 425.242188 1216.789062 425.242188 L 1199.425781 429.023438 L 1216.316406 410.101562 C 1215.605469 408.324219 1215.132812 406.433594 1214.78125 404.777344 L 1193.523438 428.789062 C 1192.578125 429.851562 1192.460938 431.390625 1193.167969 432.691406 C 1193.875 433.992188 1195.292969 434.585938 1196.710938 434.464844 C 1196.828125 434.464844 1196.828125 434.464844 1196.945312 434.464844 L 1215.015625 430.445312 L 1215.253906 446.414062 C 1215.371094 447.832031 1216.316406 449.132812 1217.734375 449.605469 C 1218.085938 449.726562 1218.441406 449.726562 1218.796875 449.726562 C 1219.859375 449.726562 1220.921875 449.253906 1221.628906 448.304688 L 1243.242188 419.445312 C 1241.824219 418.496094 1240.644531 417.316406 1239.699219 416.25 Z M 1239.699219 416.25 " fill-opacity="1" fill-rule="nonzero"/><path fill="#ffffff" d="M 1297.097656 419.679688 L 1290.835938 419.679688 L 1299.222656 429.144531 L 1281.859375 425.359375 C 1281.152344 425.242188 1280.445312 425.359375 1279.851562 425.832031 C 1279.261719 426.304688 1278.910156 426.894531 1278.910156 427.605469 L 1278.789062 442.746094 L 1259.304688 416.84375 C 1258.359375 418.023438 1257.179688 419.089844 1255.878906 420.035156 L 1277.136719 448.425781 C 1277.84375 449.253906 1278.789062 449.726562 1279.851562 449.726562 C 1280.207031 449.726562 1280.5625 449.726562 1280.917969 449.605469 C 1282.332031 449.132812 1283.277344 447.949219 1283.394531 446.414062 L 1283.632812 430.5625 L 1301.703125 434.585938 C 1301.820312 434.585938 1301.820312 434.585938 1301.9375 434.585938 C 1303.355469 434.820312 1304.773438 434.113281 1305.480469 432.808594 C 1306.191406 431.507812 1306.070312 429.972656 1305.125 428.789062 Z M 1297.097656 419.679688 " fill-opacity="1" fill-rule="nonzero"/><path fill="#ffffff" d="M 1249.265625 323.160156 C 1230.371094 323.160156 1215.015625 338.539062 1215.015625 357.460938 C 1215.015625 376.386719 1230.371094 391.765625 1249.265625 391.765625 C 1268.160156 391.765625 1283.515625 376.386719 1283.515625 357.460938 C 1283.515625 338.539062 1268.160156 323.160156 1249.265625 323.160156 Z M 1249.265625 387.035156 C 1232.96875 387.035156 1219.742188 373.785156 1219.742188 357.460938 C 1219.742188 341.140625 1232.96875 327.890625 1249.265625 327.890625 C 1265.5625 327.890625 1278.789062 341.140625 1278.789062 357.460938 C 1278.789062 373.785156 1265.5625 387.035156 1249.265625 387.035156 Z M 1249.265625 387.035156 " fill-opacity="1" fill-rule="nonzero"/><path fill="#ffffff" d="M 1264.972656 351.785156 L 1255.523438 350.484375 L 1251.390625 342.203125 C 1251.035156 341.375 1250.210938 340.902344 1249.265625 340.902344 C 1248.320312 340.902344 1247.613281 341.375 1247.140625 342.203125 L 1243.007812 350.484375 L 1233.558594 351.785156 C 1232.613281 351.902344 1231.90625 352.496094 1231.667969 353.441406 C 1231.433594 354.269531 1231.667969 355.214844 1232.257812 355.925781 L 1238.992188 362.3125 L 1237.457031 371.300781 C 1237.335938 372.128906 1237.691406 373.078125 1238.398438 373.667969 C 1239.109375 374.257812 1240.054688 374.257812 1240.878906 373.90625 L 1249.265625 369.644531 L 1257.652344 373.90625 C 1258.003906 374.023438 1258.359375 374.140625 1258.714844 374.140625 C 1259.1875 374.140625 1259.660156 374.023438 1260.128906 373.667969 C 1260.839844 373.078125 1261.195312 372.25 1261.074219 371.300781 L 1259.539062 362.195312 L 1266.273438 355.808594 C 1266.980469 355.214844 1267.214844 354.269531 1266.863281 353.324219 C 1266.625 352.496094 1265.800781 351.902344 1264.972656 351.785156 Z M 1255.289062 359.710938 C 1254.699219 360.300781 1254.460938 361.011719 1254.578125 361.839844 L 1255.523438 367.398438 L 1250.210938 364.679688 C 1249.855469 364.558594 1249.5 364.441406 1249.148438 364.441406 C 1248.792969 364.441406 1248.4375 364.558594 1248.085938 364.679688 L 1242.769531 367.398438 L 1243.714844 361.839844 C 1243.832031 361.011719 1243.597656 360.300781 1243.007812 359.710938 L 1238.871094 355.808594 L 1244.660156 354.980469 C 1245.367188 354.859375 1246.078125 354.386719 1246.429688 353.675781 L 1249.027344 348.472656 L 1251.628906 353.675781 C 1251.980469 354.386719 1252.691406 354.859375 1253.398438 354.980469 L 1259.1875 355.808594 Z M 1255.289062 359.710938 " fill-opacity="1" fill-rule="nonzero"/><g clip-path="url(#202c6638e2)"><path fill="#ffffff" d="M 1261.3125 406.789062 C 1262.257812 406.550781 1264.144531 407.496094 1265.800781 408.324219 L 1265.800781 403.121094 C 1263.910156 402.292969 1262.019531 401.820312 1260.25 402.175781 C 1257.53125 402.765625 1255.644531 405.367188 1253.753906 407.851562 C 1252.570312 409.390625 1250.800781 411.753906 1249.855469 411.753906 C 1248.910156 411.753906 1247.023438 409.390625 1245.957031 407.851562 C 1244.070312 405.367188 1242.0625 402.882812 1239.34375 402.292969 C 1238.992188 402.175781 1238.519531 402.175781 1238.164062 402.175781 C 1235.800781 402.175781 1233.441406 403.476562 1231.078125 404.660156 C 1229.304688 405.605469 1226.589844 407.023438 1225.761719 406.550781 C 1224.9375 406.195312 1224.347656 403.238281 1223.992188 401.582031 C 1223.402344 398.507812 1222.691406 395.3125 1220.449219 393.539062 C 1218.203125 391.882812 1214.898438 392.003906 1211.710938 392.121094 C 1209.9375 392.238281 1206.75 392.355469 1206.277344 391.648438 C 1205.6875 390.9375 1206.511719 387.980469 1206.867188 386.207031 C 1207.695312 383.25 1208.402344 380.171875 1207.222656 377.691406 C 1206.039062 375.207031 1202.96875 373.90625 1200.015625 372.722656 C 1198.480469 372.011719 1195.410156 370.828125 1195.292969 370 C 1195.058594 369.171875 1197.183594 366.6875 1198.246094 365.386719 C 1200.253906 363.023438 1202.378906 360.539062 1202.378906 357.816406 C 1202.378906 355.097656 1200.253906 352.613281 1198.128906 350.367188 C 1196.945312 349.066406 1194.820312 346.699219 1195.058594 345.871094 C 1195.292969 345.042969 1198.128906 343.742188 1199.78125 343.03125 C 1202.734375 341.730469 1205.6875 340.429688 1206.867188 337.945312 C 1208.046875 335.460938 1207.222656 332.386719 1206.394531 329.429688 C 1205.921875 327.65625 1205.097656 324.699219 1205.6875 323.988281 C 1206.277344 323.160156 1209.464844 323.277344 1211.355469 323.277344 C 1214.425781 323.398438 1217.734375 323.398438 1219.742188 321.742188 C 1221.984375 319.964844 1222.574219 316.773438 1223.164062 313.695312 C 1223.519531 311.921875 1224.109375 308.964844 1224.820312 308.609375 C 1225.644531 308.136719 1228.480469 309.558594 1230.132812 310.386719 C 1232.96875 311.804688 1235.800781 313.222656 1238.519531 312.632812 C 1241.234375 312.042969 1243.125 309.4375 1245.015625 306.953125 C 1245.957031 305.417969 1247.730469 303.050781 1248.675781 303.050781 C 1249.621094 303.050781 1251.507812 305.417969 1252.570312 306.953125 C 1254.460938 309.4375 1256.46875 311.921875 1259.1875 312.515625 C 1261.902344 313.105469 1264.738281 311.566406 1267.453125 310.148438 C 1269.34375 309.203125 1272.058594 307.78125 1272.886719 308.257812 C 1273.710938 308.609375 1274.300781 311.566406 1274.65625 313.34375 C 1275.246094 316.417969 1275.957031 319.613281 1278.199219 321.386719 C 1280.445312 323.042969 1283.75 322.921875 1286.9375 322.804688 C 1288.710938 322.6875 1291.898438 322.570312 1292.371094 323.277344 C 1292.960938 323.988281 1292.136719 326.945312 1291.78125 328.71875 C 1290.953125 331.675781 1290.246094 334.753906 1291.425781 337.234375 C 1292.609375 339.71875 1295.679688 341.019531 1298.632812 342.203125 C 1300.167969 342.914062 1303.238281 344.097656 1303.355469 344.925781 C 1303.589844 345.753906 1301.464844 348.238281 1300.402344 349.539062 C 1298.394531 351.902344 1296.269531 354.386719 1296.269531 357.109375 C 1296.269531 359.828125 1298.394531 362.3125 1300.519531 364.558594 C 1301.703125 365.859375 1303.828125 368.226562 1303.589844 369.054688 C 1303.355469 369.882812 1300.519531 371.183594 1298.867188 371.894531 C 1298.511719 372.011719 1298.160156 372.25 1297.804688 372.367188 C 1298.160156 372.484375 1298.394531 372.601562 1298.75 372.722656 C 1300.167969 373.3125 1301.464844 374.257812 1302.527344 375.441406 C 1305.246094 374.140625 1307.605469 372.722656 1308.199219 370.121094 C 1308.90625 366.925781 1306.425781 364.085938 1304.0625 361.367188 C 1302.765625 359.945312 1300.992188 357.9375 1300.992188 356.988281 C 1300.992188 356.042969 1302.765625 354.03125 1303.945312 352.496094 C 1306.308594 349.773438 1308.667969 346.933594 1307.960938 343.742188 C 1307.132812 340.546875 1303.710938 339.128906 1300.402344 337.710938 C 1298.632812 336.882812 1296.03125 335.933594 1295.679688 334.988281 C 1295.207031 334.160156 1295.914062 331.675781 1296.386719 329.785156 C 1297.214844 326.472656 1298.160156 322.6875 1296.03125 320.085938 C 1294.027344 317.601562 1290.363281 317.835938 1286.703125 317.957031 C 1284.695312 318.074219 1281.859375 318.191406 1281.035156 317.480469 C 1280.207031 316.773438 1279.617188 314.171875 1279.261719 312.277344 C 1278.554688 308.847656 1277.84375 305.300781 1274.894531 303.878906 C 1271.941406 302.460938 1268.632812 304.234375 1265.328125 305.890625 C 1263.554688 306.835938 1261.195312 308.019531 1260.25 307.78125 C 1259.1875 307.546875 1257.53125 305.417969 1256.351562 303.878906 C 1254.226562 301.160156 1251.980469 298.320312 1248.675781 298.320312 C 1245.367188 298.320312 1243.242188 301.277344 1241 304.234375 C 1239.816406 305.773438 1238.28125 307.902344 1237.21875 308.136719 C 1236.15625 308.375 1233.792969 307.191406 1232.023438 306.246094 C 1228.835938 304.589844 1225.410156 302.933594 1222.457031 304.351562 C 1219.503906 305.773438 1218.796875 309.320312 1218.203125 312.871094 C 1217.851562 314.761719 1217.378906 317.363281 1216.550781 318.074219 C 1215.84375 318.664062 1213.125 318.664062 1211.238281 318.546875 C 1207.574219 318.429688 1203.796875 318.429688 1201.789062 321.03125 C 1199.664062 323.632812 1200.726562 327.417969 1201.671875 330.730469 C 1202.144531 332.503906 1202.851562 334.988281 1202.496094 335.816406 C 1202.023438 336.761719 1199.546875 337.828125 1197.773438 338.65625 C 1194.46875 340.074219 1191.160156 341.613281 1190.453125 344.804688 C 1189.742188 348 1192.222656 350.839844 1194.585938 353.558594 C 1195.882812 354.980469 1197.65625 356.988281 1197.65625 357.9375 C 1197.65625 358.882812 1195.882812 360.894531 1194.703125 362.429688 C 1192.339844 365.152344 1189.980469 367.988281 1190.6875 371.183594 C 1191.515625 374.378906 1194.9375 375.796875 1198.246094 377.214844 C 1200.015625 378.042969 1202.617188 378.992188 1202.96875 379.9375 C 1203.441406 380.765625 1202.734375 383.367188 1202.261719 385.140625 C 1201.433594 388.453125 1200.488281 392.238281 1202.617188 394.839844 C 1204.625 397.324219 1208.285156 397.089844 1211.945312 396.96875 C 1213.953125 396.851562 1216.789062 396.734375 1217.613281 397.441406 C 1218.441406 398.035156 1219.03125 400.753906 1219.386719 402.648438 C 1220.09375 406.078125 1220.804688 409.625 1223.753906 411.046875 C 1226.707031 412.464844 1230.015625 410.691406 1233.320312 409.035156 C 1235.09375 408.089844 1237.457031 406.90625 1238.398438 407.144531 C 1239.464844 407.378906 1241.117188 409.507812 1242.296875 411.046875 C 1244.421875 413.886719 1246.667969 416.722656 1249.972656 416.722656 C 1253.28125 416.722656 1255.40625 413.765625 1257.652344 410.808594 C 1258.714844 409.152344 1260.25 407.023438 1261.3125 406.789062 Z M 1261.3125 406.789062 " fill-opacity="1" fill-rule="nonzero"/></g><g clip-path="url(#a4fe7bc51f)"><path fill="#ffffff" d="M 1312.09375 398.390625 C 1312.683594 397.441406 1313.039062 396.261719 1313.039062 394.960938 C 1313.039062 391.292969 1309.96875 388.335938 1306.070312 388.335938 L 1301.9375 388.335938 C 1302.054688 387.507812 1302.175781 386.796875 1302.054688 386.324219 C 1301.820312 384.3125 1301.230469 378.992188 1296.859375 376.980469 C 1295.914062 376.507812 1294.851562 376.269531 1293.90625 376.269531 C 1293.789062 376.269531 1293.671875 376.269531 1293.554688 376.269531 C 1292.136719 376.386719 1290.71875 376.863281 1289.539062 377.808594 C 1286.703125 380.054688 1286.820312 383.367188 1286.9375 384.667969 C 1286.9375 384.785156 1286.9375 385.023438 1286.9375 385.140625 L 1286.9375 385.734375 C 1286.347656 387.035156 1284.578125 389.753906 1283.867188 390.820312 C 1283.515625 390.9375 1283.042969 391.054688 1282.6875 391.175781 C 1281.859375 390.820312 1280.917969 390.582031 1279.972656 390.582031 L 1275.246094 390.582031 C 1272.648438 390.582031 1270.523438 392.710938 1270.523438 395.3125 L 1270.523438 409.507812 C 1270.523438 412.109375 1272.648438 414.238281 1275.246094 414.238281 L 1279.972656 414.238281 C 1281.152344 414.238281 1282.097656 413.765625 1282.925781 413.175781 C 1283.042969 413.175781 1283.042969 413.175781 1283.160156 413.175781 C 1283.632812 413.175781 1284.105469 413.175781 1284.578125 413.175781 C 1284.8125 413.175781 1285.050781 413.175781 1285.285156 413.175781 C 1285.757812 413.53125 1286.46875 413.886719 1287.410156 414.121094 C 1287.765625 414.238281 1288.238281 414.238281 1288.59375 414.238281 L 1302.765625 414.238281 C 1306.542969 414.238281 1309.613281 411.164062 1309.613281 407.378906 C 1309.613281 407.378906 1309.613281 407.261719 1309.613281 407.261719 C 1310.441406 406.078125 1310.914062 404.777344 1310.914062 403.238281 C 1310.914062 403.003906 1310.914062 402.882812 1310.914062 402.648438 C 1311.621094 401.582031 1311.976562 400.398438 1311.976562 399.097656 C 1312.210938 398.863281 1312.09375 398.625 1312.09375 398.390625 Z M 1279.972656 409.507812 L 1275.246094 409.507812 L 1275.246094 395.3125 L 1279.972656 395.3125 Z M 1306.070312 397.089844 C 1306.070312 397.089844 1307.371094 398.152344 1307.371094 399.097656 C 1307.371094 400.28125 1306.425781 401.226562 1305.125 401.226562 C 1305.125 401.226562 1306.308594 402.175781 1306.308594 403.359375 C 1306.308594 404.539062 1305.363281 405.488281 1304.183594 405.488281 C 1304.183594 405.488281 1305.007812 406.433594 1305.007812 407.617188 C 1305.007812 408.796875 1304.0625 409.746094 1302.882812 409.746094 L 1288.710938 409.746094 C 1288.003906 409.507812 1287.410156 408.917969 1286.703125 408.679688 C 1286.585938 408.679688 1286.230469 408.5625 1285.757812 408.5625 C 1285.402344 408.5625 1285.050781 408.5625 1284.695312 408.5625 L 1284.695312 395.667969 C 1285.757812 395.3125 1286.9375 394.960938 1286.9375 394.960938 C 1287.175781 394.367188 1291.546875 387.980469 1291.546875 386.679688 C 1291.546875 386.207031 1291.546875 385.851562 1291.546875 385.378906 C 1291.546875 384.078125 1291.191406 382.65625 1292.371094 381.710938 C 1292.726562 381.355469 1293.199219 381.121094 1293.789062 381.121094 C 1293.789062 381.121094 1293.90625 381.121094 1293.90625 381.121094 C 1294.261719 381.121094 1294.617188 381.238281 1294.96875 381.355469 C 1296.859375 382.183594 1297.214844 385.140625 1297.449219 386.796875 C 1297.570312 387.742188 1296.152344 392.710938 1295.914062 393.066406 L 1306.191406 393.066406 C 1307.371094 393.066406 1308.433594 393.777344 1308.433594 394.960938 C 1308.316406 396.140625 1307.371094 397.089844 1306.070312 397.089844 Z M 1306.070312 397.089844 " fill-opacity="1" fill-rule="nonzero"/></g></svg>