<?xml version="1.0" encoding="UTF-8" standalone="no"?><!-- Generator: Gravit.io --><svg xmlns="http://www.w3.org/2000/svg" xmlns:xlink="http://www.w3.org/1999/xlink" style="isolation:isolate" viewBox="0 0 595.28 595.28" width="595.28pt" height="595.28pt"><defs><clipPath id="_clipPath_NMInD0XxgOT63nd0TaVwK9X5AeREquLe"><rect width="595.28" height="595.28"/></clipPath></defs><g clip-path="url(#_clipPath_NMInD0XxgOT63nd0TaVwK9X5AeREquLe)"><g><clipPath id="_clipPath_Z9JIZCbuyQDVHVB8xlFkAzfN5v97vDqk"><path d=" M 0 0 L 0 595.28 L 595.28 595.28 L 595.28 0 L 0 0 Z " fill="rgb(255,255,255)"/></clipPath><g clip-path="url(#_clipPath_Z9JIZCbuyQDVHVB8xlFkAzfN5v97vDqk)"><path d=" M 220.047 146.335 L 170.817 44.108 C 97.333 80.934 42.09 148.754 22.219 230.431 L 132.798 255.67 C 144.915 207.966 177.209 168.345 220.047 146.335 Z " fill="rgb(189,191,193)"/><path d=" M 467.718 297.667 C 467.718 336.242 454.858 371.803 433.216 400.336 L 521.889 471.052 C 559.003 423.12 581.105 362.978 581.105 297.667 C 581.105 277.452 578.972 257.738 574.949 238.721 L 464.365 263.962 C 466.556 274.858 467.718 286.126 467.718 297.667 Z " fill="rgb(189,191,193)"/><path d=" M 297.64 14.202 C 255.073 14.202 214.706 23.603 178.477 40.413 L 227.706 142.64 C 249.044 132.999 272.703 127.588 297.64 127.588 C 322.575 127.588 346.233 132.999 367.57 142.639 L 416.8 40.412 C 380.572 23.603 340.206 14.202 297.64 14.202 Z " fill="rgb(189,191,193)"/><path d=" M 462.482 255.67 L 573.06 230.43 C 553.189 148.752 497.945 80.932 424.459 44.106 L 375.23 146.334 C 418.069 168.343 450.364 207.964 462.482 255.67 Z " fill="rgb(189,191,193)"/><path d=" M 127.561 297.667 C 127.561 286.126 128.724 274.858 130.914 263.963 L 20.329 238.722 C 16.307 257.739 14.175 277.452 14.175 297.667 C 14.175 362.977 36.277 423.119 73.389 471.05 L 162.063 400.335 C 140.421 371.801 127.561 336.241 127.561 297.667 Z " fill="rgb(189,191,193)"/><path d=" M 293.386 581.077 L 293.386 467.638 C 242.811 466.392 197.721 443.105 167.372 406.977 L 78.685 477.703 C 129.835 539.84 206.924 579.804 293.386 581.077 Z " fill="rgb(189,191,193)"/><path d=" M 301.89 581.078 C 388.353 579.805 465.442 539.841 516.594 477.705 L 427.906 406.978 C 397.557 443.107 352.466 466.394 301.89 467.638 L 301.89 581.078 Z " fill="rgb(105,175,80)"/><path d=" M 367.57 142.639 C 346.233 132.999 322.575 127.588 297.64 127.588 C 272.703 127.588 249.044 132.999 227.706 142.64 L 297.638 287.854 L 367.57 142.639 Z " fill="rgb(220,221,222)"/><path d=" M 130.914 263.963 C 128.724 274.858 127.561 286.126 127.561 297.667 C 127.561 336.241 140.421 371.801 162.063 400.335 L 288.083 299.836 L 130.914 263.963 Z " fill="rgb(220,221,222)"/><path d=" M 301.89 467.638 C 352.466 466.394 397.557 443.107 427.906 406.978 L 301.89 306.485 L 301.89 467.638 Z " fill="rgb(176,206,154)"/><path d=" M 464.365 263.962 L 307.193 299.836 L 433.216 400.336 C 454.858 371.803 467.718 336.242 467.718 297.667 C 467.718 286.126 466.556 274.858 464.365 263.962 Z " fill="rgb(220,221,222)"/><path d=" M 220.047 146.335 C 177.209 168.345 144.915 207.966 132.798 255.67 L 289.976 291.545 L 220.047 146.335 Z " fill="rgb(220,221,222)"/><path d=" M 462.482 255.67 C 450.364 207.964 418.069 168.343 375.23 146.334 L 305.3 291.545 L 462.482 255.67 Z " fill="rgb(220,221,222)"/><path d=" M 167.372 406.977 C 197.721 443.105 242.811 466.392 293.386 467.638 L 293.386 306.485 L 167.372 406.977 Z " fill="rgb(220,221,222)"/><path d=" M 78.685 477.703 C 76.883 475.516 75.125 473.292 73.389 471.05" fill="rgb(235,40,143)"/><path d=" M 396.852 297.667 C 396.852 352.46 352.433 396.879 297.64 396.879 C 242.846 396.879 198.427 352.46 198.427 297.667 C 198.427 242.873 242.846 198.454 297.64 198.454 C 352.433 198.454 396.852 242.873 396.852 297.667 Z " fill="rgb(254,254,254)"/><path d=" M 242.812 336.72 L 250.292 328.044 C 257.322 335.374 267.195 340.31 277.366 340.31 C 290.23 340.31 297.859 333.878 297.859 324.305 C 297.859 314.283 290.827 311.141 281.554 306.953 L 267.493 300.82 C 258.22 296.931 247.599 289.901 247.599 275.541 C 247.599 260.583 260.613 249.513 278.413 249.513 C 290.081 249.513 300.402 254.45 307.431 261.63 L 300.7 269.707 C 294.718 264.023 287.538 260.433 278.413 260.433 C 267.493 260.433 260.163 265.968 260.163 274.793 C 260.163 284.217 268.691 287.806 276.468 291.097 L 290.38 297.081 C 301.747 302.017 310.573 308.748 310.573 323.258 C 310.573 338.814 297.859 351.229 277.216 351.229 C 263.454 351.229 251.339 345.545 242.812 336.72 Z " fill="rgb(76,76,77)"/><path d=" M 329.87 251.308 L 342.286 251.308 L 342.286 349.434 L 329.87 349.434 L 329.87 251.308 Z " fill="rgb(76,76,77)"/><path d=" M 105.394 177.816 C 97.298 172.223 96.579 163.341 101.048 156.875 C 103.197 153.765 105.915 152.362 108.673 151.642 L 110.466 156.964 C 108.443 157.463 106.948 158.254 105.892 159.784 C 103.198 163.684 104.531 168.616 109.417 171.992 C 114.255 175.334 119.306 174.885 121.931 171.084 C 123.228 169.208 123.482 166.833 123.302 164.666 L 128.657 164.938 C 129.062 168.573 128.072 172.118 126.161 174.882 C 121.591 181.497 113.439 183.375 105.394 177.816 Z " fill="rgb(254,254,254)"/><path d=" M 139.015 145.139 L 128.839 135.908 C 126.136 136.209 124.316 137.232 122.986 138.698 C 120.447 141.498 121.011 146.142 125.589 150.295 C 130.298 154.568 134.443 155.088 137.306 151.933 C 138.837 150.245 139.372 148.138 139.015 145.139 Z  M 120.835 155.622 C 113.726 149.172 113.443 140.734 117.757 135.979 C 120.015 133.491 122.359 132.783 125.357 132.424 L 121.685 129.417 L 113.777 122.242 L 118.411 117.132 L 149.782 145.593 L 145.952 149.814 L 143.275 148.033 L 143.115 148.211 C 143.261 151.262 142.534 154.653 140.398 157.008 C 135.439 162.473 128.034 162.153 120.835 155.622 Z " fill="rgb(254,254,254)"/><path d=" M 269.573 44.261 L 276.339 43.828 L 278.027 70.233 L 278.206 70.221 L 288.238 55.994 L 295.782 55.511 L 286.49 68.129 L 298.679 84.844 L 291.197 85.323 L 282.835 73.052 L 278.562 78.615 L 279.04 86.099 L 272.275 86.532 L 269.573 44.261 Z " fill="rgb(254,254,254)"/><path d=" M 318.771 66.743 C 319.044 63.094 316.991 60.773 314.118 60.559 C 311.247 60.344 308.818 62.269 308.538 65.977 C 308.257 69.747 310.37 72.072 313.241 72.287 C 316.054 72.497 318.49 70.514 318.771 66.743 Z  M 320.616 90.347 C 320.786 88.074 318.98 87.276 315.63 87.026 L 311.62 86.726 C 310.005 86.605 308.757 86.392 307.644 86.008 C 305.997 87.088 305.181 88.351 305.079 89.727 C 304.882 92.36 307.638 94.13 312.306 94.479 C 317.032 94.833 320.427 92.859 320.616 90.347 Z  M 299.259 90.314 C 299.443 87.861 301.099 85.819 303.917 84.344 L 303.935 84.105 C 302.511 83.037 301.49 81.395 301.669 79.003 C 301.839 76.729 303.542 74.87 305.308 73.799 L 305.325 73.559 C 303.462 71.917 301.818 68.966 302.077 65.494 C 302.583 58.734 308.31 55.371 314.472 55.832 C 316.089 55.953 317.562 56.364 318.728 56.872 L 329.259 57.659 L 328.878 62.746 L 323.491 62.343 C 324.365 63.552 324.948 65.4 324.796 67.435 C 324.308 73.956 319.144 77.059 312.919 76.595 C 311.663 76.501 310.245 76.154 308.97 75.517 C 308.013 76.228 307.421 76.906 307.323 78.222 C 307.198 79.897 308.318 81.004 311.907 81.272 L 317.115 81.661 C 324.175 82.189 327.724 84.62 327.343 89.707 C 326.909 95.512 320.466 99.601 310.892 98.887 C 303.892 98.362 298.874 95.461 299.259 90.314 Z " fill="rgb(254,254,254)"/><path d=" M 473.05 130.692 L 476.572 135.173 L 473.708 138.034 L 473.857 138.223 C 477.452 138.525 480.884 139.491 483.146 142.368 C 485.816 145.763 485.779 148.92 484.038 152.045 C 488.14 152.407 491.747 153.308 494.048 156.233 C 497.904 161.137 496.335 166.034 490.488 170.632 L 475.962 182.054 L 471.661 176.583 L 485.478 165.718 C 489.298 162.714 489.823 160.47 487.933 158.064 C 486.782 156.602 484.577 155.741 481.236 155.469 L 465.06 168.188 L 460.796 162.764 L 474.613 151.9 C 478.433 148.896 478.958 146.651 477.029 144.2 C 475.917 142.785 473.677 141.876 470.333 141.603 L 454.157 154.323 L 449.894 148.9 L 473.05 130.692 Z " fill="rgb(254,254,254)"/><path d=" M 508.691 333.113 L 512.271 337.282 C 509.683 339.386 507.88 341.551 507.195 344.471 C 506.468 347.565 507.585 349.369 509.572 349.835 C 511.966 350.397 513.743 347.549 515.624 344.786 C 517.917 341.319 521.079 337.562 525.868 338.688 C 530.892 339.867 533.507 344.733 531.999 351.158 C 531.066 355.13 528.677 357.958 526.318 359.869 L 522.956 355.813 C 524.882 354.17 526.357 352.359 526.89 350.082 C 527.562 347.22 526.534 345.56 524.724 345.136 C 522.447 344.6 520.9 347.258 519.062 350.091 C 516.683 353.662 513.8 357.545 508.427 356.284 C 503.521 355.131 500.468 350.286 502.167 343.044 C 503.087 339.132 505.755 335.383 508.691 333.113 Z " fill="rgb(254,254,254)"/><path d=" M 77.486 394.225 L 75.64 388.834 L 79.286 387.078 L 79.208 386.85 C 75.915 385.379 72.995 383.335 71.81 379.873 C 70.409 375.786 71.486 372.816 74.161 370.443 C 70.409 368.747 67.3 366.704 66.095 363.186 C 64.073 357.283 67.171 353.178 74.208 350.768 L 91.691 344.782 L 93.945 351.366 L 77.316 357.061 C 72.718 358.635 71.482 360.58 72.474 363.475 C 73.075 365.235 74.87 366.775 77.937 368.136 L 97.406 361.469 L 99.64 367.996 L 83.009 373.691 C 78.413 375.265 77.175 377.21 78.187 380.162 C 78.771 381.864 80.585 383.463 83.652 384.822 L 103.118 378.156 L 105.355 384.683 L 77.486 394.225 Z " fill="rgb(254,254,254)"/><path d=" M 73.743 321.397 C 67.863 322.236 64.374 325.4 64.984 329.678 C 65.595 333.955 69.82 335.958 75.7 335.119 C 81.523 334.289 85.021 331.184 84.409 326.907 C 83.8 322.63 79.566 320.566 73.743 321.397 Z  M 76.7 342.129 C 66.958 343.519 60.433 337.721 59.4 330.473 C 58.357 323.167 63.001 315.776 72.743 314.387 C 82.427 313.005 88.952 318.804 89.993 326.11 C 91.027 333.357 86.384 340.748 76.7 342.129 Z " fill="rgb(254,254,254)"/><path d=" M 79.814 306.779 L 45.031 307.851 L 44.818 300.955 L 79.962 299.871 C 81.64 299.82 82.216 299.022 82.195 298.302 C 82.185 298.003 82.177 297.762 82.04 297.226 L 87.171 296.167 C 87.558 296.995 87.833 298.188 87.884 299.807 C 88.034 304.725 84.911 306.622 79.814 306.779 Z " fill="rgb(254,254,254)"/><path d=" M 198.952 476.393 L 205.206 479.448 L 197.384 495.46 L 197.546 495.538 L 217.929 485.663 L 224.884 489.061 L 207.331 497.515 L 209.493 525.214 L 202.593 521.844 L 201.161 500.576 L 193.011 504.409 L 187.982 514.706 L 181.728 511.651 L 198.952 476.393 Z " fill="rgb(254,254,254)"/><path d=" M 391.302 503.336 L 400.359 499.048 L 397.058 495.3 C 394.148 492.099 391.193 488.518 388.314 485.101 L 388.097 485.204 C 388.993 489.625 389.863 494.126 390.497 498.406 L 391.302 503.336 Z  M 382.316 481.967 L 389.691 478.474 L 418.031 508.473 L 411.415 511.605 L 404.105 503.315 L 392.175 508.964 L 393.952 519.872 L 387.554 522.901 L 382.316 481.967 Z " fill="rgb(254,254,254)"/><path d=" M 169.771 218.68 L 172.169 215.086 L 180.71 223.621 L 180.798 223.488 L 177.298 207.398 L 179.939 203.438 L 183.241 217.231 L 199.616 221.086 L 197.13 224.813 L 183.728 221.403 L 185.103 227.994 L 191.048 233.932 L 188.65 237.526 L 169.771 218.68 Z " fill="rgb(76,76,77)"/><path d=" M 207.031 224.423 C 204.15 221.905 204.265 218.443 206.275 216.142 C 207.241 215.035 208.355 214.614 209.452 214.457 L 209.909 216.592 C 209.107 216.696 208.493 216.935 208.019 217.479 C 206.806 218.867 207.103 220.83 208.841 222.35 C 210.564 223.855 212.532 223.904 213.716 222.552 C 214.298 221.884 214.501 220.978 214.529 220.133 L 216.585 220.474 C 216.581 221.896 216.042 223.222 215.183 224.205 C 213.124 226.559 209.894 226.925 207.031 224.423 Z " fill="rgb(76,76,77)"/><path d=" M 220.282 214 L 216.583 210.149 C 215.527 210.194 214.792 210.543 214.238 211.076 C 213.179 212.094 213.275 213.91 214.939 215.642 C 216.652 217.425 218.245 217.737 219.439 216.589 C 220.079 215.975 220.341 215.172 220.282 214 Z  M 212.954 217.582 C 210.368 214.891 210.484 211.611 212.282 209.882 C 213.224 208.977 214.152 208.765 215.325 208.706 L 213.982 207.442 L 211.105 204.449 L 213.038 202.591 L 224.447 214.462 L 222.849 215.997 L 221.859 215.235 L 221.79 215.3 C 221.767 216.487 221.396 217.783 220.503 218.639 C 218.435 220.627 215.572 220.306 212.954 217.582 Z " fill="rgb(76,76,77)"/><path d=" M 294.023 145.213 L 298.302 145.235 L 296.538 153.546 L 295.765 156.381 L 295.925 156.381 C 297.933 154.672 300.06 153.363 302.419 153.375 C 305.698 153.392 307.05 155.198 307.032 158.357 C 307.029 159.277 306.945 160.077 306.698 161.115 L 304.156 173.5 L 299.876 173.478 L 302.337 161.653 C 302.501 160.734 302.665 160.175 302.667 159.575 C 302.675 157.895 301.88 157.052 300.2 157.043 C 298.841 157.036 297.318 157.948 295.226 160.056 L 292.519 173.44 L 288.2 173.419 L 294.023 145.213 Z " fill="rgb(76,76,77)"/><path d=" M 396.146 209.977 C 401.679 205.626 409.24 206.244 413.021 211.054 C 414.505 212.94 414.663 214.952 414.323 216.592 L 410.798 216.313 C 411.046 214.948 410.929 214.022 410.115 212.985 C 407.939 210.219 402.829 210.319 398.993 213.336 C 396.665 215.165 396.13 217.265 397.763 219.341 C 398.702 220.535 400.009 221.033 401.257 221.325 L 400.255 224.451 C 398.491 223.956 396.314 223.126 394.484 220.799 C 391.812 217.404 392.156 213.117 396.146 209.977 Z " fill="rgb(76,76,77)"/><path d=" M 422.964 323.36 L 433.736 321.671 L 442.157 320.491 L 442.183 320.333 L 434.568 316.577 L 424.882 311.595 L 422.964 323.36 Z  M 424.581 306.478 L 446.306 318.411 L 445.425 323.82 L 421.04 328.195 L 418.277 327.744 L 421.818 306.028 L 424.581 306.478 Z " fill="rgb(76,76,77)"/><path d=" M 414.972 335.43 L 428.491 335.418 C 429.384 335.417 430.294 335.325 431.222 335.141 C 432.15 334.958 432.743 334.478 433.003 333.701 C 433.128 333.33 433.185 332.896 433.173 332.397 L 433.909 332.356 L 434.247 337.6 L 433.974 338.415 L 418.101 338.5 L 423.253 343.59 C 424.177 344.518 424.954 345.089 425.583 345.3 C 426.089 345.471 426.833 345.603 427.818 345.701 C 428.538 345.763 429.066 345.851 429.398 345.964 C 430.62 346.374 431.009 347.241 430.566 348.56 C 430.171 349.733 429.419 350.134 428.308 349.761 C 427.21 349.391 425.386 347.871 422.835 345.2 L 414.597 336.541 L 414.972 335.43 Z " fill="rgb(76,76,77)"/><path d=" M 414.972 335.43 L 428.491 335.418 C 429.384 335.417 430.294 335.325 431.222 335.141 C 432.15 334.958 432.743 334.478 433.003 333.701 C 433.128 333.33 433.185 332.896 433.173 332.397 L 433.909 332.356 L 434.247 337.6 L 433.974 338.415 L 418.101 338.5 L 423.253 343.59 C 424.177 344.518 424.954 345.089 425.583 345.3 C 426.089 345.471 426.833 345.603 427.818 345.701 C 428.538 345.763 429.066 345.851 429.398 345.964 C 430.62 346.374 431.009 347.241 430.566 348.56 C 430.171 349.733 429.419 350.134 428.308 349.761 C 427.21 349.391 425.386 347.871 422.835 345.2 L 414.597 336.541 L 414.972 335.43 Z " fill="none" vector-effect="non-scaling-stroke" stroke-width="0.5" stroke="rgb(76,76,77)" stroke-linejoin="miter" stroke-linecap="butt" stroke-miterlimit="10"/><path d=" M 154.769 343.476 L 153.642 339.388 L 166.898 330.429 L 171.931 327.467 L 171.888 327.313 C 169.22 327.716 165.88 328.387 162.982 328.562 L 150.904 329.44 L 149.8 325.43 L 176.407 323.538 L 177.523 327.587 L 164.296 336.497 L 159.185 339.481 L 159.228 339.635 C 162.011 339.2 165.181 338.659 168.077 338.483 L 180.273 337.574 L 181.366 341.545 L 154.769 343.476 Z " fill="rgb(76,76,77)"/><path d=" M 182.083 313.909 L 181.607 310.044 L 179.82 310.804 C 178.284 311.488 176.603 312.14 174.99 312.786 L 175.003 312.879 C 176.741 313.087 178.509 313.316 180.165 313.604 L 182.083 313.909 Z  M 173.103 314.618 L 172.712 311.471 L 187.24 304.673 L 187.589 307.495 L 183.638 309.181 L 184.267 314.272 L 188.509 314.948 L 188.845 317.679 L 173.103 314.618 Z " fill="rgb(76,76,77)"/><path d=" M 243.263 403.509 L 247.109 405.388 L 236.113 419.78 L 236.257 419.85 L 248.077 415.432 L 252.388 417.54 L 241.585 421.609 L 240.855 433.763 L 236.972 431.865 L 237.784 422.557 L 232.63 424.356 L 229.642 428.282 L 225.761 426.385 L 243.263 403.509 Z " fill="rgb(76,76,77)"/><path d=" M 359.894 418.469 C 359.781 417.947 359.613 417.407 359.339 416.829 C 358.519 415.093 357.06 413.881 354.89 414.907 C 352.757 415.917 351.48 418.733 352.048 422.182 L 359.894 418.469 Z  M 353.941 411.683 C 358.062 409.733 360.933 411.871 362.677 415.558 C 363.413 417.113 363.677 418.979 363.697 419.679 L 352.886 424.794 C 354.269 428.742 357.118 429.341 359.794 428.075 C 361.06 427.476 362.109 426.139 362.741 424.954 L 365.368 426.765 C 364.402 428.461 362.716 430.321 360.183 431.518 C 355.952 433.52 351.761 432.141 349.503 427.369 C 346.372 420.752 349.277 413.891 353.941 411.683 Z " fill="rgb(76,76,77)"/></g></g></g></svg>