<svg xmlns="http://www.w3.org/2000/svg" xmlns:xlink="http://www.w3.org/1999/xlink" width="1024" zoomAndPan="magnify" viewBox="0 0 768 576" height="768" preserveAspectRatio="xMidYMid meet" version="1.0"><defs><clipPath id="18ed2659c0"><path d="M 166 89 L 602 89 L 602 543.792969 L 166 543.792969 Z M 166 89 " clip-rule="nonzero"/></clipPath><clipPath id="74597b6115"><path d="M 128.292969 32.292969 L 639.792969 32.292969 L 639.792969 543.792969 L 128.292969 543.792969 Z M 128.292969 32.292969 " clip-rule="nonzero"/></clipPath></defs><g clip-path="url(#18ed2659c0)"><path fill="#ce8619" d="M 185.125 524.847656 L 582.960938 524.847656 L 582.960938 108.070312 L 185.125 108.070312 Z M 592.433594 543.792969 L 175.652344 543.792969 C 170.4375 543.792969 166.183594 539.539062 166.183594 534.320312 L 166.183594 98.597656 C 166.183594 93.382812 170.4375 89.125 175.652344 89.125 L 592.433594 89.125 C 597.648438 89.125 601.902344 93.382812 601.902344 98.597656 L 601.902344 534.320312 C 601.902344 539.539062 597.648438 543.792969 592.433594 543.792969 " fill-opacity="1" fill-rule="nonzero"/></g><path fill="#e9951c" d="M 263.566406 502.832031 L 327.210938 430.125 L 327.210938 363.820312 L 229.269531 479.558594 C 240 488.253906 251.46875 496.023438 263.566406 502.832031 " fill-opacity="1" fill-rule="nonzero"/><path fill="#e9951c" d="M 440.875 363.820312 L 440.875 430.125 L 504.519531 502.832031 C 516.617188 496.023438 528.085938 488.253906 538.816406 479.558594 L 440.875 363.820312 " fill-opacity="1" fill-rule="nonzero"/><path fill="#e9951c" d="M 241.960938 164.902344 L 270.375 136.488281 L 346.152344 212.265625 L 317.738281 240.683594 L 241.960938 164.902344 " fill-opacity="1" fill-rule="nonzero"/><path fill="#e9951c" d="M 526.125 164.902344 L 497.710938 136.488281 L 421.933594 212.265625 L 450.347656 240.683594 L 526.125 164.902344 " fill-opacity="1" fill-rule="nonzero"/><path fill="#f9ad2a" d="M 402.988281 180 C 416.972656 173.007812 426.667969 158.726562 426.667969 142.039062 C 426.667969 118.46875 407.574219 99.414062 384.042969 99.414062 C 360.511719 99.414062 341.417969 118.46875 341.417969 142.039062 C 341.417969 158.726562 351.113281 173.007812 365.097656 180 L 365.097656 203.605469 L 213.542969 203.605469 L 213.542969 241.496094 L 327.210938 241.496094 L 327.210938 527.660156 C 339.492188 530.546875 352.183594 532.542969 365.097656 533.542969 L 365.097656 383.578125 C 365.097656 373.109375 373.570312 364.632812 384.042969 364.632812 C 394.515625 364.632812 402.988281 373.109375 402.988281 383.578125 L 402.988281 533.542969 C 415.902344 532.542969 428.59375 530.546875 440.875 527.660156 L 440.875 241.496094 L 554.542969 241.496094 L 554.542969 203.605469 L 402.988281 203.605469 L 402.988281 180 " fill-opacity="1" fill-rule="nonzero"/><g clip-path="url(#74597b6115)"><path fill="#bf7b1c" d="M 384.042969 51.238281 C 253.464844 51.238281 147.238281 157.46875 147.238281 288.042969 C 147.238281 418.617188 253.464844 524.847656 384.042969 524.847656 C 514.617188 524.847656 620.847656 418.617188 620.847656 288.042969 C 620.847656 157.46875 514.617188 51.238281 384.042969 51.238281 Z M 384.042969 543.792969 C 243.03125 543.792969 128.292969 429.054688 128.292969 288.042969 C 128.292969 147.03125 243.03125 32.292969 384.042969 32.292969 C 525.054688 32.292969 639.792969 147.03125 639.792969 288.042969 C 639.792969 429.054688 525.054688 543.792969 384.042969 543.792969 " fill-opacity="1" fill-rule="nonzero"/><path fill="#100f0d" d="M 166.183594 380.804688 C 154.007812 352.3125 147.238281 320.9375 147.238281 288.042969 C 147.238281 255.148438 154.007812 223.773438 166.183594 195.28125 Z M 185.125 108.070312 L 202.554688 108.070312 C 196.410156 114.25 190.601562 120.761719 185.125 127.53125 Z M 384.042969 51.238281 C 431.292969 51.238281 475.285156 65.1875 512.289062 89.125 L 255.796875 89.125 C 292.796875 65.1875 336.792969 51.238281 384.042969 51.238281 Z M 582.960938 127.53125 C 577.484375 120.761719 571.675781 114.25 565.53125 108.070312 L 582.960938 108.070312 Z M 620.847656 288.042969 C 620.847656 320.9375 614.078125 352.3125 601.902344 380.804688 L 601.902344 195.28125 C 614.078125 223.773438 620.847656 255.148438 620.847656 288.042969 Z M 582.960938 524.847656 L 480.503906 524.847656 C 490.160156 520.890625 499.523438 516.375 508.550781 511.34375 C 508.734375 511.230469 508.957031 511.195312 509.144531 511.085938 C 509.992188 510.601562 510.769531 510.046875 511.621094 509.566406 C 516.433594 506.792969 521.132812 503.90625 525.757812 500.796875 C 527.199219 499.835938 528.640625 498.800781 530.085938 497.800781 C 533.933594 495.136719 537.671875 492.324219 541.371094 489.4375 C 542.480469 488.585938 543.664062 487.8125 544.773438 486.921875 C 544.921875 486.8125 544.996094 486.625 545.144531 486.480469 C 559.019531 475.191406 571.710938 462.464844 582.960938 448.550781 Z M 450.347656 455.324219 L 489.457031 500.019531 C 476.988281 506.238281 463.925781 511.378906 450.347656 515.339844 Z M 374.570312 524.625 L 374.570312 383.578125 C 374.570312 378.324219 378.824219 374.105469 384.042969 374.105469 C 389.261719 374.105469 393.515625 378.324219 393.515625 383.578125 L 393.515625 524.625 C 390.371094 524.738281 387.226562 524.847656 384.042969 524.847656 C 380.859375 524.847656 377.714844 524.738281 374.570312 524.625 Z M 317.738281 455.324219 L 317.738281 515.339844 C 304.15625 511.378906 291.097656 506.238281 278.628906 500.019531 Z M 453.492188 194.132812 L 497.710938 149.882812 L 512.730469 164.902344 L 483.539062 194.132812 Z M 365.097656 213.078125 C 370.316406 213.078125 374.570312 208.824219 374.570312 203.605469 L 374.570312 180 C 374.570312 176.449219 372.535156 173.15625 369.351562 171.5625 C 357.957031 165.867188 350.890625 154.542969 350.890625 142.039062 C 350.890625 123.757812 365.765625 108.882812 384.042969 108.882812 C 402.320312 108.882812 417.195312 123.757812 417.195312 142.039062 C 417.195312 154.542969 410.128906 165.867188 398.730469 171.5625 C 395.550781 173.15625 393.515625 176.449219 393.515625 180 L 393.515625 203.605469 C 393.515625 208.824219 397.769531 213.078125 402.988281 213.078125 L 545.070312 213.078125 L 545.070312 232.023438 L 440.875 232.023438 C 435.660156 232.023438 431.402344 236.242188 431.402344 241.496094 L 431.402344 520.039062 C 425.152344 521.296875 418.824219 522.332031 412.460938 523.074219 L 412.460938 383.578125 C 412.460938 367.890625 399.730469 355.164062 384.042969 355.164062 C 368.355469 355.164062 355.625 367.890625 355.625 383.578125 L 355.625 523.074219 C 349.261719 522.332031 342.933594 521.296875 336.683594 520.039062 L 336.683594 241.496094 C 336.683594 236.242188 332.425781 232.023438 327.210938 232.023438 L 223.015625 232.023438 L 223.015625 213.078125 Z M 284.546875 194.132812 L 255.355469 164.902344 L 270.375 149.882812 L 314.59375 194.132812 Z M 244.917969 479.523438 C 244.253906 479.003906 243.585938 478.558594 242.921875 478.078125 L 317.738281 389.683594 L 317.738281 426.574219 L 261.644531 490.695312 C 261.347656 490.511719 261.089844 490.328125 260.792969 490.179688 C 255.355469 486.847656 250.0625 483.257812 244.917969 479.523438 Z M 523.167969 479.523438 C 518.023438 483.257812 512.730469 486.847656 507.292969 490.179688 C 506.996094 490.328125 506.738281 490.511719 506.441406 490.695312 L 450.347656 426.574219 L 450.347656 389.683594 L 525.164062 478.078125 C 524.5 478.558594 523.832031 479.003906 523.167969 479.523438 Z M 582.960938 159.796875 L 582.960938 416.289062 C 570.933594 434.863281 556.429688 451.625 539.851562 466.128906 L 450.347656 360.34375 L 450.347656 250.96875 L 554.542969 250.96875 C 559.761719 250.96875 564.015625 246.714844 564.015625 241.496094 L 564.015625 203.605469 C 564.015625 198.351562 559.761719 194.132812 554.542969 194.132812 L 510.328125 194.132812 L 532.824219 171.601562 C 536.523438 167.902344 536.523438 161.90625 532.824219 158.207031 L 504.40625 129.789062 C 500.707031 126.089844 494.710938 126.089844 491.011719 129.789062 L 426.703125 194.132812 L 412.460938 194.132812 L 412.460938 185.476562 C 427.1875 175.929688 436.140625 159.761719 436.140625 142.039062 C 436.140625 129.050781 431.328125 117.210938 423.484375 108.070312 L 537.671875 108.070312 C 555.171875 123.019531 570.417969 140.445312 582.960938 159.796875 Z M 230.414062 108.070312 L 344.601562 108.070312 C 336.753906 117.210938 331.945312 129.050781 331.945312 142.039062 C 331.945312 159.761719 340.898438 175.929688 355.625 185.476562 L 355.625 194.132812 L 341.378906 194.132812 L 277.074219 129.789062 C 273.375 126.089844 267.378906 126.089844 263.679688 129.789062 L 235.261719 158.207031 C 231.5625 161.90625 231.5625 167.902344 235.261719 171.601562 L 257.757812 194.132812 L 213.542969 194.132812 C 208.324219 194.132812 204.070312 198.351562 204.070312 203.605469 L 204.070312 241.496094 C 204.070312 246.714844 208.324219 250.96875 213.542969 250.96875 L 317.738281 250.96875 L 317.738281 360.34375 L 228.230469 466.128906 C 211.65625 451.625 197.152344 434.863281 185.125 416.289062 L 185.125 159.796875 C 197.667969 140.445312 212.914062 123.019531 230.414062 108.070312 Z M 185.125 448.550781 C 196.375 462.464844 209.066406 475.191406 222.941406 486.480469 C 223.089844 486.625 223.164062 486.8125 223.3125 486.921875 C 224.421875 487.8125 225.605469 488.585938 226.714844 489.4375 C 230.414062 492.324219 234.152344 495.136719 238 497.800781 C 239.445312 498.800781 240.886719 499.835938 242.328125 500.796875 C 246.953125 503.90625 251.652344 506.792969 256.464844 509.566406 C 257.316406 510.046875 258.09375 510.601562 258.941406 511.085938 C 259.128906 511.195312 259.351562 511.230469 259.535156 511.34375 C 268.5625 516.375 277.925781 520.890625 287.582031 524.847656 L 185.125 524.847656 Z M 166.183594 421.800781 L 166.183594 534.320312 C 166.183594 539.539062 170.4375 543.792969 175.652344 543.792969 L 592.433594 543.792969 C 597.648438 543.792969 601.902344 539.539062 601.902344 534.320312 L 601.902344 421.800781 C 625.917969 382.875 639.792969 337.070312 639.792969 288.042969 C 639.792969 239.015625 625.917969 193.210938 601.902344 154.285156 L 601.902344 98.597656 C 601.902344 93.382812 597.648438 89.125 592.433594 89.125 L 544.550781 89.125 C 500.632812 53.605469 444.796875 32.292969 384.042969 32.292969 C 323.289062 32.292969 267.453125 53.605469 223.53125 89.125 L 175.652344 89.125 C 170.4375 89.125 166.183594 93.382812 166.183594 98.597656 L 166.183594 154.285156 C 142.167969 193.210938 128.292969 239.015625 128.292969 288.042969 C 128.292969 337.070312 142.167969 382.875 166.183594 421.800781 " fill-opacity="1" fill-rule="nonzero"/></g></svg>